<?xml version="1.0" encoding="UTF-8"?>
<svg version="1.1" xmlns="http://www.w3.org/2000/svg" width="500" height="500">
<path d="M0 0 C4.82992067 1.30152068 8.61379642 4.35838521 12.58544922 7.29760742 C17.13253776 10.55748992 21.84539812 13.58446308 26.5078125 16.67578125 C28.55529566 18.04336075 30.60217742 19.41184112 32.6484375 20.78125 C33.65648437 21.45478516 34.66453125 22.12832031 35.703125 22.82226562 C37.75579923 24.1937775 39.80787367 25.56618744 41.859375 26.93945312 C46.27669076 29.88906178 50.68812487 32.80442199 55.2421875 35.5390625 C56.31984375 36.24417969 57.3975 36.94929688 58.5078125 37.67578125 C58.5078125 38.33578125 58.5078125 38.99578125 58.5078125 39.67578125 C59.22171143 39.93464111 59.93561035 40.19350098 60.67114258 40.46020508 C63.67922148 41.74923381 66.17931212 43.30043964 68.89453125 45.125 C70.4269043 46.15077148 70.4269043 46.15077148 71.99023438 47.19726562 C73.04791016 47.91205078 74.10558594 48.62683594 75.1953125 49.36328125 C76.23365234 50.05873047 77.27199219 50.75417969 78.34179688 51.47070312 C84.13054079 55.35769042 89.87063001 59.30500399 95.55786133 63.33911133 C97.46278302 64.71028406 97.46278302 64.71028406 99.5078125 65.67578125 C99.5078125 66.33578125 99.5078125 66.99578125 99.5078125 67.67578125 C100.15105469 67.89234375 100.79429687 68.10890625 101.45703125 68.33203125 C105.69156149 70.19717645 109.4450682 72.66158252 113.3203125 75.17578125 C114.50270508 75.92408203 114.50270508 75.92408203 115.70898438 76.6875 C116.45341797 77.16832031 117.19785156 77.64914063 117.96484375 78.14453125 C118.9854187 78.80098633 118.9854187 78.80098633 120.02661133 79.47070312 C120.51540771 79.86837891 121.0042041 80.26605469 121.5078125 80.67578125 C121.5078125 81.33578125 121.5078125 81.99578125 121.5078125 82.67578125 C122.52875 83.01609375 122.52875 83.01609375 123.5703125 83.36328125 C127.29404271 85.0270756 130.75186794 86.59651358 133.5078125 89.67578125 C134.41593928 92.77552066 134.09528566 94.3645689 133.5078125 97.67578125 C131.8828125 99.73828125 131.8828125 99.73828125 129.5078125 100.67578125 C126.49048125 100.43439475 124.21498208 100.02936604 121.5078125 98.67578125 C121.5078125 98.01578125 121.5078125 97.35578125 121.5078125 96.67578125 C120.8890625 96.53140625 120.2703125 96.38703125 119.6328125 96.23828125 C117.5078125 95.67578125 117.5078125 95.67578125 115.5078125 94.67578125 C115.5078125 94.01578125 115.5078125 93.35578125 115.5078125 92.67578125 C114.5178125 92.34578125 113.5278125 92.01578125 112.5078125 91.67578125 C112.50450235 92.48123005 112.50119221 93.28667885 112.49778175 94.11653519 C112.41660323 113.70418834 112.32452773 133.29176242 112.22028542 152.87930679 C112.17013835 162.3516503 112.12369567 171.82398506 112.0859375 181.29638672 C112.05302267 189.55138954 112.01319428 197.8063249 111.96502244 206.06125331 C111.93975239 210.43319968 111.91797259 214.80510127 111.90446854 219.17710114 C111.89165278 223.29092139 111.86960365 227.40458812 111.84042931 231.5183239 C111.83134973 233.02920562 111.82566241 234.54011207 111.82359886 236.05101967 C111.82027897 238.11233335 111.80480951 240.17321106 111.7862854 242.23443604 C111.78075464 243.38852085 111.77522388 244.54260567 111.76952553 245.73166275 C111.50667979 248.68852355 111.28568527 250.31129422 109.5078125 252.67578125 C105.23999535 255.20011546 100.70742517 254.95637423 95.8918457 254.92974854 C95.02538831 254.93286852 94.15893091 254.9359885 93.26621723 254.93920302 C90.36360682 254.94717869 87.46120571 254.94086102 84.55859375 254.93457031 C82.47732419 254.93728036 80.3960556 254.94084137 78.31478882 254.94519043 C72.66201301 254.954315 67.00931014 254.95076987 61.35653305 254.94443226 C55.44382275 254.93937264 49.53111874 254.94406361 43.6184082 254.94720459 C33.68862791 254.95084434 23.75887735 254.94604488 13.82910156 254.93652344 C2.34506376 254.92563889 -9.13890303 254.92916446 -20.62293911 254.94017625 C-30.478669 254.94924885 -40.33437749 254.95053453 -50.19011021 254.94529891 C-56.07836127 254.94217907 -61.96657895 254.94177028 -67.85482788 254.94837189 C-73.39025577 254.9541443 -78.925592 254.95015029 -84.46100998 254.93858337 C-86.49395979 254.93593624 -88.52691729 254.93670278 -90.55986404 254.9411087 C-93.33208749 254.94656341 -96.10401611 254.93973082 -98.8762207 254.92974854 C-100.08658005 254.9364407 -100.08658005 254.9364407 -101.32139111 254.94326806 C-105.44354312 254.91442387 -108.89616768 254.80275987 -112.4921875 252.67578125 C-114.93971017 249.42664414 -114.73902805 246.19796829 -114.73269653 242.23443604 C-114.73440538 241.58990062 -114.73611423 240.9453652 -114.73787487 240.2812984 C-114.74116626 238.12394221 -114.7301721 235.9668978 -114.71923828 233.80957031 C-114.71867409 232.26220202 -114.71899088 230.71483319 -114.72012329 229.16746521 C-114.7206975 224.96737594 -114.70893218 220.76740073 -114.69497538 216.56733799 C-114.68247937 212.1777714 -114.68129841 207.78820224 -114.67892456 203.39862061 C-114.67270647 195.08660105 -114.65629119 186.77463406 -114.63622558 178.46263766 C-114.61387682 168.99961262 -114.60287572 159.53658507 -114.59283471 150.07354021 C-114.57192526 130.60759075 -114.53674288 111.14169022 -114.4921875 91.67578125 C-116.4721875 92.17078125 -116.4721875 92.17078125 -118.4921875 92.67578125 C-118.4921875 93.33578125 -118.4921875 93.99578125 -118.4921875 94.67578125 C-122.64787594 97.91984633 -126.64731255 100.67578125 -131.9921875 100.67578125 C-134.4921875 99.67578125 -134.4921875 99.67578125 -136.4921875 97.67578125 C-136.9921875 94.36328125 -136.9921875 94.36328125 -136.4921875 90.67578125 C-133.51675682 87.56510372 -130.8772762 85.18175302 -126.4921875 84.67578125 C-126.4921875 84.01578125 -126.4921875 83.35578125 -126.4921875 82.67578125 C-124.12738821 80.94159511 -121.76572189 79.32478993 -119.3046875 77.73828125 C-118.29438477 77.0740918 -118.29438477 77.0740918 -117.26367188 76.39648438 C-106.99732209 69.67578125 -106.99732209 69.67578125 -104.4921875 69.67578125 C-104.4921875 69.01578125 -104.4921875 68.35578125 -104.4921875 67.67578125 C-101.4921875 65.67578125 -101.4921875 65.67578125 -98.4921875 65.67578125 C-98.4921875 65.01578125 -98.4921875 64.35578125 -98.4921875 63.67578125 C-96.49830531 62.27791315 -94.50818718 60.99960006 -92.4296875 59.73828125 C-87.20162489 56.47840692 -82.17316363 53.05653055 -77.2421875 49.36328125 C-70.80565759 44.55600332 -64.19211023 40.06246197 -57.48144531 35.6472168 C-56.75924805 35.17195557 -56.03705078 34.69669434 -55.29296875 34.20703125 C-54.62088379 33.76617187 -53.94879883 33.3253125 -53.25634766 32.87109375 C-51.84884667 31.91743684 -50.4938334 30.88646276 -49.16015625 29.83203125 C-47.4921875 28.67578125 -47.4921875 28.67578125 -44.4921875 28.67578125 C-44.4921875 28.01578125 -44.4921875 27.35578125 -44.4921875 26.67578125 C-42.35649421 25.10776506 -40.22146374 23.66293841 -37.9921875 22.23828125 C-36.61645277 21.34096922 -35.24147861 20.44249022 -33.8671875 19.54296875 C-33.14917969 19.0747168 -32.43117188 18.60646484 -31.69140625 18.12402344 C-28.09106658 15.75310704 -24.54098019 13.31042058 -20.9921875 10.86328125 C-20.34701172 10.41992432 -19.70183594 9.97656738 -19.03710938 9.51977539 C-18.1022168 8.87576782 -18.1022168 8.87576782 -17.1484375 8.21875 C-16.54233643 7.80181885 -15.93623535 7.3848877 -15.31176758 6.95532227 C-14.06601775 6.07930256 -12.83451675 5.18276353 -11.6159668 4.26928711 C-7.63909002 1.30002013 -4.97216695 -0.29495906 0 0 Z M-10.6796875 19.05078125 C-11.33388672 19.46328125 -11.98808594 19.87578125 -12.66210938 20.30078125 C-14.31154996 21.36715577 -15.90717193 22.51580948 -17.4921875 23.67578125 C-17.4921875 24.33578125 -17.4921875 24.99578125 -17.4921875 25.67578125 C-19.4721875 26.33578125 -21.4521875 26.99578125 -23.4921875 27.67578125 C-23.4921875 28.33578125 -23.4921875 28.99578125 -23.4921875 29.67578125 C-24.8225 30.04703125 -24.8225 30.04703125 -26.1796875 30.42578125 C-29.67188995 31.7435935 -31.62168734 33.32499326 -34.4921875 35.67578125 C-36.32442794 36.97015156 -38.17034149 38.24531889 -40.02734375 39.50390625 C-41.08501953 40.22191406 -42.14269531 40.93992187 -43.23242188 41.6796875 C-44.33983735 42.42839489 -45.44725924 43.17709278 -46.5546875 43.92578125 C-47.62396484 44.65152344 -48.69324219 45.37726563 -49.79492188 46.125 C-67.04509328 57.81967814 -67.04509328 57.81967814 -75.2890625 63.13671875 C-76.26359375 63.76835937 -77.238125 64.4 -78.2421875 65.05078125 C-79.24765625 65.69789063 -80.253125 66.345 -81.2890625 67.01171875 C-82.01609375 67.56085938 -82.743125 68.11 -83.4921875 68.67578125 C-83.4921875 69.33578125 -83.4921875 69.99578125 -83.4921875 70.67578125 C-84.00470503 70.75676371 -84.51722256 70.83774616 -85.04527092 70.92118263 C-91.1731304 72.81093822 -97.31665147 76.77603411 -101.4921875 81.67578125 C-103.43691544 86.97246976 -103.27734244 91.95695737 -103.08154297 97.49853516 C-103.07758726 99.0763412 -103.0798237 100.65417296 -103.08773804 102.23196411 C-103.09173469 106.48972846 -103.00980332 110.74190417 -102.91170263 114.99837542 C-102.82381896 119.45568545 -102.81593266 123.91314257 -102.79934692 128.3711853 C-102.75593635 136.80108075 -102.64120353 145.22841592 -102.50045407 153.65718687 C-102.34363711 163.25784037 -102.26691361 172.85862017 -102.19671798 182.46023679 C-102.05061622 202.20049551 -101.79402024 221.93724711 -101.4921875 241.67578125 C-80.3721875 241.67578125 -59.2521875 241.67578125 -37.4921875 241.67578125 C-37.41871094 231.76611328 -37.41871094 231.76611328 -37.34375 221.65625 C-37.30837501 217.47719798 -37.27242151 213.29816709 -37.234375 209.11914062 C-37.17400821 202.48237085 -37.11581327 195.84563074 -37.0703125 189.20874023 C-37.0335054 183.85944672 -36.98715794 178.51031401 -36.93412399 173.16115761 C-36.91555569 171.11779913 -36.90045679 169.07440616 -36.88884354 167.03099632 C-36.87202277 164.17438577 -36.8429979 161.31814547 -36.81103516 158.46166992 C-36.80887497 157.61218781 -36.80671478 156.76270569 -36.80448914 155.88748169 C-36.74844022 151.98021211 -36.70807365 149.99961047 -34.4921875 146.67578125 C-31.75952148 146.29483032 -31.75952148 146.29483032 -28.23828125 146.28759766 C-26.92351807 146.27814117 -25.60875488 146.26868469 -24.25415039 146.25894165 C-22.81265971 146.26431116 -21.37117176 146.27046406 -19.9296875 146.27734375 C-18.45759944 146.27532373 -16.98551236 146.2724129 -15.51342773 146.26864624 C-12.42649824 146.26421943 -9.33982896 146.27066511 -6.25292969 146.28466797 C-2.29134917 146.30176041 1.66962168 146.29192108 5.63117981 146.27395058 C8.67147434 146.26312215 11.71162376 146.26655466 14.75192261 146.27433395 C16.2127998 146.27633859 17.67369007 146.27386746 19.134552 146.26689529 C21.17433427 146.25929717 23.21416259 146.27292673 25.25390625 146.28759766 C26.99692017 146.29117783 26.99692017 146.29117783 28.77514648 146.29483032 C29.67692627 146.42054413 30.57870605 146.54625793 31.5078125 146.67578125 C34.11614791 150.58828436 33.81511032 153.91975848 33.82666016 158.46166992 C33.84172859 159.80831978 33.84172859 159.80831978 33.85710144 161.18217468 C33.88801793 164.15269321 33.90499211 167.12312127 33.921875 170.09375 C33.94057984 172.15213301 33.96015273 174.21050829 33.9805603 176.26887512 C34.03195979 181.6890305 34.07154368 187.10921076 34.10870361 192.52947998 C34.15572421 199.03153636 34.21735548 205.53346853 34.27655029 212.03542328 C34.36485778 221.91549268 34.4345541 231.79553714 34.5078125 241.67578125 C55.6278125 241.67578125 76.7478125 241.67578125 98.5078125 241.67578125 C98.71103189 220.93524551 98.87679448 200.19551664 98.97412205 179.45423794 C99.02051557 169.82354002 99.08375642 160.19350489 99.18676758 150.56323242 C99.27651757 142.16870828 99.33454672 133.77466414 99.35460895 125.37967354 C99.36633561 120.93492428 99.39385885 116.49154809 99.45938301 112.0472393 C99.52059246 107.86157162 99.53929468 103.67783872 99.52578163 99.49176598 C99.52825255 97.95783205 99.54609064 96.42383178 99.58066177 94.89028549 C99.95918834 86.54148154 99.95918834 86.54148154 96.53361225 79.23719978 C94.26658982 77.44815518 92.05003232 76.03511329 89.5078125 74.67578125 C88.12638062 73.70125 88.12638062 73.70125 86.71704102 72.70703125 C85.94803467 72.20171875 85.17902832 71.69640625 84.38671875 71.17578125 C83.51337891 70.59828125 82.64003906 70.02078125 81.74023438 69.42578125 C80.85916016 68.84828125 79.97808594 68.27078125 79.0703125 67.67578125 C72.95790296 63.65174088 66.90012524 59.57269818 60.91674805 55.35888672 C57.19515191 52.75863499 53.41683653 50.24643364 49.6328125 47.73828125 C48.06770658 46.6979193 46.50260242 45.65755471 44.9375 44.6171875 C44.18436523 44.11719238 43.43123047 43.61719727 42.65527344 43.10205078 C39.68684641 41.13052387 36.72224851 39.15330402 33.7578125 37.17578125 C32.87609375 36.58796875 31.994375 36.00015625 31.0859375 35.39453125 C29.14593834 34.10119847 27.22136497 32.78468101 25.3046875 31.45703125 C22.77931093 29.49672113 22.77931093 29.49672113 20.5078125 29.67578125 C20.5078125 29.01578125 20.5078125 28.35578125 20.5078125 27.67578125 C18.5278125 27.01578125 16.5478125 26.35578125 14.5078125 25.67578125 C14.5078125 25.01578125 14.5078125 24.35578125 14.5078125 23.67578125 C13.3940625 23.01578125 12.2803125 22.35578125 11.1328125 21.67578125 C10.50632812 21.30453125 9.87984375 20.93328125 9.234375 20.55078125 C7.53308583 19.52509777 7.53308583 19.52509777 5.5078125 19.67578125 C5.5078125 19.01578125 5.5078125 18.35578125 5.5078125 17.67578125 C-1.63255361 13.86758599 -4.13026522 14.76770871 -10.6796875 19.05078125 Z M-25.4921875 157.67578125 C-25.4921875 185.39578125 -25.4921875 213.11578125 -25.4921875 241.67578125 C-9.6521875 241.67578125 6.1878125 241.67578125 22.5078125 241.67578125 C22.5078125 213.95578125 22.5078125 186.23578125 22.5078125 157.67578125 C6.6678125 157.67578125 -9.1721875 157.67578125 -25.4921875 157.67578125 Z " fill="#0FB4FA" transform="translate(251.4921875,122.32421875)"/>
<path d="M0 0 C4.82992067 1.30152068 8.61379642 4.35838521 12.58544922 7.29760742 C17.13253776 10.55748992 21.84539812 13.58446308 26.5078125 16.67578125 C28.55529566 18.04336075 30.60217742 19.41184112 32.6484375 20.78125 C33.65648437 21.45478516 34.66453125 22.12832031 35.703125 22.82226562 C37.75579923 24.1937775 39.80787367 25.56618744 41.859375 26.93945312 C46.27669076 29.88906178 50.68812487 32.80442199 55.2421875 35.5390625 C56.31984375 36.24417969 57.3975 36.94929688 58.5078125 37.67578125 C58.5078125 38.33578125 58.5078125 38.99578125 58.5078125 39.67578125 C59.22171143 39.93464111 59.93561035 40.19350098 60.67114258 40.46020508 C63.67922148 41.74923381 66.17931212 43.30043964 68.89453125 45.125 C70.4269043 46.15077148 70.4269043 46.15077148 71.99023438 47.19726562 C73.04791016 47.91205078 74.10558594 48.62683594 75.1953125 49.36328125 C76.23365234 50.05873047 77.27199219 50.75417969 78.34179688 51.47070312 C84.13054079 55.35769042 89.87063001 59.30500399 95.55786133 63.33911133 C97.46278302 64.71028406 97.46278302 64.71028406 99.5078125 65.67578125 C99.5078125 66.33578125 99.5078125 66.99578125 99.5078125 67.67578125 C100.15105469 67.89234375 100.79429687 68.10890625 101.45703125 68.33203125 C105.69156149 70.19717645 109.4450682 72.66158252 113.3203125 75.17578125 C114.50270508 75.92408203 114.50270508 75.92408203 115.70898438 76.6875 C116.45341797 77.16832031 117.19785156 77.64914063 117.96484375 78.14453125 C118.9854187 78.80098633 118.9854187 78.80098633 120.02661133 79.47070312 C120.51540771 79.86837891 121.0042041 80.26605469 121.5078125 80.67578125 C121.5078125 81.33578125 121.5078125 81.99578125 121.5078125 82.67578125 C122.52875 83.01609375 122.52875 83.01609375 123.5703125 83.36328125 C127.29404271 85.0270756 130.75186794 86.59651358 133.5078125 89.67578125 C134.41593928 92.77552066 134.09528566 94.3645689 133.5078125 97.67578125 C131.8828125 99.73828125 131.8828125 99.73828125 129.5078125 100.67578125 C126.49048125 100.43439475 124.21498208 100.02936604 121.5078125 98.67578125 C121.5078125 98.01578125 121.5078125 97.35578125 121.5078125 96.67578125 C120.8890625 96.53140625 120.2703125 96.38703125 119.6328125 96.23828125 C117.5078125 95.67578125 117.5078125 95.67578125 115.5078125 94.67578125 C115.5078125 94.01578125 115.5078125 93.35578125 115.5078125 92.67578125 C114.5178125 92.34578125 113.5278125 92.01578125 112.5078125 91.67578125 C112.0128125 169.39078125 112.0128125 169.39078125 111.5078125 248.67578125 C111.1778125 248.67578125 110.8478125 248.67578125 110.5078125 248.67578125 C110.50358056 247.91709307 110.49934862 247.15840488 110.49498844 246.37672615 C110.39153805 227.88856358 110.28287925 209.40043827 110.16847324 190.91234016 C110.11327134 181.97152088 110.0598113 173.03069761 110.01049805 164.08984375 C109.96749598 156.29406433 109.92117861 148.49831274 109.87093395 140.70257652 C109.84446148 136.57748491 109.81961271 132.45239837 109.79873848 128.32727432 C109.77900711 124.43837402 109.75481673 120.54952606 109.72732162 116.66067314 C109.71803777 115.23938266 109.7103323 113.81808078 109.70439339 112.39677238 C109.67153889 104.7639912 109.46947492 97.25305173 108.5078125 89.67578125 C107.8478125 89.67578125 107.1878125 89.67578125 106.5078125 89.67578125 C105.8478125 90.33578125 105.1878125 90.99578125 104.5078125 91.67578125 C103.5178125 91.67578125 102.5278125 91.67578125 101.5078125 91.67578125 C101.5078125 141.50578125 101.5078125 191.33578125 101.5078125 242.67578125 C96.79550879 244.56070274 94.74805259 244.90087971 89.86914062 244.79516602 C89.22295273 244.78409821 88.57676483 244.7730304 87.91099548 244.7616272 C85.78671115 244.72302906 83.66303746 244.66996868 81.5390625 244.6171875 C80.05605053 244.5884481 78.57301724 244.56079024 77.08996582 244.53416443 C73.19218666 244.46200416 69.2947495 244.3783251 65.39727783 244.29125977 C59.15964203 244.15296076 52.92176392 244.0282327 46.68370056 243.91096306 C44.50940786 243.86783894 42.33537156 243.81740366 40.16125488 243.76625061 C38.82300321 243.7391744 37.48474658 243.71234164 36.14648438 243.68579102 C34.98242065 243.6597731 33.81835693 243.63375519 32.61901855 243.60694885 C29.77234329 243.66992876 27.26935838 244.01273782 24.5078125 244.67578125 C24.5078125 244.01578125 24.5078125 243.35578125 24.5078125 242.67578125 C8.0078125 242.67578125 -8.4921875 242.67578125 -25.4921875 242.67578125 C-25.4921875 242.34578125 -25.4921875 242.01578125 -25.4921875 241.67578125 C-9.6521875 241.67578125 6.1878125 241.67578125 22.5078125 241.67578125 C22.5078125 213.95578125 22.5078125 186.23578125 22.5078125 157.67578125 C6.6678125 157.67578125 -9.1721875 157.67578125 -25.4921875 157.67578125 C-25.4921875 157.34578125 -25.4921875 157.01578125 -25.4921875 156.67578125 C-18.53215303 156.65051287 -11.5721303 156.63294903 -4.61206055 156.62084961 C-2.24226438 156.61580784 0.12752865 156.6089746 2.49731445 156.6003418 C5.89535289 156.58826935 9.29335035 156.58255154 12.69140625 156.578125 C13.75806015 156.57296371 14.82471405 156.56780243 15.9236908 156.56248474 C17.39510277 156.56237144 17.39510277 156.56237144 18.89624023 156.56225586 C19.76449936 156.56003525 20.63275848 156.55781464 21.52732849 156.55552673 C23.5078125 156.67578125 23.5078125 156.67578125 24.5078125 157.67578125 C24.63281402 160.20027195 24.69384788 162.69877742 24.71313477 165.22485352 C24.72303436 166.01503876 24.73293396 166.805224 24.74313354 167.61935425 C24.77484098 170.24360103 24.79954229 172.86786594 24.82421875 175.4921875 C24.84478031 177.30680322 24.86577656 179.12141405 24.88719177 180.9360199 C24.94249491 185.72162945 24.9918677 190.50728281 25.04003906 195.29296875 C25.09019407 200.17256589 25.14591138 205.0520991 25.20117188 209.93164062 C25.30885418 219.51296627 25.41027663 229.09434733 25.5078125 238.67578125 C27.1578125 238.34578125 28.8078125 238.01578125 30.5078125 237.67578125 C30.53095823 226.1234387 30.54873901 214.57110165 30.55962467 203.01874065 C30.5648486 197.65481944 30.5719374 192.29091406 30.58325195 186.92700195 C30.59409818 181.75287024 30.60009304 176.57875379 30.60268974 171.40461159 C30.60454085 169.42820813 30.60815547 167.45180553 30.61354256 165.47540855 C30.62077596 162.71234695 30.62180246 159.94934881 30.62133789 157.1862793 C30.62493317 156.3648494 30.62852844 155.54341949 30.63223267 154.69709778 C30.62626515 151.4283395 30.54901516 148.79938922 29.5078125 145.67578125 C33.3828125 147.42578125 33.3828125 147.42578125 34.5078125 149.67578125 C34.60119038 152.57460689 34.63355523 155.44924699 34.62133789 158.34814453 C34.62148392 159.24576508 34.62162994 160.14338562 34.6217804 161.06820679 C34.62108203 164.04419343 34.61329317 167.020118 34.60546875 169.99609375 C34.6036043 172.05589768 34.60218052 174.11570206 34.60118103 176.17550659 C34.59735798 181.60395527 34.58752949 187.0323773 34.57647705 192.46081543 C34.56446259 198.97027536 34.55985968 205.47974419 34.55402374 211.98921204 C34.54431764 221.88475365 34.52515958 231.78023678 34.5078125 241.67578125 C55.6278125 241.67578125 76.7478125 241.67578125 98.5078125 241.67578125 C98.62560783 220.95214191 98.69774165 200.22998525 98.68659496 179.50605011 C98.68288182 169.88323906 98.69965434 160.26128289 98.76489258 150.63867188 C98.82171216 142.25010451 98.83985113 133.86249074 98.8118189 125.47376204 C98.79832227 121.03277767 98.80400592 116.59370956 98.85603905 112.15296936 C98.90444914 107.96921834 98.90097308 103.78865733 98.85839844 99.60487366 C98.85182719 98.07304101 98.86390908 96.54099207 98.89644814 95.00949097 C99.1712225 86.37663376 99.1712225 86.37663376 95.13321877 79.04882812 C92.3421299 76.99203257 89.55944646 75.31352168 86.5078125 73.67578125 C84.94363205 72.63849315 83.38798565 71.58801133 81.84765625 70.515625 C80.38159831 69.54607202 78.91414508 68.5786256 77.4453125 67.61328125 C68.06435147 61.40563296 68.06435147 61.40563296 63.5078125 58.17578125 C56.65901165 53.32948446 49.63593332 48.73735888 42.64648438 44.09765625 C40.74866402 42.83590902 38.85378376 41.56997296 36.9609375 40.30078125 C32.60428867 37.38160539 28.25298084 34.50258104 23.7578125 31.80078125 C22.6853125 31.09953125 21.6128125 30.39828125 20.5078125 29.67578125 C20.5078125 29.01578125 20.5078125 28.35578125 20.5078125 27.67578125 C18.5278125 27.01578125 16.5478125 26.35578125 14.5078125 25.67578125 C14.5078125 25.01578125 14.5078125 24.35578125 14.5078125 23.67578125 C13.6725 23.52109375 13.6725 23.52109375 12.8203125 23.36328125 C10.0309024 22.53399717 7.8939061 21.33279069 5.5078125 19.67578125 C5.5078125 19.01578125 5.5078125 18.35578125 5.5078125 17.67578125 C4.17742801 17.33086675 2.84324189 17.00061543 1.5078125 16.67578125 C0.76273438 16.41796875 0.01765625 16.16015625 -0.75 15.89453125 C-4.74573507 15.57578315 -6.48876661 17.29441327 -9.6796875 19.61328125 C-15.33095251 23.67578125 -15.33095251 23.67578125 -17.4921875 23.67578125 C-17.4921875 24.33578125 -17.4921875 24.99578125 -17.4921875 25.67578125 C-19.4721875 26.33578125 -21.4521875 26.99578125 -23.4921875 27.67578125 C-23.4921875 28.33578125 -23.4921875 28.99578125 -23.4921875 29.67578125 C-25.26256589 30.82740799 -27.04288931 31.96499445 -28.85351562 33.05224609 C-31.95533095 34.96074645 -34.96777014 36.98873925 -37.9765625 39.0390625 C-38.56232056 39.43737274 -39.14807861 39.83568298 -39.75158691 40.24606323 C-41.58264002 41.49222231 -43.41249543 42.74012486 -45.2421875 43.98828125 C-47.65310593 45.63100222 -50.0646654 47.27277884 -52.4765625 48.9140625 C-53.06535187 49.31497101 -53.65414124 49.71587952 -54.26077271 50.12893677 C-59.0903338 53.41311838 -63.94809931 56.6528822 -68.81884766 59.87573242 C-72.44467671 62.31712398 -75.9924549 64.86044111 -79.53125 67.42578125 C-81.4921875 68.67578125 -81.4921875 68.67578125 -83.4921875 68.67578125 C-83.4921875 69.33578125 -83.4921875 69.99578125 -83.4921875 70.67578125 C-84.4409375 71.19140625 -85.3896875 71.70703125 -86.3671875 72.23828125 C-87.00024874 72.61732322 -87.63330997 72.99636518 -88.28555489 73.38689327 C-90.4921875 74.67578125 -90.4921875 74.67578125 -93.03938103 75.90077305 C-97.31623091 78.27099153 -100.01998965 80.04133851 -101.41446304 84.86810112 C-101.76723469 88.99591593 -101.79655858 93.02063573 -101.71923828 97.15795898 C-101.72628609 98.73535106 -101.7377285 100.31272868 -101.7532196 101.89006042 C-101.78275061 106.15897598 -101.75099873 110.42547454 -101.70805597 114.6941936 C-101.67361294 119.15990003 -101.69577868 123.62532104 -101.71188354 128.09107971 C-101.73378563 136.54146419 -101.7049392 144.99087936 -101.6577605 153.44112974 C-101.60651369 163.06390571 -101.61199085 172.68638949 -101.62218118 182.30926597 C-101.6418693 202.09858752 -101.58300444 221.88663701 -101.4921875 241.67578125 C-80.3721875 241.67578125 -59.2521875 241.67578125 -37.4921875 241.67578125 C-37.4921875 211.31578125 -37.4921875 180.95578125 -37.4921875 149.67578125 C-37.1621875 149.67578125 -36.8321875 149.67578125 -36.4921875 149.67578125 C-36.4921875 180.36578125 -36.4921875 211.05578125 -36.4921875 242.67578125 C-47.5265625 242.69640625 -58.5609375 242.71703125 -69.9296875 242.73828125 C-73.41845459 242.74738525 -76.90722168 242.75648926 -80.50170898 242.76586914 C-83.24723268 242.76878798 -85.99275681 242.77133661 -88.73828125 242.7734375 C-89.4562941 242.77605087 -90.17430695 242.77866425 -90.91407776 242.78135681 C-93.01883269 242.78863696 -95.12350592 242.78968858 -97.22827148 242.78930664 C-98.41629868 242.79152725 -99.60432587 242.79374786 -100.82835388 242.79603577 C-103.4921875 242.67578125 -103.4921875 242.67578125 -104.4921875 241.67578125 C-104.60119408 239.66383578 -104.6390955 237.64802798 -104.65040588 235.63316345 C-104.6601947 234.31918076 -104.66998352 233.00519806 -104.68006897 231.65139771 C-104.68597395 230.18157995 -104.69178434 228.71176182 -104.69750977 227.24194336 C-104.70708277 225.70486687 -104.71709249 224.16779305 -104.72750854 222.63072205 C-104.75462639 218.44498133 -104.77559857 214.25922926 -104.79551053 210.0734489 C-104.81732781 205.70385701 -104.84473726 201.3343004 -104.87156677 196.96473694 C-104.92155143 188.68453635 -104.96646876 180.40431625 -105.00958914 172.12407738 C-105.05891228 162.69978461 -105.11384861 153.27552723 -105.16926873 143.85126865 C-105.28317736 124.45947234 -105.38999696 105.06764267 -105.4921875 85.67578125 C-106.1521875 85.34578125 -106.8121875 85.01578125 -107.4921875 84.67578125 C-107.9871875 83.68578125 -107.9871875 83.68578125 -108.4921875 82.67578125 C-109.4821875 83.66578125 -109.4821875 83.66578125 -110.4921875 84.67578125 C-110.14773869 87.1484489 -110.14773869 87.1484489 -109.4921875 89.67578125 C-109.4921875 90.66578125 -109.4921875 91.65578125 -109.4921875 92.67578125 C-110.4821875 93.17078125 -110.4821875 93.17078125 -111.4921875 93.67578125 C-111.56221154 113.83343563 -111.61514323 133.9910654 -111.64762402 154.14881611 C-111.66310503 163.50802484 -111.68421806 172.86715808 -111.71850586 182.22631836 C-111.74837051 190.38201531 -111.76775352 198.5376576 -111.77445298 206.69340771 C-111.77837024 211.01341497 -111.78760179 215.33326582 -111.80937767 219.65322304 C-111.82969655 223.71695194 -111.83603068 227.78045959 -111.83151054 231.84423447 C-111.83233781 233.33782719 -111.8383309 234.83142709 -111.84980392 236.32497597 C-111.86467434 238.36013602 -111.85936629 240.39541402 -111.85295105 242.43061829 C-111.85709912 244.14100517 -111.85709912 244.14100517 -111.86133099 245.88594532 C-111.66721735 248.61221848 -111.66721735 248.61221848 -110.49268532 250.54313564 C-107.22406768 252.39376771 -103.77961346 252.0795469 -100.12345886 252.04327393 C-99.25941588 252.04654277 -98.3953729 252.04981161 -97.5051468 252.0531795 C-94.59855094 252.06048501 -91.69245406 252.04627924 -88.78588867 252.03222656 C-86.70653701 252.0330171 -84.62718549 252.03511333 -82.5478363 252.03842163 C-76.8906966 252.04356679 -71.23373804 252.02999673 -65.57662749 252.01289463 C-59.66171056 251.99788236 -53.7467962 251.99903317 -47.8318634 251.99822998 C-37.89430644 251.99453409 -27.95681841 251.97955279 -18.01928711 251.95703125 C-5.26406326 251.92818283 7.49110498 251.91781057 20.24635792 251.91334915 C31.20720721 251.90936729 42.16804441 251.89686342 53.12888503 251.88300228 C56.65378717 251.87890457 60.17868889 251.87597821 63.7035923 251.87320709 C69.24472511 251.86830875 74.78582434 251.85809623 80.32694054 251.84376907 C82.36107963 251.83925116 84.39522323 251.83640861 86.42936707 251.83536148 C89.20565594 251.8336118 91.98186127 251.82571828 94.75813293 251.81622314 C95.96616938 251.81752287 95.96616938 251.81752287 97.1986106 251.81884885 C101.41143319 251.79723172 105.3574749 251.50685267 109.5078125 250.67578125 C109.5078125 251.33578125 109.5078125 251.99578125 109.5078125 252.67578125 C105.02297128 254.92592087 100.79933939 254.95688243 95.8918457 254.92974854 C95.02538831 254.93286852 94.15893091 254.9359885 93.26621723 254.93920302 C90.36360682 254.94717869 87.46120571 254.94086102 84.55859375 254.93457031 C82.47732419 254.93728036 80.3960556 254.94084137 78.31478882 254.94519043 C72.66201301 254.954315 67.00931014 254.95076987 61.35653305 254.94443226 C55.44382275 254.93937264 49.53111874 254.94406361 43.6184082 254.94720459 C33.68862791 254.95084434 23.75887735 254.94604488 13.82910156 254.93652344 C2.34506376 254.92563889 -9.13890303 254.92916446 -20.62293911 254.94017625 C-30.478669 254.94924885 -40.33437749 254.95053453 -50.19011021 254.94529891 C-56.07836127 254.94217907 -61.96657895 254.94177028 -67.85482788 254.94837189 C-73.39025577 254.9541443 -78.925592 254.95015029 -84.46100998 254.93858337 C-86.49395979 254.93593624 -88.52691729 254.93670278 -90.55986404 254.9411087 C-93.33208749 254.94656341 -96.10401611 254.93973082 -98.8762207 254.92974854 C-100.08658005 254.9364407 -100.08658005 254.9364407 -101.32139111 254.94326806 C-105.44354312 254.91442387 -108.89616768 254.80275987 -112.4921875 252.67578125 C-114.93971017 249.42664414 -114.73902805 246.19796829 -114.73269653 242.23443604 C-114.73440538 241.58990062 -114.73611423 240.9453652 -114.73787487 240.2812984 C-114.74116626 238.12394221 -114.7301721 235.9668978 -114.71923828 233.80957031 C-114.71867409 232.26220202 -114.71899088 230.71483319 -114.72012329 229.16746521 C-114.7206975 224.96737594 -114.70893218 220.76740073 -114.69497538 216.56733799 C-114.68247937 212.1777714 -114.68129841 207.78820224 -114.67892456 203.39862061 C-114.67270647 195.08660105 -114.65629119 186.77463406 -114.63622558 178.46263766 C-114.61387682 168.99961262 -114.60287572 159.53658507 -114.59283471 150.07354021 C-114.57192526 130.60759075 -114.53674288 111.14169022 -114.4921875 91.67578125 C-116.4721875 92.17078125 -116.4721875 92.17078125 -118.4921875 92.67578125 C-118.4921875 93.33578125 -118.4921875 93.99578125 -118.4921875 94.67578125 C-122.64787594 97.91984633 -126.64731255 100.67578125 -131.9921875 100.67578125 C-134.4921875 99.67578125 -134.4921875 99.67578125 -136.4921875 97.67578125 C-136.9921875 94.36328125 -136.9921875 94.36328125 -136.4921875 90.67578125 C-133.51675682 87.56510372 -130.8772762 85.18175302 -126.4921875 84.67578125 C-126.4921875 84.01578125 -126.4921875 83.35578125 -126.4921875 82.67578125 C-124.12738821 80.94159511 -121.76572189 79.32478993 -119.3046875 77.73828125 C-118.29438477 77.0740918 -118.29438477 77.0740918 -117.26367188 76.39648438 C-106.99732209 69.67578125 -106.99732209 69.67578125 -104.4921875 69.67578125 C-104.4921875 69.01578125 -104.4921875 68.35578125 -104.4921875 67.67578125 C-101.4921875 65.67578125 -101.4921875 65.67578125 -98.4921875 65.67578125 C-98.4921875 65.01578125 -98.4921875 64.35578125 -98.4921875 63.67578125 C-96.49830531 62.27791315 -94.50818718 60.99960006 -92.4296875 59.73828125 C-87.20162489 56.47840692 -82.17316363 53.05653055 -77.2421875 49.36328125 C-70.80565759 44.55600332 -64.19211023 40.06246197 -57.48144531 35.6472168 C-56.75924805 35.17195557 -56.03705078 34.69669434 -55.29296875 34.20703125 C-54.62088379 33.76617187 -53.94879883 33.3253125 -53.25634766 32.87109375 C-51.84884667 31.91743684 -50.4938334 30.88646276 -49.16015625 29.83203125 C-47.4921875 28.67578125 -47.4921875 28.67578125 -44.4921875 28.67578125 C-44.4921875 28.01578125 -44.4921875 27.35578125 -44.4921875 26.67578125 C-42.35649421 25.10776506 -40.22146374 23.66293841 -37.9921875 22.23828125 C-36.61645277 21.34096922 -35.24147861 20.44249022 -33.8671875 19.54296875 C-33.14917969 19.0747168 -32.43117188 18.60646484 -31.69140625 18.12402344 C-28.09106658 15.75310704 -24.54098019 13.31042058 -20.9921875 10.86328125 C-20.34701172 10.41992432 -19.70183594 9.97656738 -19.03710938 9.51977539 C-18.1022168 8.87576782 -18.1022168 8.87576782 -17.1484375 8.21875 C-16.54233643 7.80181885 -15.93623535 7.3848877 -15.31176758 6.95532227 C-14.06601775 6.07930256 -12.83451675 5.18276353 -11.6159668 4.26928711 C-7.63909002 1.30002013 -4.97216695 -0.29495906 0 0 Z " fill="#19B4EC" transform="translate(251.4921875,122.32421875)"/>
<path d="M0 0 C0.99 0.495 0.99 0.495 2 1 C1.195625 1.9075 0.39125 2.815 -0.4375 3.75 C-2.50086069 6.18986488 -2.50086069 6.18986488 -3.5 9.1875 C-4 11 -4 11 -6.5625 12.75 C-7.366875 13.1625 -8.17125 13.575 -9 14 C-9.495 12.515 -9.495 12.515 -10 11 C-10.68707031 11.5053125 -11.37414062 12.010625 -12.08203125 12.53125 C-12.98308594 13.1809375 -13.88414062 13.830625 -14.8125 14.5 C-15.70582031 15.1496875 -16.59914063 15.799375 -17.51953125 16.46875 C-20 18 -20 18 -23 18 C-23.33 20.97 -23.66 23.94 -24 27 C-22.68 27.33 -21.36 27.66 -20 28 C-20 27.34 -20 26.68 -20 26 C-19.34 26 -18.68 26 -18 26 C-18 25.01 -18 24.02 -18 23 C-14.04 22.505 -14.04 22.505 -10 22 C-10 21.34 -10 20.68 -10 20 C-9.34 20 -8.68 20 -8 20 C-8 19.34 -8 18.68 -8 18 C-7.01 18 -6.02 18 -5 18 C-4.67 16.35 -4.34 14.7 -4 13 C-2.68 13.33 -1.36 13.66 0 14 C0 13.34 0 12.68 0 12 C0.99 12 1.98 12 3 12 C3 11.01 3 10.02 3 9 C5.31 9 7.62 9 10 9 C6.73587415 12.55789717 3.0240984 15.13788386 -1 17.75 C-2.34766584 18.63670417 -3.69532197 19.52342311 -5.04296875 20.41015625 C-5.71118652 20.84730957 -6.3794043 21.28446289 -7.06787109 21.73486328 C-9.8244633 23.53984948 -12.56929193 25.36225261 -15.3125 27.1875 C-16.26511719 27.82042969 -17.21773438 28.45335937 -18.19921875 29.10546875 C-21.86303703 31.58378376 -25.4579067 34.15395178 -29.0390625 36.75 C-31 38 -31 38 -33 38 C-33 38.66 -33 39.32 -33 40 C-33.94875 40.515625 -34.8975 41.03125 -35.875 41.5625 C-36.50806124 41.94154197 -37.14112247 42.32058393 -37.79336739 42.71111202 C-40 44 -40 44 -42.54719353 45.2249918 C-46.82404341 47.59521028 -49.52780215 49.36555726 -50.92227554 54.19231987 C-51.27504719 58.32013468 -51.30437108 62.34485448 -51.22705078 66.48217773 C-51.23409859 68.05956981 -51.245541 69.63694743 -51.2610321 71.21427917 C-51.29056311 75.48319473 -51.25881123 79.74969329 -51.21586847 84.01841235 C-51.18142544 88.48411878 -51.20359118 92.94953979 -51.21969604 97.41529846 C-51.24159813 105.86568294 -51.2127517 114.31509811 -51.165573 122.76534849 C-51.11432619 132.38812446 -51.11980335 142.01060824 -51.12999368 151.63348472 C-51.1496818 171.42280627 -51.09081694 191.21085576 -51 211 C-29.88 211 -8.76 211 13 211 C13 180.64 13 150.28 13 119 C13.33 119 13.66 119 14 119 C14 149.69 14 180.38 14 212 C2.965625 212.020625 -8.06875 212.04125 -19.4375 212.0625 C-22.92626709 212.071604 -26.41503418 212.08070801 -30.00952148 212.09008789 C-32.75504518 212.09300673 -35.50056931 212.09555536 -38.24609375 212.09765625 C-38.9641066 212.10026962 -39.68211945 212.102883 -40.42189026 212.10557556 C-42.52664519 212.11285571 -44.63131842 212.11390733 -46.73608398 212.11352539 C-47.92411118 212.115746 -49.11213837 212.11796661 -50.33616638 212.12025452 C-53 212 -53 212 -54 211 C-54.10900658 208.98805453 -54.146908 206.97224673 -54.15821838 204.9573822 C-54.1680072 203.64339951 -54.17779602 202.32941681 -54.18788147 200.97561646 C-54.19378645 199.5057987 -54.19959684 198.03598057 -54.20532227 196.56616211 C-54.21489527 195.02908562 -54.22490499 193.4920118 -54.23532104 191.9549408 C-54.26243889 187.76920008 -54.28341107 183.58344801 -54.30332303 179.39766765 C-54.32514031 175.02807576 -54.35254976 170.65851915 -54.37937927 166.28895569 C-54.42936393 158.0087551 -54.47428126 149.728535 -54.51740164 141.44829613 C-54.56672478 132.02400336 -54.62166111 122.59974598 -54.67708123 113.1754874 C-54.79098986 93.78369109 -54.89780946 74.39186142 -55 55 C-55.66 54.67 -56.32 54.34 -57 54 C-57.33 53.34 -57.66 52.68 -58 52 C-58.66 52.66 -59.32 53.32 -60 54 C-59.65555119 56.47266765 -59.65555119 56.47266765 -59 59 C-59 59.99 -59 60.98 -59 62 C-59.99 62.495 -59.99 62.495 -61 63 C-61.07002404 83.15765438 -61.12295573 103.31528415 -61.15543652 123.47303486 C-61.17091753 132.83224359 -61.19203056 142.19137683 -61.22631836 151.55053711 C-61.25618301 159.70623406 -61.27556602 167.86187635 -61.28226548 176.01762646 C-61.28618274 180.33763372 -61.29541429 184.65748457 -61.31719017 188.97744179 C-61.33750905 193.04117069 -61.34384318 197.10467834 -61.33932304 201.16845322 C-61.34015031 202.66204594 -61.3461434 204.15564584 -61.35761642 205.64919472 C-61.37248684 207.68435477 -61.36717879 209.71963277 -61.36076355 211.75483704 C-61.36491162 213.46522392 -61.36491162 213.46522392 -61.36914349 215.21016407 C-61.17502985 217.93643723 -61.17502985 217.93643723 -60.00049782 219.86735439 C-56.73188018 221.71798646 -53.28742596 221.40376565 -49.63127136 221.36749268 C-48.76722838 221.37076152 -47.9031854 221.37403036 -47.0129593 221.37739825 C-44.10636344 221.38470376 -41.20026656 221.37049799 -38.29370117 221.35644531 C-36.21434951 221.35723585 -34.13499799 221.35933208 -32.0556488 221.36264038 C-26.3985091 221.36778554 -20.74155054 221.35421548 -15.08443999 221.33711338 C-9.16952306 221.32210111 -3.2546087 221.32325192 2.6603241 221.32244873 C12.59788106 221.31875284 22.53536909 221.30377154 32.47290039 221.28125 C45.22812424 221.25240158 57.98329248 221.24202932 70.73854542 221.2375679 C81.69939471 221.23358604 92.66023191 221.22108217 103.62107253 221.20722103 C107.14597467 221.20312332 110.67087639 221.20019696 114.1957798 221.19742584 C119.73691261 221.1925275 125.27801184 221.18231498 130.81912804 221.16798782 C132.85326713 221.16346991 134.88741073 221.16062736 136.92155457 221.15958023 C139.69784344 221.15783055 142.47404877 221.14993703 145.25032043 221.14044189 C146.45835688 221.14174162 146.45835688 221.14174162 147.6907981 221.1430676 C151.90362069 221.12145047 155.8496624 220.83107142 160 220 C160 220.66 160 221.32 160 222 C155.51515878 224.25013962 151.29152689 224.28110118 146.3840332 224.25396729 C145.51757581 224.25708727 144.65111841 224.26020725 143.75840473 224.26342177 C140.85579432 224.27139744 137.95339321 224.26507977 135.05078125 224.25878906 C132.96951169 224.26149911 130.8882431 224.26506012 128.80697632 224.26940918 C123.15420051 224.27853375 117.50149764 224.27498862 111.84872055 224.26865101 C105.93601025 224.26359139 100.02330624 224.26828236 94.1105957 224.27142334 C84.18081541 224.27506309 74.25106485 224.27026363 64.32128906 224.26074219 C52.83725126 224.24985764 41.35328447 224.25338321 29.86924839 224.264395 C20.0135185 224.2734676 10.15781001 224.27475328 0.30207729 224.26951766 C-5.58617377 224.26639782 -11.47439145 224.26598903 -17.36264038 224.27259064 C-22.89806827 224.27836305 -28.4334045 224.27436904 -33.96882248 224.26280212 C-36.00177229 224.26015499 -38.03472979 224.26092153 -40.06767654 224.26532745 C-42.83989999 224.27078216 -45.61182861 224.26394957 -48.3840332 224.25396729 C-49.59439255 224.26065945 -49.59439255 224.26065945 -50.82920361 224.26748681 C-54.95135562 224.23864262 -58.40398018 224.12697862 -62 222 C-64.44752267 218.75086289 -64.24684055 215.52218704 -64.24050903 211.55865479 C-64.24221788 210.91411937 -64.24392673 210.26958395 -64.24568737 209.60551715 C-64.24897876 207.44816096 -64.2379846 205.29111655 -64.22705078 203.13378906 C-64.22648659 201.58642077 -64.22680338 200.03905194 -64.22793579 198.49168396 C-64.22851 194.29159469 -64.21674468 190.09161948 -64.20278788 185.89155674 C-64.19029187 181.50199015 -64.18911091 177.11242099 -64.18673706 172.72283936 C-64.18051897 164.4108198 -64.16410369 156.09885281 -64.14403808 147.78685641 C-64.12168932 138.32383137 -64.11068822 128.86080382 -64.10064721 119.39775896 C-64.07973776 99.9318095 -64.04455538 80.46590897 -64 61 C-65.98 61.495 -65.98 61.495 -68 62 C-68 62.66 -68 63.32 -68 64 C-72.15568844 67.24406508 -76.15512505 70 -81.5 70 C-84 69 -84 69 -86 67 C-86.5 63.6875 -86.5 63.6875 -86 60 C-83.02456932 56.88932247 -80.3850887 54.50597177 -76 54 C-76 53.34 -76 52.68 -76 52 C-73.63520071 50.26581386 -71.27353439 48.64900868 -68.8125 47.0625 C-67.80219727 46.39831055 -67.80219727 46.39831055 -66.77148438 45.72070312 C-56.50513459 39 -56.50513459 39 -54 39 C-54 38.34 -54 37.68 -54 37 C-51 35 -51 35 -48 35 C-48 34.34 -48 33.68 -48 33 C-46.00611781 31.6021319 -44.01599968 30.32381881 -41.9375 29.0625 C-36.70944711 25.80263173 -31.68089425 22.38085212 -26.75 18.6875 C-18.88960011 12.81449797 -10.73683803 7.41130241 -2.52783203 2.04052734 C-1.02303487 1.08517096 -1.02303487 1.08517096 0 0 Z " fill="#1385B0" transform="translate(201,153)"/>
<path d="M0 0 C5.53758304 1.49221474 9.94972263 5.3309143 14.5078125 8.67578125 C16.67998327 10.15843491 18.87453916 11.60284376 21.0703125 13.05078125 C29.5078125 18.67578125 29.5078125 18.67578125 30.4453125 21.61328125 C31.60544069 24.95718015 32.53553529 25.89241492 35.5078125 27.67578125 C34.8478125 27.67578125 34.1878125 27.67578125 33.5078125 27.67578125 C33.1778125 28.33578125 32.8478125 28.99578125 32.5078125 29.67578125 C31.8478125 29.34578125 31.1878125 29.01578125 30.5078125 28.67578125 C30.1778125 29.33578125 29.8478125 29.99578125 29.5078125 30.67578125 C29.5078125 30.01578125 29.5078125 29.35578125 29.5078125 28.67578125 C28.9096875 28.88203125 28.3115625 29.08828125 27.6953125 29.30078125 C25.5078125 29.67578125 25.5078125 29.67578125 22.5078125 27.67578125 C20.46197171 27.01420082 20.46197171 27.01420082 18.3203125 26.55078125 C17.0621875 26.26203125 15.8040625 25.97328125 14.5078125 25.67578125 C14.5078125 25.01578125 14.5078125 24.35578125 14.5078125 23.67578125 C13.9509375 23.57265625 13.3940625 23.46953125 12.8203125 23.36328125 C10.0309024 22.53399717 7.8939061 21.33279069 5.5078125 19.67578125 C5.5078125 19.01578125 5.5078125 18.35578125 5.5078125 17.67578125 C4.17742801 17.33086675 2.84324189 17.00061543 1.5078125 16.67578125 C0.76273437 16.41796875 0.01765625 16.16015625 -0.75 15.89453125 C-4.74573507 15.57578315 -6.48876661 17.29441327 -9.6796875 19.61328125 C-15.33095251 23.67578125 -15.33095251 23.67578125 -17.4921875 23.67578125 C-17.4921875 24.33578125 -17.4921875 24.99578125 -17.4921875 25.67578125 C-19.4721875 26.33578125 -21.4521875 26.99578125 -23.4921875 27.67578125 C-23.4921875 28.33578125 -23.4921875 28.99578125 -23.4921875 29.67578125 C-24.99609375 30.7890625 -24.99609375 30.7890625 -27.0546875 31.98828125 C-29.87403051 33.66102525 -32.47620421 35.40401594 -35.0546875 37.42578125 C-38.40217856 39.86729996 -41.31660804 40.51203304 -45.4921875 40.67578125 C-46.1521875 40.34578125 -46.8121875 40.01578125 -47.4921875 39.67578125 C-47.4921875 40.66578125 -47.4921875 41.65578125 -47.4921875 42.67578125 C-48.4821875 42.67578125 -49.4721875 42.67578125 -50.4921875 42.67578125 C-50.4921875 43.33578125 -50.4921875 43.99578125 -50.4921875 44.67578125 C-51.8121875 44.67578125 -53.1321875 44.67578125 -54.4921875 44.67578125 C-54.8221875 45.99578125 -55.1521875 47.31578125 -55.4921875 48.67578125 C-56.4821875 48.67578125 -57.4721875 48.67578125 -58.4921875 48.67578125 C-58.4921875 49.33578125 -58.4921875 49.99578125 -58.4921875 50.67578125 C-59.1521875 50.67578125 -59.8121875 50.67578125 -60.4921875 50.67578125 C-60.4921875 51.33578125 -60.4921875 51.99578125 -60.4921875 52.67578125 C-63.1321875 53.00578125 -65.7721875 53.33578125 -68.4921875 53.67578125 C-68.4921875 54.66578125 -68.4921875 55.65578125 -68.4921875 56.67578125 C-69.1521875 56.67578125 -69.8121875 56.67578125 -70.4921875 56.67578125 C-70.4921875 57.33578125 -70.4921875 57.99578125 -70.4921875 58.67578125 C-72.1421875 58.34578125 -73.7921875 58.01578125 -75.4921875 57.67578125 C-74.6587948 49.71603058 -74.6587948 49.71603058 -71.94140625 47.29296875 C-70.17124961 46.33018548 -68.33093481 45.50004728 -66.4921875 44.67578125 C-65.7290625 44.09828125 -64.9659375 43.52078125 -64.1796875 42.92578125 C-62.4921875 41.67578125 -62.4921875 41.67578125 -60.4921875 41.67578125 C-59.8321875 42.33578125 -59.1721875 42.99578125 -58.4921875 43.67578125 C-56.4490163 42.49915878 -56.4490163 42.49915878 -54.4921875 40.67578125 C-54.15064813 39.01077682 -53.81769252 37.34399448 -53.4921875 35.67578125 C-51.5546875 33.55078125 -51.5546875 33.55078125 -49.4921875 31.67578125 C-48.8321875 30.68578125 -48.1721875 29.69578125 -47.4921875 28.67578125 C-46.5021875 28.67578125 -45.5121875 28.67578125 -44.4921875 28.67578125 C-44.4921875 28.01578125 -44.4921875 27.35578125 -44.4921875 26.67578125 C-42.35649421 25.10776506 -40.22146374 23.66293841 -37.9921875 22.23828125 C-36.61645277 21.34096922 -35.24147861 20.44249022 -33.8671875 19.54296875 C-33.14917969 19.0747168 -32.43117187 18.60646484 -31.69140625 18.12402344 C-28.09106658 15.75310704 -24.54098019 13.31042058 -20.9921875 10.86328125 C-20.34701172 10.41992432 -19.70183594 9.97656738 -19.03710938 9.51977539 C-18.1022168 8.87576782 -18.1022168 8.87576782 -17.1484375 8.21875 C-16.54233643 7.80181885 -15.93623535 7.3848877 -15.31176758 6.95532227 C-14.06601775 6.07930256 -12.83451675 5.18276353 -11.6159668 4.26928711 C-7.63909002 1.30002013 -4.97216695 -0.29495906 0 0 Z " fill="#07B9DA" transform="translate(251.4921875,122.32421875)"/>
<path d="M0 0 C1.32 0.66 2.64 1.32 4 2 C4 55.79 4 109.58 4 165 C0.61312415 166.12895862 -1.84346523 166.07609757 -5.41162109 166.00585938 C-6.05751694 165.99464554 -6.70341278 165.9834317 -7.36888123 165.97187805 C-8.7701276 165.94689123 -10.17133258 165.91949332 -11.57249069 165.88996887 C-13.79196694 165.84336089 -16.01147554 165.80331938 -18.23110962 165.76501465 C-23.74518143 165.66850986 -29.25902455 165.56083318 -34.77288818 165.45318604 C-39.43059381 165.36263772 -44.08834004 165.27649011 -48.74623489 165.19624329 C-50.92935226 165.15682037 -53.11227277 165.11093197 -55.29525757 165.06481934 C-56.64002932 165.04093801 -57.98480654 165.01736232 -59.32958984 164.99414062 C-60.49968597 164.97113892 -61.6697821 164.94813721 -62.87533569 164.92443848 C-65.72479753 164.99334498 -68.23540729 165.33690924 -71 166 C-71 165.34 -71 164.68 -71 164 C-87.5 164 -104 164 -121 164 C-121 163.67 -121 163.34 -121 163 C-105.16 163 -89.32 163 -73 163 C-73 135.28 -73 107.56 -73 79 C-88.84 79 -104.68 79 -121 79 C-121 78.67 -121 78.34 -121 78 C-114.03996553 77.97473162 -107.0799428 77.95716778 -100.11987305 77.94506836 C-97.75007688 77.94002659 -95.38028385 77.93319335 -93.01049805 77.92456055 C-89.61245961 77.9124881 -86.21446215 77.90677029 -82.81640625 77.90234375 C-81.74975235 77.89718246 -80.68309845 77.89202118 -79.5841217 77.88670349 C-78.11270973 77.88659019 -78.11270973 77.88659019 -76.61157227 77.88647461 C-75.74331314 77.884254 -74.87505402 77.88203339 -73.98048401 77.87974548 C-72 78 -72 78 -71 79 C-70.87499848 81.5244907 -70.81396462 84.02299617 -70.79467773 86.54907227 C-70.78477814 87.33925751 -70.77487854 88.12944275 -70.76467896 88.943573 C-70.73297152 91.56781978 -70.70827021 94.19208469 -70.68359375 96.81640625 C-70.66303219 98.63102197 -70.64203594 100.4456328 -70.62062073 102.26023865 C-70.56531759 107.0458482 -70.5159448 111.83150156 -70.46777344 116.6171875 C-70.41761843 121.49678464 -70.36190112 126.37631785 -70.30664062 131.25585938 C-70.19895832 140.83718502 -70.09753587 150.41856608 -70 160 C-68.35 159.67 -66.7 159.34 -65 159 C-64.97685427 147.44765745 -64.95907349 135.8953204 -64.94818783 124.3429594 C-64.9429639 118.97903819 -64.9358751 113.61513281 -64.92456055 108.2512207 C-64.91371432 103.07708899 -64.90771946 97.90297254 -64.90512276 92.72883034 C-64.90327165 90.75242688 -64.89965703 88.77602428 -64.89426994 86.7996273 C-64.88703654 84.0365657 -64.88601004 81.27356756 -64.88647461 78.51049805 C-64.8810817 77.2783532 -64.8810817 77.2783532 -64.87557983 76.02131653 C-64.88154735 72.75255825 -64.95879734 70.12360797 -66 67 C-62.125 68.75 -62.125 68.75 -61 71 C-60.90662212 73.89882564 -60.87425727 76.77346574 -60.88647461 79.67236328 C-60.88632858 80.56998383 -60.88618256 81.46760437 -60.8860321 82.39242554 C-60.88673047 85.36841218 -60.89451933 88.34433675 -60.90234375 91.3203125 C-60.9042082 93.38011643 -60.90563198 95.43992081 -60.90663147 97.49972534 C-60.91045452 102.92817402 -60.92028301 108.35659605 -60.93133545 113.78503418 C-60.94334991 120.29449411 -60.94795282 126.80396294 -60.95378876 133.31343079 C-60.96349486 143.2089724 -60.98265292 153.10445553 -61 163 C-39.88 163 -18.76 163 3 163 C2.91463058 142.19033622 2.82108126 121.3807623 2.71247292 100.571208 C2.66231066 90.90938596 2.61586821 81.24757256 2.578125 71.58569336 C2.54522592 63.16626185 2.50540634 54.74689667 2.45720994 46.32753831 C2.43192417 41.8678743 2.41014907 37.40825441 2.39665604 32.94853783 C2.38385448 28.75346513 2.36182086 24.5585436 2.33261681 20.363554 C2.32352607 18.82161337 2.31784732 17.27964839 2.31578636 15.73768234 C2.31247431 13.63660938 2.29702629 11.53596779 2.2784729 9.4349823 C2.27294214 8.25785266 2.26741138 7.08072302 2.26171303 5.86792278 C2.21163057 2.80092324 2.21163057 2.80092324 0 0 Z " fill="#10668E" transform="translate(347,201)"/>
<path d="M0 0 C0.48491472 0.32490071 0.96982944 0.64980143 1.46943855 0.98454762 C5.10054447 2.44162156 8.63623876 2.27172948 12.48898315 2.24723816 C13.35388056 2.24965257 14.21877796 2.25206699 15.10988438 2.25455457 C18.01327405 2.26019842 20.91644437 2.25152315 23.81982422 2.24291992 C25.89932312 2.24399265 27.97882172 2.24593119 30.05831909 2.24867249 C35.7112268 2.25352605 41.36405576 2.24585821 47.01695395 2.23571944 C52.92919928 2.22694451 58.84144211 2.2286963 64.75369263 2.2290802 C74.68525512 2.22814313 84.6167871 2.21945426 94.54833984 2.20581055 C106.03175242 2.19009324 117.51513155 2.18481214 128.99855411 2.1855461 C140.04034253 2.18615654 151.08212004 2.18104903 162.12390518 2.17275429 C166.82471934 2.16922326 171.52552964 2.16739129 176.22634506 2.16686058 C181.76338296 2.16585578 187.30039279 2.15974781 192.83742142 2.14969444 C194.86995014 2.14677428 196.90248208 2.1455431 198.93501282 2.14612198 C201.70905488 2.14661305 204.48301844 2.14095309 207.25704956 2.13371277 C208.46406283 2.13603567 208.46406283 2.13603567 209.6954602 2.1384055 C213.90747067 2.12024756 217.85040405 1.83149177 222 1 C222 1.66 222 2.32 222 3 C217.51515878 5.25013962 213.29152689 5.28110118 208.3840332 5.25396729 C207.51757581 5.25708727 206.65111841 5.26020725 205.75840473 5.26342177 C202.85579432 5.27139744 199.95339321 5.26507977 197.05078125 5.25878906 C194.96951169 5.26149911 192.8882431 5.26506012 190.80697632 5.26940918 C185.15420051 5.27853375 179.50149764 5.27498862 173.84872055 5.26865101 C167.93601025 5.26359139 162.02330624 5.26828236 156.1105957 5.27142334 C146.18081541 5.27506309 136.25106485 5.27026363 126.32128906 5.26074219 C114.83725126 5.24985764 103.35328447 5.25338321 91.86924839 5.264395 C82.0135185 5.2734676 72.15781001 5.27475328 62.30207729 5.26951766 C56.41382623 5.26639782 50.52560855 5.26598903 44.63735962 5.27259064 C39.10193173 5.27836305 33.5665955 5.27436904 28.03117752 5.26280212 C25.99822771 5.26015499 23.96527021 5.26092153 21.93232346 5.26532745 C19.16010001 5.27078216 16.38817139 5.26394957 13.6159668 5.25396729 C12.40560745 5.26065945 12.40560745 5.26065945 11.17079639 5.26748681 C7.00872505 5.23836329 3.74262431 4.87775371 0 3 C0 2.01 0 1.02 0 0 Z " fill="#114D6F" transform="translate(139,372)"/>
<path d="M0 0 C2.625 0.9375 2.625 0.9375 5 2 C5 2.66 5 3.32 5 4 C5.680625 4.226875 6.36125 4.45375 7.0625 4.6875 C10.78623021 6.35129435 14.24405544 7.92073233 17 11 C17.90812678 14.09973941 17.58747316 15.68878765 17 19 C15.375 21.0625 15.375 21.0625 13 22 C9.98266875 21.7586135 7.70716958 21.35358479 5 20 C5 19.34 5 18.68 5 18 C4.071875 17.7834375 4.071875 17.7834375 3.125 17.5625 C1 17 1 17 -1 16 C-1 15.34 -1 14.68 -1 14 C-1.99 13.67 -2.98 13.34 -4 13 C-4.33 64.81 -4.66 116.62 -5 170 C-5.33 170 -5.66 170 -6 170 C-6.00423194 169.24223361 -6.00846388 168.48446722 -6.01282406 167.70373821 C-6.1163068 149.23191545 -6.22497021 130.76012974 -6.33933926 112.28837109 C-6.39452432 103.3554275 -6.4479814 94.42247993 -6.49731445 85.48950195 C-6.54033736 77.69993902 -6.58665962 69.91040374 -6.63687855 62.12088376 C-6.66333445 57.99967265 -6.68818245 53.87846651 -6.70907402 49.75722313 C-6.72882759 45.87078227 -6.75302372 41.98439333 -6.78049088 38.09799957 C-6.78976324 36.67874163 -6.79747254 35.25947238 -6.80341911 33.84019661 C-6.83794962 25.83874157 -7.10569216 17.9545124 -8 10 C-5.36 10.33 -2.72 10.66 0 11 C0 10.34 0 9.68 0 9 C-0.66 9 -1.32 9 -2 9 C-1.67 7.35 -1.34 5.7 -1 4 C-0.01 4.33 0.98 4.66 2 5 C2 4.34 2 3.68 2 3 C0.68 2.34 -0.64 1.68 -2 1 C-1.34 0.67 -0.68 0.34 0 0 Z " fill="#1291B9" transform="translate(368,201)"/>
<path d="M0 0 C6.53356472 3.36416611 12.60584052 7.31893321 18.68188477 11.43310547 C19.29733154 11.84963379 19.91277832 12.26616211 20.546875 12.6953125 C21.13404297 13.09395508 21.72121094 13.49259766 22.32617188 13.90332031 C23.83067518 14.88905964 25.38966387 15.79041728 26.953125 16.6796875 C27.62859375 17.11539063 28.3040625 17.55109375 29 18 C29 18.66 29 19.32 29 20 C29.68449219 20.23460937 30.36898437 20.46921875 31.07421875 20.7109375 C34.62808469 22.27672623 37.66672766 24.38052475 40.8125 26.625 C41.40998047 27.04523438 42.00746094 27.46546875 42.62304688 27.8984375 C44.08520565 28.92779728 45.54304899 29.9632823 47 31 C43.25 32.125 43.25 32.125 41 31 C41 30.34 41 29.68 41 29 C38.69 28.67 36.38 28.34 34 28 C33.505 26.515 33.505 26.515 33 25 C32.01 25 31.02 25 30 25 C27.5625 24.9375 27.5625 24.9375 25 24 C23.33305489 21.7630672 22.23904239 19.52397524 21 17 C20.01 17.33 19.02 17.66 18 18 C17.67 18.99 17.34 19.98 17 21 C17.99 21.33 18.98 21.66 20 22 C20.94921875 23.84765625 20.94921875 23.84765625 21.6875 26.0625 C22.06455078 27.16271484 22.06455078 27.16271484 22.44921875 28.28515625 C22.63097656 28.85105469 22.81273437 29.41695312 23 30 C19.36210749 28.6800567 16.44577388 27.07570775 13.3125 24.8125 C12.44625 24.19375 11.58 23.575 10.6875 22.9375 C9.800625 22.298125 8.91375 21.65875 8 21 C2.46325099 17.04517928 -3.01768449 13.25125843 -9 10 C-9 9.34 -9 8.68 -9 8 C-9.66 7.67 -10.32 7.34 -11 7 C-9.9790625 7.2165625 -9.9790625 7.2165625 -8.9375 7.4375 C-2.42787404 8.89924898 -2.42787404 8.89924898 4 8 C3.34 7.4225 2.68 6.845 2 6.25 C0 4 0 4 0 0 Z " fill="#09B5DD" transform="translate(281,142)"/>
<path d="M0 0 C0.33 0.99 0.66 1.98 1 3 C0.34 3 -0.32 3 -1 3 C-0.67 4.32 -0.34 5.64 0 7 C-0.66 7 -1.32 7 -2 7 C-2 6.34 -2 5.68 -2 5 C-2.66 5 -3.32 5 -4 5 C-4.103125 5.5775 -4.20625 6.155 -4.3125 6.75 C-5.10896465 9.35661158 -6.19065277 10.9735311 -8 13 C-8.66 13 -9.32 13 -10 13 C-10 12.34 -10 11.68 -10 11 C-13.12197478 12.3089572 -13.12197478 12.3089572 -15 15 C-11.21812119 16.83691257 -9.05431692 17.15837626 -5 16 C-4.34 14.02 -3.68 12.04 -3 10 C0.875 11.75 0.875 11.75 2 14 C2.0942503 16.09051504 2.12190226 18.18412597 2.12025452 20.27676392 C2.12110894 20.92775759 2.12196337 21.57875127 2.12284368 22.24947202 C2.12449667 24.44059358 2.11898008 26.63163934 2.11352539 28.82275391 C2.11324345 30.38953144 2.11340138 31.9563091 2.1139679 33.52308655 C2.11425562 37.78524038 2.10836297 42.04736625 2.10139394 46.30951357 C2.0951562 50.76048931 2.09455627 55.21146563 2.09336853 59.66244507 C2.09025646 68.09492648 2.08204473 76.52739498 2.07201904 84.9598707 C2.06085406 94.55828166 2.05534648 104.15669323 2.05032361 113.75510907 C2.03986203 133.50341327 2.02226497 153.25170582 2 173 C1.67 173 1.34 173 1 173 C1 121.19 1 69.38 1 16 C-0.32 16.33 -1.64 16.66 -3 17 C-3 17.66 -3 18.32 -3 19 C-7.15568844 22.24406508 -11.15512505 25 -16.5 25 C-19 24 -19 24 -21 22 C-21.5 18.6875 -21.5 18.6875 -21 15 C-18.02456932 11.88932247 -15.3850887 9.50597177 -11 9 C-11 8.34 -11 7.68 -11 7 C-9.21601386 5.71993203 -7.37146094 4.52339649 -5.5 3.375 C-4.4790625 2.74335938 -3.458125 2.11171875 -2.40625 1.4609375 C-1.6121875 0.97882813 -0.818125 0.49671875 0 0 Z " fill="#1180A2" transform="translate(136,198)"/>
<path d="M0 0 C2.35723489 2.53184488 3 3.47190093 3 7 C2.34 7 1.68 7 1 7 C1 7.66 1 8.32 1 9 C-0.32 9 -1.64 9 -3 9 C-3.103125 9.61875 -3.20625 10.2375 -3.3125 10.875 C-4 13 -4 13 -7 15 C-9.6875 14.625 -9.6875 14.625 -12 14 C-12 14.99 -12 15.98 -12 17 C-12.99 17 -13.98 17 -15 17 C-15 17.66 -15 18.32 -15 19 C-16.32 19 -17.64 19 -19 19 C-19.33 20.32 -19.66 21.64 -20 23 C-20.99 23 -21.98 23 -23 23 C-23 23.66 -23 24.32 -23 25 C-23.66 25 -24.32 25 -25 25 C-25 25.66 -25 26.32 -25 27 C-28.96 27.495 -28.96 27.495 -33 28 C-33 28.99 -33 29.98 -33 31 C-33.66 31 -34.32 31 -35 31 C-35 31.66 -35 32.32 -35 33 C-36.65 32.67 -38.3 32.34 -40 32 C-39.1666073 24.04024933 -39.1666073 24.04024933 -36.44921875 21.6171875 C-34.67906211 20.65440423 -32.83874731 19.82426603 -31 19 C-30.236875 18.4225 -29.47375 17.845 -28.6875 17.25 C-27 16 -27 16 -25 16 C-24.34 16.66 -23.68 17.32 -23 18 C-20.9568288 16.82337753 -20.9568288 16.82337753 -19 15 C-18.65846063 13.33499557 -18.32550502 11.66821323 -18 10 C-16.0625 7.875 -16.0625 7.875 -14 6 C-13.34 5.01 -12.68 4.02 -12 3 C-9.68970915 2.25740651 -7.354248 1.588562 -5 1 C-3 0 -3 0 0 0 Z " fill="#06CBFA" transform="translate(216,148)"/>
<path d="M0 0 C0 0.66 0 1.32 0 2 C0.99 2.061875 1.98 2.12375 3 2.1875 C7.67557248 2.87312366 11.47104854 4.87149694 15 8 C16.25 11.125 16.25 11.125 17 14 C18.993252 15.87310888 18.993252 15.87310888 21 17 C20.34 17 19.68 17 19 17 C18.67 17.66 18.34 18.32 18 19 C17.34 18.67 16.68 18.34 16 18 C15.67 18.66 15.34 19.32 15 20 C15 19.34 15 18.68 15 18 C14.401875 18.20625 13.80375 18.4125 13.1875 18.625 C11 19 11 19 8 17 C5.95415921 16.33841957 5.95415921 16.33841957 3.8125 15.875 C1.9253125 15.441875 1.9253125 15.441875 0 15 C0 14.34 0 13.68 0 13 C-0.556875 12.896875 -1.11375 12.79375 -1.6875 12.6875 C-4.4769101 11.85821592 -6.6139064 10.65700944 -9 9 C-9 8.34 -9 7.68 -9 7 C-9.61875 6.896875 -10.2375 6.79375 -10.875 6.6875 C-13 6 -13 6 -15 3 C-17.05925139 2.27617533 -17.05925139 2.27617533 -19 2 C-19.33 2.99 -19.66 3.98 -20 5 C-20.33 4.01 -20.66 3.02 -21 2 C-20 1 -20 1 -16.6875 0.9375 C-14.8621875 0.9684375 -14.8621875 0.9684375 -13 1 C-9.22880216 1.13074409 -9.22880216 1.13074409 -6.5 0.5 C-4 0 -4 0 0 0 Z " fill="#07CDF8" transform="translate(266,133)"/>
<path d="M0 0 C4.42857143 5.14285714 4.42857143 5.14285714 5 9 C6.65 9.33 8.3 9.66 10 10 C10.33 9.34 10.66 8.68 11 8 C11.99 8.66 12.98 9.32 14 10 C14 10.99 14 11.98 14 13 C16.31 13.33 18.62 13.66 21 14 C21 14.66 21 15.32 21 16 C21.886875 16.061875 22.77375 16.12375 23.6875 16.1875 C27.76462365 17.1875492 29.19343205 18.96587248 32 22 C32.99 22.33 33.98 22.66 35 23 C35 23.66 35 24.32 35 25 C33.35 25.66 31.7 26.32 30 27 C30.495 27.99 30.495 27.99 31 29 C29.68 29.33 28.36 29.66 27 30 C26.34 29.01 25.68 28.02 25 27 C24.34 26.67 23.68 26.34 23 26 C21 25 21 25 19 22 C17.03387255 21.60437871 17.03387255 21.60437871 14.8125 21.625 C9.78241969 21.18830492 6.39944281 19.8087998 3 16 C1.80076982 13.66507501 0.85553084 11.37803266 0.01953125 8.890625 C-0.84121727 6.79221514 -0.84121727 6.79221514 -3.11328125 6.234375 C-4.04720703 6.11835938 -4.04720703 6.11835938 -5 6 C-3.4198632 3.84526801 -1.89353366 1.89353366 0 0 Z " fill="#05C7FA" transform="translate(301,157)"/>
<path d="M0 0 C0.66 0.33 1.32 0.66 2 1 C0.33333333 2.66666667 -1.33333333 4.33333333 -3 6 C-3.53625 6.598125 -4.0725 7.19625 -4.625 7.8125 C-6 9 -6 9 -9 9 C-8.42415568 11.38564077 -7.77772405 13.66682784 -7 16 C-4.16032769 16 -1.76264289 15.59732819 1 15 C0.01 15.495 0.01 15.495 -1 16 C-1 16.66 -1 17.32 -1 18 C-2.98 18.66 -4.96 19.32 -7 20 C-7 20.66 -7 21.32 -7 22 C-8.50390625 23.11328125 -8.50390625 23.11328125 -10.5625 24.3125 C-14.53333853 26.69075623 -18.26062873 29.27337512 -22 32 C-22.66 31.67 -23.32 31.34 -24 31 C-23.34 29.68 -22.68 28.36 -22 27 C-20.68 27 -19.36 27 -18 27 C-18 26.34 -18 25.68 -18 25 C-17.34 25 -16.68 25 -16 25 C-16.495 24.21625 -16.99 23.4325 -17.5 22.625 C-19 20 -19 20 -19 18 C-19.928125 18.495 -20.85625 18.99 -21.8125 19.5 C-25 21 -25 21 -28 21 C-28 20.34 -28 19.68 -28 19 C-25.8015731 17.39146911 -23.60408774 15.90293713 -21.3125 14.4375 C-19.94201682 13.54402856 -18.57223919 12.64947406 -17.203125 11.75390625 C-16.50509766 11.29902832 -15.80707031 10.84415039 -15.08789062 10.37548828 C-11.87689244 8.2601043 -8.71750313 6.07270256 -5.5625 3.875 C-4.49128906 3.12992188 -3.42007813 2.38484375 -2.31640625 1.6171875 C-1.55199219 1.08351562 -0.78757813 0.54984375 0 0 Z " fill="#08C1E8" transform="translate(235,130)"/>
<path d="M0 0 C4.99549753 1.63899428 8.93845455 4.55932851 13.1875 7.5625 C14.61776738 8.56483342 16.04872473 9.56618322 17.48046875 10.56640625 C18.42249146 11.23071655 18.42249146 11.23071655 19.38354492 11.90844727 C21.01809218 13.0631807 21.01809218 13.0631807 23 14 C23 14.66 23 15.32 23 16 C23.69480469 16.24492187 24.38960938 16.48984375 25.10546875 16.7421875 C28.46600214 18.20250025 31.28574867 20.06281778 34.3125 22.125 C35.91544922 23.21167969 35.91544922 23.21167969 37.55078125 24.3203125 C38.35902344 24.87460938 39.16726563 25.42890625 40 26 C38 27 38 27 35.4375 26.1875 C33 25 33 25 32 23 C29.6859378 22.26924352 27.35171131 21.59861742 25 21 C25 20.34 25 19.68 25 19 C23.68 18.34 22.36 17.68 21 17 C21 16.34 21 15.68 21 15 C20.401875 14.896875 19.80375 14.79375 19.1875 14.6875 C16.66052987 13.89330939 15.84722959 12.84722959 14 11 C11.40084462 9.80972016 11.40084462 9.80972016 9 9 C9.20625 9.763125 9.4125 10.52625 9.625 11.3125 C10 14 10 14 8 17 C8.66 18.32 9.32 19.64 10 21 C5.40492293 19.4538304 1.91797366 16.97199131 -1.9375 14.125 C-3.13344575 13.2516875 -4.33005444 12.3792821 -5.52734375 11.5078125 C-6.10339355 11.08790039 -6.67944336 10.66798828 -7.27294922 10.23535156 C-9.8061392 8.4233723 -12.39652486 6.70915162 -15 5 C-11.61981469 3.95994298 -8.5219721 3.91995518 -5 4 C-5 4.99 -5 5.98 -5 7 C-2.56249975 9.68767578 -2.56249975 9.68767578 0 12 C2.06417808 11.11601422 2.06417808 11.11601422 3.4375 9.4375 C5 8 5 8 8 8 C8 7.34 8 6.68 8 6 C7.236875 5.938125 6.47375 5.87625 5.6875 5.8125 C3 5 3 5 1.1875 2.4375 C0.795625 1.633125 0.40375 0.82875 0 0 Z " fill="#0CABD8" transform="translate(328,174)"/>
<path d="M0 0 C2.0211121 0.25929909 4.02982264 0.61103871 6.03515625 0.97265625 C5.04515625 3.61265625 4.05515625 6.25265625 3.03515625 8.97265625 C1.38515625 8.97265625 -0.26484375 8.97265625 -1.96484375 8.97265625 C-1.96484375 9.96265625 -1.96484375 10.95265625 -1.96484375 11.97265625 C-2.95484375 11.64265625 -3.94484375 11.31265625 -4.96484375 10.97265625 C-5.95484375 12.45765625 -5.95484375 12.45765625 -6.96484375 13.97265625 C-7.29484375 13.31265625 -7.62484375 12.65265625 -7.96484375 11.97265625 C-8.29484375 13.29265625 -8.62484375 14.61265625 -8.96484375 15.97265625 C-9.95484375 15.97265625 -10.94484375 15.97265625 -11.96484375 15.97265625 C-11.96484375 16.63265625 -11.96484375 17.29265625 -11.96484375 17.97265625 C-13.94484375 17.97265625 -15.92484375 17.97265625 -17.96484375 17.97265625 C-18.27734375 15.22265625 -18.27734375 15.22265625 -17.96484375 11.97265625 C-15.71484375 9.84765625 -15.71484375 9.84765625 -12.96484375 7.97265625 C-12.28421875 7.25078125 -11.60359375 6.52890625 -10.90234375 5.78515625 C-8.80001568 3.81846225 -7.69233902 3.58854228 -4.96484375 2.97265625 C-4.55234375 2.43640625 -4.13984375 1.90015625 -3.71484375 1.34765625 C-1.96484375 -0.02734375 -1.96484375 -0.02734375 0 0 Z " fill="#06C6FB" transform="translate(168.96484375,179.02734375)"/>
<path d="M0 0 C3.92405063 4.55696203 3.92405063 4.55696203 4.375 7.1875 C4.58125 7.785625 4.7875 8.38375 5 9 C7.99615946 10.3045656 7.99615946 10.3045656 11 11 C11 11.66 11 12.32 11 13 C11.66 13 12.32 13 13 13 C12.67 15.64 12.34 18.28 12 21 C7.53011509 19.59517903 5.01665341 17.57235272 2 14 C1.43964185 12.76721206 0.91838776 11.51590455 0.4375 10.25 C-0.61605235 6.87055809 -0.61605235 6.87055809 -3.1875 6.0625 C-3.785625 6.041875 -4.38375 6.02125 -5 6 C-3.4198632 3.84526801 -1.89353366 1.89353366 0 0 Z " fill="#07C7FA" transform="translate(301,157)"/>
<path d="M0 0 C0.66 0.33 1.32 0.66 2 1 C0.7934375 2.36125 0.7934375 2.36125 -0.4375 3.75 C-2.50086069 6.18986488 -2.50086069 6.18986488 -3.5 9.1875 C-4 11 -4 11 -6.5625 12.75 C-7.7690625 13.36875 -7.7690625 13.36875 -9 14 C-9.33 13.01 -9.66 12.02 -10 11 C-10.68707031 11.5053125 -11.37414062 12.010625 -12.08203125 12.53125 C-12.98308594 13.1809375 -13.88414062 13.830625 -14.8125 14.5 C-15.70582031 15.1496875 -16.59914062 15.799375 -17.51953125 16.46875 C-20 18 -20 18 -23 18 C-23.33 18.99 -23.66 19.98 -24 21 C-25.98 21.33 -27.96 21.66 -30 22 C-26.99431313 18.79336585 -23.82097538 16.37328108 -20.17578125 13.92578125 C-19.62891159 13.55647995 -19.08204193 13.18717865 -18.51860046 12.8066864 C-16.78602251 11.63775078 -15.04946921 10.47489802 -13.3125 9.3125 C-11.56562855 8.13823154 -9.81960618 6.96271952 -8.07426453 5.78617859 C-6.49937751 4.72535476 -4.92222815 3.6678919 -3.3449707 2.6105957 C-1.14097398 1.2018196 -1.14097398 1.2018196 0 0 Z " fill="#0DA2C5" transform="translate(201,153)"/>
<path d="M0 0 C2.31 0 4.62 0 7 0 C3.73604396 3.55771208 0.02458999 6.13881985 -4 8.75 C-5.33874175 9.62729892 -6.67728053 10.50490764 -8.015625 11.3828125 C-8.68271484 11.81883789 -9.34980469 12.25486328 -10.03710938 12.70410156 C-11.88817964 13.92617631 -13.72050461 15.17108458 -15.546875 16.4296875 C-16.60390625 17.15414062 -17.6609375 17.87859375 -18.75 18.625 C-19.69359375 19.27726562 -20.6371875 19.92953125 -21.609375 20.6015625 C-24 22 -24 22 -27 22 C-26.01 20.515 -26.01 20.515 -25 19 C-24.34 19 -23.68 19 -23 19 C-23 18.34 -23 17.68 -23 17 C-22.34 17 -21.68 17 -21 17 C-21 16.01 -21 15.02 -21 14 C-18.36 13.67 -15.72 13.34 -13 13 C-13 12.34 -13 11.68 -13 11 C-12.34 11 -11.68 11 -11 11 C-11 10.34 -11 9.68 -11 9 C-10.01 9 -9.02 9 -8 9 C-7.67 7.35 -7.34 5.7 -7 4 C-5.68 4.33 -4.36 4.66 -3 5 C-3 4.34 -3 3.68 -3 3 C-2.01 3 -1.02 3 0 3 C0 2.01 0 1.02 0 0 Z " fill="#108EA8" transform="translate(204,162)"/>
<path d="M0 0 C2.64 0.99 5.28 1.98 8 3 C8 3.66 8 4.32 8 5 C8.68449219 5.23460937 9.36898438 5.46921875 10.07421875 5.7109375 C13.62808469 7.27672623 16.66672766 9.38052475 19.8125 11.625 C20.40998047 12.04523438 21.00746094 12.46546875 21.62304688 12.8984375 C23.08520565 13.92779728 24.54304899 14.9632823 26 16 C22.25 17.125 22.25 17.125 20 16 C20 15.34 20 14.68 20 14 C17.69 13.67 15.38 13.34 13 13 C12.67 12.01 12.34 11.02 12 10 C11.01 10 10.02 10 9 10 C6.5625 9.9375 6.5625 9.9375 4 9 C1.92013661 6.32972378 0 3.47152042 0 0 Z " fill="#11AACE" transform="translate(302,157)"/>
<path d="M0 0 C15.84 0 31.68 0 48 0 C48 0.66 48 1.32 48 2 C41.96802226 2.19265169 35.93585191 2.37131287 29.90307617 2.53710938 C27.85153132 2.59545175 25.8000908 2.6575933 23.7487793 2.72363281 C20.79755654 2.81798045 17.84622644 2.89858863 14.89453125 2.9765625 C13.97976517 3.00875885 13.06499908 3.0409552 12.12251282 3.0741272 C7.6094921 3.17991948 4.09623352 3.18019332 0 1 C0 0.67 0 0.34 0 0 Z " fill="#1FABE9" transform="translate(226,365)"/>
<path d="M0 0 C4.99549753 1.63899428 8.93845455 4.55932851 13.1875 7.5625 C14.61776738 8.56483342 16.04872473 9.56618322 17.48046875 10.56640625 C18.10848389 11.00927979 18.73649902 11.45215332 19.38354492 11.90844727 C21.01809218 13.0631807 21.01809218 13.0631807 23 14 C23 14.66 23 15.32 23 16 C23.69480469 16.24492187 24.38960938 16.48984375 25.10546875 16.7421875 C28.46600214 18.20250025 31.28574867 20.06281778 34.3125 22.125 C35.91544922 23.21167969 35.91544922 23.21167969 37.55078125 24.3203125 C38.35902344 24.87460938 39.16726563 25.42890625 40 26 C38 27 38 27 35.4375 26.1875 C33 25 33 25 32 23 C29.6859378 22.26924352 27.35171131 21.59861742 25 21 C25 20.34 25 19.68 25 19 C23.68 18.34 22.36 17.68 21 17 C21 16.34 21 15.68 21 15 C20.1028125 14.8453125 20.1028125 14.8453125 19.1875 14.6875 C16.64141235 13.88730103 15.86718082 12.86718082 14 11 C12.02379014 9.95377125 10.0262871 8.94560065 8 8 C8 7.34 8 6.68 8 6 C6.8553125 5.9071875 6.8553125 5.9071875 5.6875 5.8125 C3 5 3 5 1.1875 2.4375 C0.795625 1.633125 0.40375 0.82875 0 0 Z " fill="#11677E" transform="translate(328,174)"/>
<path d="M0 0 C2.09375 0.20703125 2.09375 0.20703125 4.5 0.8125 C5.2940625 1.00457031 6.088125 1.19664062 6.90625 1.39453125 C9 2 9 2 11 3 C11 3.66 11 4.32 11 5 C10.01 5.33 9.02 5.66 8 6 C8.66 8.31 9.32 10.62 10 13 C4.79011272 11.36260685 1.38840584 8.44623886 -1.3125 3.6875 C-1.539375 3.130625 -1.76625 2.57375 -2 2 C-1.34 1.34 -0.68 0.68 0 0 Z " fill="#0BB0E0" transform="translate(337,188)"/>
<path d="M0 0 C0.99 0.66 1.98 1.32 3 2 C3.1875 5.125 3.1875 5.125 3 8 C1.824375 8.185625 1.824375 8.185625 0.625 8.375 C-2.14057822 8.79117993 -2.14057822 8.79117993 -4 11 C-7.3270336 8.7819776 -7.88292386 7.72358715 -9 4 C-8.67 3.34 -8.34 2.68 -8 2 C-5.36 2 -2.72 2 0 2 C0 1.34 0 0.68 0 0 Z " fill="#04CFF9" transform="translate(234,137)"/>
<path d="M0 0 C0.33 0.99 0.66 1.98 1 3 C0.34 3 -0.32 3 -1 3 C-0.67 4.32 -0.34 5.64 0 7 C-0.66 7 -1.32 7 -2 7 C-2 6.34 -2 5.68 -2 5 C-2.66 5 -3.32 5 -4 5 C-4.1546875 5.86625 -4.1546875 5.86625 -4.3125 6.75 C-5.10896465 9.35661158 -6.19065277 10.9735311 -8 13 C-8.66 13 -9.32 13 -10 13 C-10 12.34 -10 11.68 -10 11 C-14.455 12.485 -14.455 12.485 -19 14 C-16.47211993 11.20127563 -14.79588866 9.54226981 -11 9 C-11 8.34 -11 7.68 -11 7 C-9.21601386 5.71993203 -7.37146094 4.52339649 -5.5 3.375 C-4.4790625 2.74335938 -3.458125 2.11171875 -2.40625 1.4609375 C-1.6121875 0.97882813 -0.818125 0.49671875 0 0 Z " fill="#1193B9" transform="translate(136,198)"/>
<path d="M0 0 C0.66 0 1.32 0 2 0 C2 0.66 2 1.32 2 2 C2.66 2.33 3.32 2.66 4 3 C2.87926138 3.83905565 1.75325453 4.67107831 0.625 5.5 C-0.31472656 6.19609375 -0.31472656 6.19609375 -1.2734375 6.90625 C-3 8 -3 8 -5 8 C-5 8.66 -5 9.32 -5 10 C-6.60875 10.8971875 -6.60875 10.8971875 -8.25 11.8125 C-10.98958993 13.37401069 -13.53256878 15.02605503 -16 17 C-16.66 16.67 -17.32 16.34 -18 16 C-17.34 14.68 -16.68 13.36 -16 12 C-15.01 12 -14.02 12 -13 12 C-13 10.35 -13 8.7 -13 7 C-12.01 7 -11.02 7 -10 7 C-9.34 6.67 -8.68 6.34 -8 6 C-8 6.66 -8 7.32 -8 8 C-7.34 8 -6.68 8 -6 8 C-6 7.01 -6 6.02 -6 5 C-4.35 5 -2.7 5 -1 5 C-0.67 3.35 -0.34 1.7 0 0 Z " fill="#1194B6" transform="translate(173,183)"/>
<path d="M0 0 C1.98 0.99 1.98 0.99 4 2 C3.67 21.14 3.34 40.28 3 60 C2.67 60 2.34 60 2 60 C1.9845388 58.93884224 1.9845388 58.93884224 1.96876526 57.85624695 C1.87080479 51.19068762 1.76829237 44.52521568 1.66066074 37.85980511 C1.60548647 34.43301772 1.55207534 31.00622172 1.50268555 27.5793457 C1.44583335 23.64004749 1.38132688 19.7008926 1.31640625 15.76171875 C1.29969376 14.53039719 1.28298126 13.29907562 1.26576233 12.03044128 C1.24581711 10.88948502 1.22587189 9.74852875 1.20532227 8.57299805 C1.18977798 7.567061 1.1742337 6.56112396 1.15821838 5.52470398 C1.1003603 2.87395947 1.1003603 2.87395947 0 0 Z " fill="#17B2F4" transform="translate(281,268)"/>
<path d="M0 0 C0.99 0 1.98 0 3 0 C2.67657623 0.55786194 2.35315247 1.11572388 2.01992798 1.69049072 C0.86998971 4.2943933 0.7250242 6.1151016 0.68115234 8.95214844 C0.66128265 9.93286316 0.64141296 10.91357788 0.62094116 11.92401123 C0.60938995 12.97518127 0.59783875 14.02635132 0.5859375 15.109375 C0.56657135 16.19132141 0.5472052 17.27326782 0.5272522 18.38800049 C0.46749763 21.84192026 0.42108703 25.29587344 0.375 28.75 C0.33681647 31.09246241 0.29776452 33.43491084 0.2578125 35.77734375 C0.16179944 41.51810499 0.07673973 47.25895053 0 53 C-0.33 53 -0.66 53 -1 53 C-1.19326436 45.77374796 -1.37075091 38.54723373 -1.53710938 31.3203125 C-1.5956201 28.86026169 -1.65778431 26.40029502 -1.72363281 23.94042969 C-1.81748648 20.4109631 -1.89833002 16.8814055 -1.9765625 13.3515625 C-2.00875885 12.24632233 -2.0409552 11.14108215 -2.0741272 10.00234985 C-2.09429901 8.98144257 -2.11447083 7.96053528 -2.13525391 6.90869141 C-2.15746002 6.00712311 -2.17966614 5.10555481 -2.20254517 4.17666626 C-2 2 -2 2 0 0 Z " fill="#17B5ED" transform="translate(217,268)"/>
<path d="M0 0 C0.66 0 1.32 0 2 0 C2.26252625 4.33168317 1.29243536 7.8803623 0 12 C-0.78375 11.979375 -1.5675 11.95875 -2.375 11.9375 C-4.98114961 11.81315937 -4.98114961 11.81315937 -7 13 C-7 12.34 -7 11.68 -7 11 C-8.32 10.67 -9.64 10.34 -11 10 C-10.67 9.01 -10.34 8.02 -10 7 C-7.9375 6.3125 -7.9375 6.3125 -6 6 C-6 6.66 -6 7.32 -6 8 C-4.01819787 6.20694093 -2.79641779 4.6498386 -1.4375 2.3125 C-0.7259375 1.1678125 -0.7259375 1.1678125 0 0 Z " fill="#07C3FB" transform="translate(132,203)"/>
<path d="M0 0 C2.35723489 2.53184488 3 3.47190093 3 7 C2.34 7 1.68 7 1 7 C1 7.66 1 8.32 1 9 C0.01 9 -0.98 9 -2 9 C-2 8.01 -2 7.02 -2 6 C-2.99 6.66 -3.98 7.32 -5 8 C-7.6875 7.625 -7.6875 7.625 -10 7 C-4.34042553 0 -4.34042553 0 0 0 Z " fill="#03CEFB" transform="translate(216,148)"/>
<path d="M0 0 C3.79303725 1.00193437 6.71536341 1.81024227 10 4 C12.62531524 4.16713569 12.62531524 4.16713569 15 4 C16.32 6.97 17.64 9.94 19 13 C15.24105631 11.64166972 12.19654835 9.93202341 8.9375 7.625 C8.10089844 7.03976563 7.26429688 6.45453125 6.40234375 5.8515625 C4.06432754 4.04957927 2.03512089 2.1338219 0 0 Z " fill="#0DA2C7" transform="translate(285,159)"/>
<path d="M0 0 C0.66 0.33 1.32 0.66 2 1 C1.236875 1.7425 0.47375 2.485 -0.3125 3.25 C-2.4393702 5.4263323 -4.2559956 7.52167796 -6 10 C-6.99 9.67 -7.98 9.34 -9 9 C-9 9.66 -9 10.32 -9 11 C-9.99 11 -10.98 11 -12 11 C-12 11.66 -12 12.32 -12 13 C-14.31 13.33 -16.62 13.66 -19 14 C-15.98112756 10.51668565 -13.43090471 9.20842856 -9 8 C-9 7.34 -9 6.68 -9 6 C-6 4 -6 4 -3 4 C-3 3.34 -3 2.68 -3 2 C-2.01 1.34 -1.02 0.68 0 0 Z " fill="#137F9C" transform="translate(156,184)"/>
<path d="M0 0 C2 1 4 2 6 3 C6.48428405 10.38533178 6.48428405 10.38533178 4.375 13.0625 C1.21609755 14.30943518 -0.75318971 13.84699399 -4 13 C-4.66 12.67 -5.32 12.34 -6 12 C-5.67 11.34 -5.34 10.68 -5 10 C-4.34 10.33 -3.68 10.66 -3 11 C-1.00039988 11.039992 1.00047242 11.04346799 3 11 C2.34 10.67 1.68 10.34 1 10 C0.27840576 8.35636866 -0.39351421 6.68949614 -1 5 C0.32 5.33 1.64 5.66 3 6 C1.515 3.03 1.515 3.03 0 0 Z " fill="#0E7091" transform="translate(379,209)"/>
<path d="M0 0 C3.3 0 6.6 0 10 0 C10 0.99 10 1.98 10 3 C11.6454378 4.68762851 13.31288577 6.3540349 15 8 C15.33 8.99 15.66 9.98 16 11 C9.65113202 9.01597876 4.6309919 4.6309919 0 0 Z " fill="#106B82" transform="translate(313,178)"/>
<path d="M0 0 C1.27875 0.103125 2.5575 0.20625 3.875 0.3125 C4.95394531 0.39951172 4.95394531 0.39951172 6.0546875 0.48828125 C8 1 8 1 10 4 C10.639375 4.103125 11.27875 4.20625 11.9375 4.3125 C14 5 14 5 15.75 8.0625 C16.1625 9.031875 16.575 10.00125 17 11 C15.68 10.67 14.36 10.34 13 10 C13 9.34 13 8.68 13 8 C12.443125 7.896875 11.88625 7.79375 11.3125 7.6875 C8.5230899 6.85821592 6.3860936 5.65700944 4 4 C4 3.34 4 2.68 4 2 C2.68 1.67 1.36 1.34 0 1 C0 0.67 0 0.34 0 0 Z " fill="#158CA2" transform="translate(253,138)"/>
<path d="M0 0 C0.66 0.33 1.32 0.66 2 1 C-3.83098592 6.99295775 -3.83098592 6.99295775 -7 9 C-7.99 9 -8.98 9 -10 9 C-10.33 9.99 -10.66 10.98 -11 12 C-12.98 12.33 -14.96 12.66 -17 13 C-13.75042141 9.49302905 -10.18687827 6.90631127 -6.25 4.25 C-5.64800781 3.83878906 -5.04601562 3.42757812 -4.42578125 3.00390625 C-2.95313343 1.99876568 -1.47692498 0.99884522 0 0 Z " fill="#14829A" transform="translate(188,162)"/>
<path d="M0 0 C3.2910841 3.60957611 4.54663921 6.12637153 5 11 C0.125 9.25 0.125 9.25 -1 7 C-3.02463255 6.34786708 -3.02463255 6.34786708 -5 6 C-3.4198632 3.84526801 -1.89353366 1.89353366 0 0 Z " fill="#05C8FC" transform="translate(301,157)"/>
<path d="M0 0 C0.50305664 0.32145996 1.00611328 0.64291992 1.52441406 0.97412109 C4.86069708 2.35667151 8.05231593 2.35546447 11.609375 2.4140625 C12.33618469 2.43342865 13.06299438 2.4527948 13.81182861 2.4727478 C16.12443448 2.53234271 18.43709067 2.57884758 20.75 2.625 C22.32163582 2.66319836 23.89325113 2.70225117 25.46484375 2.7421875 C29.30972842 2.83802743 33.15471107 2.92213195 37 3 C37 3.33 37 3.66 37 4 C32.05208706 4.0246826 27.1042098 4.04285166 22.15625 4.05493164 C20.47232438 4.05996653 18.78840314 4.06679481 17.10449219 4.07543945 C14.68683797 4.08754196 12.26924144 4.09323668 9.8515625 4.09765625 C9.0963028 4.10281754 8.34104309 4.10797882 7.56289673 4.11329651 C2.22774341 4.11387171 2.22774341 4.11387171 0 3 C0 2.01 0 1.02 0 0 Z " fill="#238FBD" transform="translate(139,372)"/>
<path d="M0 0 C7.02935371 2.55612862 12.87579184 6.76635199 19 11 C17 12 17 12 14.4375 11.1875 C12 10 12 10 11 8 C8.6859378 7.26924352 6.35171131 6.59861742 4 6 C4 5.34 4 4.68 4 4 C2.68 3.34 1.36 2.68 0 2 C0 1.34 0 0.68 0 0 Z " fill="#147692" transform="translate(349,189)"/>
<path d="M0 0 C3.89006773 1.38780795 6.96558708 3.2152227 10.3125 5.625 C11.19550781 6.25664062 12.07851563 6.88828125 12.98828125 7.5390625 C13.65214844 8.02117187 14.31601562 8.50328125 15 9 C11.25 10.125 11.25 10.125 9 9 C9 8.34 9 7.68 9 7 C6.69 6.67 4.38 6.34 2 6 C1.34 4.02 0.68 2.04 0 0 Z " fill="#12849F" transform="translate(313,164)"/>
<path d="M0 0 C0.66 0.33 1.32 0.66 2 1 C0.33333333 2.66666667 -1.33333333 4.33333333 -3 6 C-3.495 6.5775 -3.99 7.155 -4.5 7.75 C-6.51724684 9.43103904 -8.45490589 9.53116687 -11 10 C-11.33 10.66 -11.66 11.32 -12 12 C-13.32 11.67 -14.64 11.34 -16 11 C-10.72 7.37 -5.44 3.74 0 0 Z " fill="#1795AA" transform="translate(235,130)"/>
<path d="M0 0 C0 0.66 0 1.32 0 2 C-2.30078125 3.7265625 -2.30078125 3.7265625 -5.3125 5.625 C-6.29863281 6.25664062 -7.28476563 6.88828125 -8.30078125 7.5390625 C-11 9 -11 9 -14 9 C-13.34 8.01 -12.68 7.02 -12 6 C-11.34 6 -10.68 6 -10 6 C-10 5.34 -10 4.68 -10 4 C-9.34 4 -8.68 4 -8 4 C-8 3.01 -8 2.02 -8 1 C-5.23735711 0.40267181 -2.83967231 0 0 0 Z " fill="#11809C" transform="translate(191,175)"/>
<path d="M0 0 C5.28497409 0.0880829 5.28497409 0.0880829 8 1 C9.94583442 3.22381076 10.79889012 5.24745652 12 8 C9.525 7.01 9.525 7.01 7 6 C7 5.34 7 4.68 7 4 C6.01 3.67 5.02 3.34 4 3 C4 2.34 4 1.68 4 1 C3.34 1 2.68 1 2 1 C2 4.3 2 7.6 2 11 C1.67 11 1.34 11 1 11 C0.67 7.37 0.34 3.74 0 0 Z " fill="#1695BB" transform="translate(360,211)"/>
<path d="M0 0 C3.09141565 1.75458726 5.50093145 3.50093145 8 6 C8.99 6.33 9.98 6.66 11 7 C11 7.66 11 8.32 11 9 C8.69 9.66 6.38 10.32 4 11 C3.855625 10.236875 3.71125 9.47375 3.5625 8.6875 C3.0367406 5.91827092 3.0367406 5.91827092 2 3 C1.34 2.67 0.68 2.34 0 2 C0 1.34 0 0.68 0 0 Z " fill="#10C2F4" transform="translate(325,173)"/>
<path d="M0 0 C2.97 1.65 5.94 3.3 9 5 C9 5.99 9 6.98 9 8 C2.25 6.25 2.25 6.25 0 4 C0 2.68 0 1.36 0 0 Z " fill="#1199B5" transform="translate(281,142)"/>
<path d="M0 0 C0.66 0 1.32 0 2 0 C2 0.66 2 1.32 2 2 C2.66 2.33 3.32 2.66 4 3 C2.87926138 3.83905565 1.75325453 4.67107831 0.625 5.5 C-0.00148437 5.9640625 -0.62796875 6.428125 -1.2734375 6.90625 C-3 8 -3 8 -5 8 C-5 8.66 -5 9.32 -5 10 C-5.66 9.67 -6.32 9.34 -7 9 C-6.67 7.68 -6.34 6.36 -6 5 C-4.35 5 -2.7 5 -1 5 C-0.67 3.35 -0.34 1.7 0 0 Z " fill="#108BAA" transform="translate(173,183)"/>
<path d="M0 0 C0.66 0.33 1.32 0.66 2 1 C2.33 1.99 2.66 2.98 3 4 C0.69 4.33 -1.62 4.66 -4 5 C-4.33 5.99 -4.66 6.98 -5 8 C-6.98 8.33 -8.96 8.66 -11 9 C-7.97434902 5.74160664 -4.73073113 3.40424895 -1 1 C-0.67 0.67 -0.34 0.34 0 0 Z " fill="#1488A8" transform="translate(169,175)"/>
<path d="M0 0 C5.51175932 1.18881083 8.23216888 2.5672575 12 7 C12.33 7.66 12.66 8.32 13 9 C7.97290493 7.42903279 3.97133531 4.38006951 0 1 C0 0.67 0 0.34 0 0 Z " fill="#0D697E" transform="translate(285,159)"/>
<path d="M0 0 C2.625 0.9375 2.625 0.9375 5 2 C5 2.66 5 3.32 5 4 C5.804375 4.28875 6.60875 4.5775 7.4375 4.875 C10 6 10 6 11 8 C9.68 8 8.36 8 7 8 C7 7.34 7 6.68 7 6 C6.2575 5.731875 5.515 5.46375 4.75 5.1875 C2.13363446 4.05770579 0.19812889 2.79106798 -2 1 C-1.34 0.67 -0.68 0.34 0 0 Z " fill="#157896" transform="translate(368,201)"/>
<path d="M0 0 C0.70125 0.144375 1.4025 0.28875 2.125 0.4375 C5.07556141 1.01478375 8.03270151 1.51695141 11 2 C11 2.99 11 3.98 11 5 C8 6 8 6 4.8125 4.5625 C3.884375 4.046875 2.95625 3.53125 2 3 C2 2.34 2 1.68 2 1 C1.34 0.67 0.68 0.34 0 0 Z " fill="#0F9BB2" transform="translate(270,149)"/>
<path d="M0 0 C8.19256018 -0.63019694 8.19256018 -0.63019694 11.5625 2 C12.036875 2.66 12.51125 3.32 13 4 C8.125 3.125 8.125 3.125 7 2 C4.32941149 1.85884839 1.67567762 1.95752893 -1 2 C-0.67 1.34 -0.34 0.68 0 0 Z " fill="#14808F" transform="translate(245,123)"/>
<path d="M0 0 C1.98 0.99 1.98 0.99 4 2 C3.67 7.28 3.34 12.56 3 18 C2.67 18 2.34 18 2 18 C1.93941406 16.95199219 1.87882812 15.90398437 1.81640625 14.82421875 C1.73198262 13.44529952 1.64733553 12.06639395 1.5625 10.6875 C1.52318359 9.99720703 1.48386719 9.30691406 1.44335938 8.59570312 C1.25072585 5.52838465 0.97677283 2.93031848 0 0 Z " fill="#1591BE" transform="translate(281,268)"/>
<path d="M0 0 C3.3 0 6.6 0 10 0 C10 0.99 10 1.98 10 3 C9.34 3.66 8.68 4.32 8 5 C5.36 3.68 2.72 2.36 0 1 C0 0.67 0 0.34 0 0 Z " fill="#1398C1" transform="translate(313,178)"/>
<path d="M0 0 C0.33 0 0.66 0 1 0 C1 1.98 1 3.96 1 6 C-1.31 7.32 -3.62 8.64 -6 10 C-6 9.01 -6 8.02 -6 7 C-5.34 7 -4.68 7 -4 7 C-4 6.34 -4 5.68 -4 5 C-3.01 5 -2.02 5 -1 5 C-0.67 3.35 -0.34 1.7 0 0 Z " fill="#139FC0" transform="translate(197,166)"/>
<path d="M0 0 C1.32 0.33 2.64 0.66 4 1 C1.36 2.98 -1.28 4.96 -4 7 C-4.66 6.67 -5.32 6.34 -6 6 C-5.34 4.68 -4.68 3.36 -4 2 C-2.68 2 -1.36 2 0 2 C0 1.34 0 0.68 0 0 Z " fill="#11728C" transform="translate(217,155)"/>
<path d="M0 0 C2.64 0.33 5.28 0.66 8 1 C8.33 2.65 8.66 4.3 9 6 C6.525 5.01 6.525 5.01 4 4 C4 3.34 4 2.68 4 2 C2.68 1.67 1.36 1.34 0 1 C0 0.67 0 0.34 0 0 Z " fill="#0B6E81" transform="translate(253,138)"/>
<path d="M0 0 C0.33 0.66 0.66 1.32 1 2 C1.66 2.309375 2.32 2.61875 3 2.9375 C5 4 5 4 6 7 C2.06326356 5.68775452 -0.22719294 4.08089673 -3 1 C-2.01 0.67 -1.02 0.34 0 0 Z " fill="#1288A4" transform="translate(307,171)"/>
<path d="M0 0 C0.33 0.99 0.66 1.98 1 3 C0.34 3 -0.32 3 -1 3 C-0.67 4.32 -0.34 5.64 0 7 C-0.66 7 -1.32 7 -2 7 C-2 6.34 -2 5.68 -2 5 C-3.32 4.67 -4.64 4.34 -6 4 C-4.02 2.68 -2.04 1.36 0 0 Z " fill="#108CB0" transform="translate(136,198)"/>
<path d="M0 0 C0.66 0.33 1.32 0.66 2 1 C-0.25 3.5625 -0.25 3.5625 -3 6 C-4.32 5.67 -5.64 5.34 -7 5 C-4.69 3.35 -2.38 1.7 0 0 Z " fill="#0F6D7E" transform="translate(235,130)"/>
<path d="M0 0 C0.66 0.33 1.32 0.66 2 1 C-0.23407889 4.35111834 -1.26215824 5.81553956 -5.25 6.8125 C-6.61125 6.9053125 -6.61125 6.9053125 -8 7 C-5.4837822 4.39391727 -2.94865641 2.10618315 0 0 Z " fill="#0B5165" transform="translate(179,168)"/>
<path d="M0 0 C0.66 0.33 1.32 0.66 2 1 C-0.3125 3.5 -0.3125 3.5 -3 6 C-3.99 6 -4.98 6 -6 6 C-6 5.34 -6 4.68 -6 4 C-4.03852126 2.61061923 -2.03833424 1.2739589 0 0 Z " fill="#116F83" transform="translate(213,145)"/>
<path d="M0 0 C2.0625 0.4375 2.0625 0.4375 4 1 C3.34 1 2.68 1 2 1 C2 1.66 2 2.32 2 3 C0.02 3.66 -1.96 4.32 -4 5 C-4.33 4.01 -4.66 3.02 -5 2 C-4.360625 1.855625 -3.72125 1.71125 -3.0625 1.5625 C-1.02454854 1.18992819 -1.02454854 1.18992819 0 0 Z " fill="#12859C" transform="translate(232,145)"/>
<path d="M0 0 C2.31 0 4.62 0 7 0 C4.63707344 2.52588702 3.33537489 3.88820837 0 5 C0 3.35 0 1.7 0 0 Z " fill="#0C798F" transform="translate(204,162)"/>
<path d="M0 0 C1.65 0.33 3.3 0.66 5 1 C4.67 2.32 4.34 3.64 4 5 C1.525 4.01 1.525 4.01 -1 3 C-0.67 2.01 -0.34 1.02 0 0 Z " fill="#04D3FA" transform="translate(255,134)"/>
<path d="M0 0 C0.99 0 1.98 0 3 0 C1.63016497 3.16115776 1.0109362 3.9927092 -2 6 C-1.125 1.125 -1.125 1.125 0 0 Z " fill="#136A87" transform="translate(217,268)"/>
<path d="M0 0 C1.98 0 3.96 0 6 0 C4.68 1.32 3.36 2.64 2 4 C1.34 3.67 0.68 3.34 0 3 C0 2.01 0 1.02 0 0 Z " fill="#0E9FC0" transform="translate(204,151)"/>
<path d="M0 0 C5.875 2.75 5.875 2.75 7 5 C4.03 4.505 4.03 4.505 1 4 C0.67 2.68 0.34 1.36 0 0 Z " fill="#1691AC" transform="translate(272,136)"/>
</svg>
