<?xml version="1.0" encoding="UTF-8"?>
<svg version="1.1" xmlns="http://www.w3.org/2000/svg" width="500" height="500">
<path d="M0 0 C2.79261023 1.53194402 5.41967731 3.28734658 8.0625 5.0625 C8.81474854 5.55838623 9.56699707 6.05427246 10.34204102 6.56518555 C12.56725349 8.03482657 14.78494511 9.51510421 17 11 C17.59393555 11.39767578 18.18787109 11.79535156 18.79980469 12.20507812 C21.28887173 13.87241003 23.77693223 15.54113554 26.26171875 17.21484375 C29.83786166 19.54622365 33.51490627 21.67977428 37.234375 23.7734375 C37.81703125 24.17820313 38.3996875 24.58296875 39 25 C39 25.66 39 26.32 39 27 C39.59063232 27.12511963 40.18126465 27.25023926 40.78979492 27.37915039 C44.32766615 28.37294322 47.24350128 30.47298738 50.3125 32.4375 C51.01890625 32.88416016 51.7253125 33.33082031 52.453125 33.79101562 C57.80501852 37.19199609 63.08360394 40.69764613 68.34179688 44.24121094 C73.59751435 47.76989191 78.95691909 51.11523205 84.3425293 54.44116211 C89.05140616 57.36429561 93.60706279 60.44922838 98.08203125 63.72265625 C100.07431043 65.17069448 100.07431043 65.17069448 103 66 C103 66.66 103 67.32 103 68 C103.68320312 68.2475 104.36640625 68.495 105.0703125 68.75 C108.52099753 70.22229228 111.67621359 72.05699617 114.875 74 C115.52122314 74.39010254 116.16744629 74.78020508 116.83325195 75.18212891 C124.03289917 79.56815086 131.05594832 84.22111226 138 89 C138.79535156 89.50402344 139.59070313 90.00804687 140.41015625 90.52734375 C142 92 142 92 142.390625 94.04296875 C142.26041667 96.02864583 142.13020833 98.01432292 142 100 C141.34 100 140.68 100 140 100 C140 100.66 140 101.32 140 102 C137.18609643 103.23811757 135.95107499 102.98369166 133 102 C127.48992879 99.40773455 122.03025182 96.42783991 117 93 C117 92.34 117 91.68 117 91 C116.071875 90.71125 115.14375 90.4225 114.1875 90.125 C111 89 111 89 108 87 C107.99786247 87.94507416 107.99786247 87.94507416 107.99568176 88.90924072 C107.97600493 95.46321219 107.92177454 102.01624977 107.84741211 108.56982422 C107.82420595 111.01604514 107.8098303 113.46236635 107.80444336 115.90869141 C107.79517341 119.42414031 107.75422239 122.93800606 107.70703125 126.453125 C107.7109639 127.5480426 107.71489655 128.64296021 107.71894836 129.77105713 C107.57341904 137.33350858 107.57341904 137.33350858 104.6550293 140.72558594 C101.25644261 142.35690755 99.54798356 142.18266119 96 141 C84.71503534 124.07255301 94 100.34425936 94 80 C43.51 80.33 -6.98 80.66 -59 81 C-59 132.15 -59 183.3 -59 236 C-50.75 236.33 -42.5 236.66 -34 237 C-34.01571045 234.77403076 -34.0314209 232.54806152 -34.04760742 230.25463867 C-34.09727879 222.90654628 -34.13043913 215.55844654 -34.15543652 208.21023083 C-34.17110387 203.75424011 -34.19236152 199.29842115 -34.22631836 194.8425293 C-34.25887388 190.5437024 -34.27684495 186.24504088 -34.28463173 181.94610023 C-34.29018211 180.30460315 -34.30102049 178.66311529 -34.31719017 177.02168846 C-34.33891431 174.7254404 -34.3419691 172.42987892 -34.34057617 170.13354492 C-34.35056892 168.1716346 -34.35056892 168.1716346 -34.36076355 166.17008972 C-34 163 -34 163 -32.60371399 161.11665344 C-29.63706095 159.05099625 -27.73500822 158.86634968 -24.15478516 158.83886719 C-23.14678864 158.82925964 -22.13879211 158.8196521 -21.10025024 158.80975342 C-19.46121231 158.8033786 -19.46121231 158.8033786 -17.7890625 158.796875 C-16.6693808 158.79117493 -15.5496991 158.78547485 -14.39608765 158.77960205 C-12.0238337 158.77014335 -9.65156656 158.76361463 -7.27929688 158.75976562 C-3.6469027 158.75005853 -0.01507382 158.71904202 3.6171875 158.6875 C5.91926746 158.6809703 8.22135149 158.6757197 10.5234375 158.671875 C11.61208099 158.6595282 12.70072449 158.6471814 13.82235718 158.63446045 C14.83665802 158.63746155 15.85095886 158.64046265 16.89599609 158.64355469 C17.78709076 158.63990906 18.67818542 158.63626343 19.59628296 158.63250732 C22.66007354 159.10091545 23.93332373 159.66743005 26 162 C26.38277791 164.55286054 26.50722555 166.67455355 26.45410156 169.2253418 C26.45468567 169.95729767 26.45526978 170.68925354 26.45587158 171.44338989 C26.45308507 173.86248217 26.42196838 176.28034179 26.390625 178.69921875 C26.38316458 180.37644274 26.37747071 182.05367544 26.37347412 183.73091125 C26.35820201 188.14523386 26.31890698 192.55902995 26.2746582 196.97314453 C26.23373929 201.4774666 26.21547035 205.98187376 26.1953125 210.48632812 C26.15241395 219.32445007 26.08414381 228.16218125 26 237 C27.43366913 236.99333817 27.43366913 236.99333817 28.89630127 236.98654175 C37.9013206 236.94600754 46.90632144 236.9160213 55.91141129 236.89637566 C60.54107718 236.88593613 65.17066945 236.87177381 69.80029297 236.84912109 C74.26769485 236.82739879 78.73502589 236.81543264 83.2024765 236.81024551 C84.90732692 236.80654866 86.61217343 236.79932969 88.31699371 236.78853989 C90.70392756 236.77403308 93.09056826 236.77202171 95.47753906 236.77294922 C96.18316483 236.76575867 96.88879059 236.75856812 97.61579895 236.75115967 C101.20340855 236.76625561 104.04720241 236.83342377 107 239 C108.08053003 242.31362543 108.40781743 244.11239737 106.9375 247.3125 C102.90520938 250.82449506 96.98095298 250.12061332 91.88276672 250.10247803 C90.84307142 250.10080938 90.84307142 250.10080938 89.78237218 250.09910703 C87.4724662 250.09408993 85.16266042 250.0817427 82.8527832 250.06933594 C81.1917635 250.06409993 79.53074246 250.05927337 77.86972046 250.05482483 C73.36792066 250.04120698 68.86617776 250.0207626 64.36441445 249.99825954 C61.55254411 249.9843837 58.74067085 249.97175173 55.92879295 249.9595108 C47.1321843 249.92093723 38.33560948 249.87833926 29.5390504 249.82973552 C19.3808355 249.77361708 9.22267734 249.7306357 -0.9356429 249.69905448 C-8.7888896 249.67387439 -16.64203103 249.63729667 -24.4951871 249.59196877 C-29.18616393 249.56513637 -33.87704543 249.5431537 -38.56809044 249.53295135 C-42.97506926 249.5230385 -47.38174453 249.4990231 -51.78859329 249.46401787 C-53.40793316 249.45360094 -55.0273151 249.44831014 -56.64668846 249.44845009 C-58.85271146 249.4478611 -61.05783804 249.42901452 -63.26371765 249.40545654 C-64.49942348 249.39954876 -65.7351293 249.39364098 -67.00828075 249.38755417 C-70 249 -70 249 -71.89762878 247.91117477 C-73.60122507 244.95765948 -73.37466474 242.40583407 -73.3742218 239.01574707 C-73.37819621 238.30067883 -73.38217061 237.58561059 -73.38626546 236.84887362 C-73.39590993 234.44657444 -73.38405777 232.04486103 -73.37231445 229.64257812 C-73.37474172 227.92288493 -73.3784604 226.20319313 -73.38337708 224.48350525 C-73.3927987 219.80793569 -73.38334999 215.13257499 -73.37004495 210.45702171 C-73.3587466 205.56969538 -73.3628367 200.68237958 -73.36479187 195.79504395 C-73.36567536 187.58679788 -73.35458301 179.37863431 -73.33618164 171.17041016 C-73.31501319 161.67335874 -73.31150382 152.17642823 -73.3177436 142.67935801 C-73.32343353 133.55277818 -73.31779598 124.42624103 -73.30657005 115.29966736 C-73.30191914 111.41136386 -73.30105234 107.52308642 -73.3031559 103.63478088 C-73.30503622 99.05803522 -73.29695468 94.48141302 -73.2810955 89.90469551 C-73.27684424 88.22244846 -73.27600773 86.5401889 -73.27878571 84.85793877 C-73.28199612 82.56657356 -73.27295479 80.27557992 -73.26069641 77.98425293 C-73.25761711 76.05848042 -73.25761711 76.05848042 -73.25447559 74.09380341 C-73 71 -73 71 -71 68 C-68.44253349 67.61523914 -68.44253349 67.61523914 -65.14083862 67.60127258 C-63.26877243 67.58246536 -63.26877243 67.58246536 -61.35888672 67.5632782 C-59.96826146 67.56445238 -58.57763642 67.56591159 -57.18701172 67.56762695 C-55.72859869 67.55861485 -54.27019327 67.548289 -52.8117981 67.53674316 C-48.84508109 67.50908188 -44.87850743 67.49987636 -40.91170645 67.49388909 C-36.76897047 67.48452905 -32.62634258 67.4583277 -28.4836731 67.43388367 C-20.6355827 67.3901495 -12.78751319 67.36164512 -4.93933785 67.33856028 C3.99409505 67.31154558 12.92741958 67.26763187 21.86077523 67.22227156 C40.24045969 67.12932628 58.62017279 67.05769091 77 67 C76.01 66.67 75.02 66.34 74 66 C72.65851195 64.67487156 71.32583585 63.34078889 70 62 C67.97977603 60.60999792 67.97977603 60.60999792 65.75 59.375 C52.69277144 51.7331249 40.04202609 43.45783447 27.40039062 35.15307617 C21.44347388 31.24101012 15.46588105 27.37041939 9.43017578 23.58081055 C6.95014759 21.96757139 4.56969178 20.25365202 2.1875 18.5 C-0.75324281 16.53075258 -1.67210341 16.00618673 -5.3125 15.9375 C-7.9699998 16.98813945 -9.77664424 18.23664888 -12 20 C-12.99 20 -13.98 20 -15 20 C-15 20.66 -15 21.32 -15 22 C-15.99 22 -16.98 22 -18 22 C-18 22.66 -18 23.32 -18 24 C-19.98 24.66 -21.96 25.32 -24 26 C-24 26.66 -24 27.32 -24 28 C-24.71349609 28.36738281 -24.71349609 28.36738281 -25.44140625 28.7421875 C-31.20616873 31.82097409 -36.58820458 35.34089218 -41.99633789 38.99365234 C-47.25182336 42.53193472 -52.59716729 45.90141944 -57.98925781 49.22680664 C-61.45108589 51.37240999 -64.86797357 53.56437418 -68.23828125 55.8515625 C-68.92212891 56.315625 -69.60597656 56.7796875 -70.31054688 57.2578125 C-71.61693452 58.14997967 -72.91924012 59.04816234 -74.21679688 59.953125 C-78.67408014 63 -78.67408014 63 -82 63 C-82 63.66 -82 64.32 -82 65 C-83.98 65.66 -85.96 66.32 -88 67 C-88 67.66 -88 68.32 -88 69 C-88.90492188 69.47179687 -88.90492188 69.47179687 -89.828125 69.953125 C-90.62734375 70.38109375 -91.4265625 70.8090625 -92.25 71.25 C-93.03890625 71.66765625 -93.8278125 72.0853125 -94.640625 72.515625 C-97.2713617 74.17072425 -99.03892083 75.57415427 -101 78 C-101.57959426 81.14163761 -101.57959426 81.14163761 -101.45410156 84.71141052 C-101.454697 85.38508653 -101.45529243 86.05876254 -101.45590591 86.75285298 C-101.45312863 89.00949227 -101.42176938 91.26482753 -101.390625 93.52124023 C-101.38294798 95.13930529 -101.37709293 96.75737987 -101.3729248 98.37545776 C-101.360279 101.85962442 -101.33520345 105.34340352 -101.30065918 108.82742119 C-101.24659738 114.33609501 -101.22299916 119.84463965 -101.20410156 125.35353088 C-101.15590651 138.04292818 -101.06770236 150.73198925 -100.97918701 163.42115784 C-100.8984843 175.04800295 -100.82619901 186.6747351 -100.78632736 198.30180126 C-100.76639036 203.77838209 -100.72694218 209.25437186 -100.67260742 214.73071468 C-100.64277325 218.13759819 -100.62950735 221.54440031 -100.6207428 224.95139694 C-100.61325327 226.53126835 -100.59884606 228.11112439 -100.57701111 229.69086266 C-100.54813256 231.84815583 -100.54399595 234.00415197 -100.54589844 236.16160583 C-100.53701599 237.36856833 -100.52813354 238.57553083 -100.51898193 239.81906796 C-101.09864757 243.6523481 -102.24691277 245.31240439 -105 248 C-108 248.5625 -108 248.5625 -111 248 C-113.88572377 245.81949293 -114.89243214 244.64684695 -115.49219131 241.04026413 C-115.48666056 239.29807539 -115.48666056 239.29807539 -115.48101807 237.52069092 C-115.48443577 236.87207195 -115.48785347 236.22345297 -115.49137473 235.55517888 C-115.49795891 233.38366576 -115.47597113 231.21339123 -115.45410156 229.04199219 C-115.45297319 227.48477203 -115.45360675 225.92754973 -115.45587158 224.37033081 C-115.45702006 220.14324353 -115.43348928 215.91660951 -115.40557575 211.68962765 C-115.38058435 207.27205129 -115.37822189 202.85446475 -115.37347412 198.43682861 C-115.36103768 190.07161004 -115.32820706 181.70660037 -115.28807616 173.34147382 C-115.24337922 163.81801256 -115.22137665 154.29454136 -115.20129442 144.77100134 C-115.15947499 125.18055093 -115.08910996 105.59028862 -115 86 C-117.54238159 87.58219472 -120.08391923 89.16571847 -122.625 90.75 C-123.33785156 91.1934375 -124.05070312 91.636875 -124.78515625 92.09375 C-125.83896484 92.75117188 -125.83896484 92.75117188 -126.9140625 93.421875 C-127.60790039 93.85435547 -128.30173828 94.28683594 -129.01660156 94.73242188 C-130.82460187 95.8879041 -132.57956009 97.09637981 -134.3359375 98.328125 C-137 100 -137 100 -140 100 C-140 100.66 -140 101.32 -140 102 C-145.75 103.125 -145.75 103.125 -148 102 C-148 101.34 -148 100.68 -148 100 C-148.99 99.67 -149.98 99.34 -151 99 C-151.18646932 96.01649094 -151.2050604 94.68125939 -150 92 C-145.74002932 88.03430361 -140.88016917 83.97770034 -135 83 C-135 82.34 -135 81.68 -135 81 C-133.18359375 79.80078125 -133.18359375 79.80078125 -130.4375 78.3125 C-122.92393323 74.06375689 -115.75012112 69.33427799 -108.53881836 64.5949707 C-103.83951327 61.50697073 -99.13146594 58.43917002 -94.37890625 55.43359375 C-90.91343667 53.23715629 -87.4862251 50.99899214 -84.09375 48.69140625 C-83.330625 48.17255859 -82.5675 47.65371094 -81.78125 47.11914062 C-80.22635849 46.05814017 -78.67438542 44.9928531 -77.125 43.92382812 C-76.3721875 43.41400391 -75.619375 42.90417969 -74.84375 42.37890625 C-74.17537109 41.9207251 -73.50699219 41.46254395 -72.81835938 40.99047852 C-71 40 -71 40 -68 40 C-68 39.34 -68 38.68 -68 38 C-66.375 36.84375 -66.375 36.84375 -64 35.5 C-59.36301944 32.80819349 -54.79252172 30.03454661 -50.25 27.1875 C-49.56365479 26.75759766 -48.87730957 26.32769531 -48.17016602 25.88476562 C-43.74715012 23.1088099 -39.33404531 20.31770317 -34.9375 17.5 C-34.37861084 17.14196289 -33.81972168 16.78392578 -33.24389648 16.41503906 C-30.09997924 14.3890291 -26.98883808 12.32167187 -23.8984375 10.21484375 C-22.87568726 9.52068359 -22.87568726 9.52068359 -21.83227539 8.8125 C-20.51210397 7.91376853 -19.1959818 7.00905225 -17.88452148 6.09765625 C-13.33237258 3 -13.33237258 3 -10 3 C-10 2.34 -10 1.68 -10 1 C-6.124767 -0.88225603 -4.11530329 -1.27324301 0 0 Z M-21 173 C-21 194.12 -21 215.24 -21 237 C-9.45 237 2.1 237 14 237 C14 215.88 14 194.76 14 173 C2.45 173 -9.1 173 -21 173 Z " fill="#17DDF9" transform="translate(254,122)"/>
<path d="M0 0 C0.33 0.66 0.66 1.32 1 2 C5.455 1.505 5.455 1.505 10 1 C10.77842938 4.40562852 11.09978121 7.50765756 11 11 C11.33 10.34 11.66 9.68 12 9 C62.82 9.33 113.64 9.66 166 10 C166 10.33 166 10.66 166 11 C115.51 11.33 65.02 11.66 13 12 C13 63.15 13 114.3 13 167 C21.25 167.33 29.5 167.66 38 168 C37.98428955 165.77403076 37.9685791 163.54806152 37.95239258 161.25463867 C37.90272121 153.90654628 37.86956087 146.55844654 37.84456348 139.21023083 C37.82889613 134.75424011 37.80763848 130.29842115 37.77368164 125.8425293 C37.74112612 121.5437024 37.72315505 117.24504088 37.71536827 112.94610023 C37.70981789 111.30460315 37.69897951 109.66311529 37.68280983 108.02168846 C37.66108569 105.7254404 37.6580309 103.42987892 37.65942383 101.13354492 C37.65276199 99.82560471 37.64610016 98.51766449 37.63923645 97.17008972 C38 94 38 94 39.39628601 92.11665344 C42.36293905 90.05099625 44.26499178 89.86634968 47.84521484 89.83886719 C49.35720963 89.82445587 49.35720963 89.82445587 50.89974976 89.80975342 C52.53878769 89.8033786 52.53878769 89.8033786 54.2109375 89.796875 C55.3306192 89.79117493 56.4503009 89.78547485 57.60391235 89.77960205 C59.9761663 89.77014335 62.34843344 89.76361463 64.72070312 89.75976562 C68.3530973 89.75005853 71.98492618 89.71904202 75.6171875 89.6875 C77.91926746 89.6809703 80.22135149 89.6757197 82.5234375 89.671875 C83.61208099 89.6595282 84.70072449 89.6471814 85.82235718 89.63446045 C86.83665802 89.63746155 87.85095886 89.64046265 88.89599609 89.64355469 C89.78709076 89.63990906 90.67818542 89.63626343 91.59628296 89.63250732 C94.66007354 90.10091545 95.93332373 90.66743005 98 93 C98.38277791 95.55286054 98.50722555 97.67455355 98.45410156 100.2253418 C98.45468567 100.95729767 98.45526978 101.68925354 98.45587158 102.44338989 C98.45308507 104.86248217 98.42196838 107.28034179 98.390625 109.69921875 C98.38316458 111.37644274 98.37747071 113.05367544 98.37347412 114.73091125 C98.35820201 119.14523386 98.31890698 123.55902995 98.2746582 127.97314453 C98.23373929 132.4774666 98.21547035 136.98187376 98.1953125 141.48632812 C98.15241395 150.32445007 98.08414381 159.16218125 98 168 C98.95577942 167.99555878 99.91155884 167.99111755 100.89630127 167.98654175 C109.9013206 167.94600754 118.90632144 167.9160213 127.91141129 167.89637566 C132.54107718 167.88593613 137.17066945 167.87177381 141.80029297 167.84912109 C146.26769485 167.82739879 150.73502589 167.81543264 155.2024765 167.81024551 C156.90732692 167.80654866 158.61217343 167.79932969 160.31699371 167.78853989 C162.70392756 167.77403308 165.09056826 167.77202171 167.47753906 167.77294922 C168.18316483 167.76575867 168.88879059 167.75856812 169.61579895 167.75115967 C173.20340855 167.76625561 176.04720241 167.83342377 179 170 C180.08053003 173.31362543 180.40781743 175.11239737 178.9375 178.3125 C174.90520938 181.82449506 168.98095298 181.12061332 163.88276672 181.10247803 C162.84307142 181.10080938 162.84307142 181.10080938 161.78237218 181.09910703 C159.4724662 181.09408993 157.16266042 181.0817427 154.8527832 181.06933594 C153.1917635 181.06409993 151.53074246 181.05927337 149.86972046 181.05482483 C145.36792066 181.04120698 140.86617776 181.0207626 136.36441445 180.99825954 C133.55254411 180.9843837 130.74067085 180.97175173 127.92879295 180.9595108 C119.1321843 180.92093723 110.33560948 180.87833926 101.5390504 180.82973552 C91.3808355 180.77361708 81.22267734 180.7306357 71.0643571 180.69905448 C63.2111104 180.67387439 55.35796897 180.63729667 47.5048129 180.59196877 C42.81383607 180.56513637 38.12295457 180.5431537 33.43190956 180.53295135 C29.02493074 180.5230385 24.61825547 180.4990231 20.21140671 180.46401787 C18.59206684 180.45360094 16.9726849 180.44831014 15.35331154 180.44845009 C13.14728854 180.4478611 10.94216196 180.42901452 8.73628235 180.40545654 C7.50057652 180.39954876 6.2648707 180.39364098 4.99171925 180.38755417 C2 180 2 180 0.10195065 178.91159534 C-1.60212033 175.95547915 -1.3713639 173.4013703 -1.36749268 170.00901794 C-1.37076152 169.29324414 -1.37403036 168.57747033 -1.37739825 167.84000641 C-1.38469627 165.43536003 -1.37050582 163.03131841 -1.35644531 160.62670898 C-1.35723594 158.90539445 -1.35933243 157.18408009 -1.36264038 155.46276855 C-1.36778228 150.78312425 -1.35422369 146.10369918 -1.33711338 141.42409015 C-1.32210062 136.53363239 -1.32325197 131.64317775 -1.32244873 126.75270081 C-1.31875411 118.54025519 -1.30377631 110.32789306 -1.28125 102.11547852 C-1.25236663 91.56375041 -1.24202626 81.01208954 -1.2375679 70.46032619 C-1.23359189 61.40150732 -1.22108972 52.34270315 -1.20722103 43.28389478 C-1.20311729 40.3656138 -1.20019409 37.44733335 -1.19742584 34.52905083 C-1.19254122 29.94987609 -1.182352 25.37074234 -1.16798782 20.79158783 C-1.16345597 19.10730675 -1.16062407 17.42302015 -1.15958023 15.73873329 C-1.1578409 13.44711349 -1.14997492 11.15559709 -1.14044189 8.86399841 C-1.13746723 7.57922828 -1.13449257 6.29445814 -1.13142776 4.97075558 C-1 2 -1 2 0 0 Z M51 104 C51 125.12 51 146.24 51 168 C62.55 168 74.1 168 86 168 C86 146.88 86 125.76 86 104 C74.45 104 62.9 104 51 104 Z " fill="#1BC4F7" transform="translate(182,191)"/>
<path d="M0 0 C0.33 0 0.66 0 1 0 C1 56.43 1 112.86 1 171 C4.43826755 172.14608918 7.07299297 172.122976 10.70072937 172.12025452 C11.38524589 172.12110894 12.06976241 172.12196337 12.77502185 172.12284368 C15.07359244 172.12449359 17.3720904 172.1189851 19.6706543 172.11352539 C21.31639606 172.11324339 22.96213795 172.11340151 24.60787964 172.1139679 C29.08071081 172.11425536 33.55351529 172.10836686 38.02634025 172.10139394 C42.69885864 172.09515192 47.37137762 172.09455593 52.04389954 172.09336853 C60.89425577 172.09025773 69.74459969 172.0820477 78.5949505 172.07201904 C88.66979647 172.06085014 98.74464303 172.05534549 108.81949365 172.05032361 C129.54633598 172.03986489 150.27316722 172.02227028 171 172 C171.99 169.03 171.99 169.03 173 166 C148.58 166 124.16 166 99 166 C98.67 165.01 98.34 164.02 98 163 C97.34 163 96.68 163 96 163 C94.75917705 159.27753114 95.57657093 158.53030644 97 155 C97.29291154 152.21015662 97.29291154 152.21015662 97.24291992 149.23510742 C97.24599655 148.100103 97.24907318 146.96509857 97.25224304 145.79570007 C97.24505753 144.57792374 97.23787201 143.3601474 97.23046875 142.10546875 C97.23001053 140.84414627 97.22955231 139.58282379 97.2290802 138.28327942 C97.22606074 135.61604276 97.21926307 132.94915317 97.20581055 130.28198242 C97.18887333 126.88287548 97.1849951 123.48391726 97.18575573 120.08477306 C97.18541634 116.82082384 97.17656213 113.55690515 97.16796875 110.29296875 C97.16685593 109.08126511 97.1657431 107.86956146 97.16459656 106.62113953 C97.1219494 97.76442791 97.1219494 97.76442791 96 89 C93.5583383 87.77916915 91.91309194 87.84269257 89.18310547 87.79467773 C88.18221893 87.77473251 87.1813324 87.75478729 86.15011597 87.73423767 C85.06674957 87.71752518 83.98338318 87.70081268 82.8671875 87.68359375 C81.76021515 87.66281265 80.6532428 87.64203156 79.51272583 87.62062073 C75.96688201 87.55509009 72.42096246 87.49622386 68.875 87.4375 C66.4752525 87.39431813 64.07551273 87.35070395 61.67578125 87.30664062 C55.78393487 87.19940512 49.89201269 87.09764528 44 87 C44 87.66 44 88.32 44 89 C43.01 89.495 43.01 89.495 42 90 C41.84620593 98.94457694 41.69802463 107.88922401 41.5570364 116.83401203 C41.49139515 120.98729358 41.42381054 125.14052467 41.35180664 129.29370117 C41.28240864 133.30067347 41.21808673 137.30769786 41.15730476 141.3148098 C41.1332028 142.84466709 41.10726239 144.37449653 41.07946587 145.90429115 C41.04088774 148.04462965 41.00880842 150.18497325 40.97827148 152.32543945 C40.95828598 153.54455521 40.93830048 154.76367096 40.91770935 156.01972961 C40.85741325 159.05544376 40.85741325 159.05544376 42 162 C41.67 162.66 41.34 163.32 41 164 C31.76 164 22.52 164 13 164 C13 163.67 13 163.34 13 163 C21.58 163 30.16 163 39 163 C38.98428955 160.77403076 38.9685791 158.54806152 38.95239258 156.25463867 C38.90272121 148.90654628 38.86956087 141.55844654 38.84456348 134.21023083 C38.82889613 129.75424011 38.80763848 125.29842115 38.77368164 120.8425293 C38.74112612 116.5437024 38.72315505 112.24504088 38.71536827 107.94610023 C38.70981789 106.30460315 38.69897951 104.66311529 38.68280983 103.02168846 C38.66108569 100.7254404 38.6580309 98.42987892 38.65942383 96.13354492 C38.65276199 94.82560471 38.64610016 93.51766449 38.63923645 92.17008972 C39 89 39 89 40.39628601 87.11665344 C43.36293905 85.05099625 45.26499178 84.86634968 48.84521484 84.83886719 C50.35720963 84.82445587 50.35720963 84.82445587 51.89974976 84.80975342 C53.53878769 84.8033786 53.53878769 84.8033786 55.2109375 84.796875 C56.3306192 84.79117493 57.4503009 84.78547485 58.60391235 84.77960205 C60.9761663 84.77014335 63.34843344 84.76361463 65.72070312 84.75976562 C69.3530973 84.75005853 72.98492618 84.71904202 76.6171875 84.6875 C78.91926746 84.6809703 81.22135149 84.6757197 83.5234375 84.671875 C84.61208099 84.6595282 85.70072449 84.6471814 86.82235718 84.63446045 C87.83665802 84.63746155 88.85095886 84.64046265 89.89599609 84.64355469 C90.78709076 84.63990906 91.67818542 84.63626343 92.59628296 84.63250732 C95.66007354 85.10091545 96.93332373 85.66743005 99 88 C99.38277791 90.55286054 99.50722555 92.67455355 99.45410156 95.2253418 C99.45468567 95.95729767 99.45526978 96.68925354 99.45587158 97.44338989 C99.45308507 99.86248217 99.42196838 102.28034179 99.390625 104.69921875 C99.38316458 106.37644274 99.37747071 108.05367544 99.37347412 109.73091125 C99.35820201 114.14523386 99.31890698 118.55902995 99.2746582 122.97314453 C99.23373929 127.4774666 99.21547035 131.98187376 99.1953125 136.48632812 C99.15241395 145.32445007 99.08414381 154.16218125 99 163 C99.95577942 162.99555878 100.91155884 162.99111755 101.89630127 162.98654175 C110.9013206 162.94600754 119.90632144 162.9160213 128.91141129 162.89637566 C133.54107718 162.88593613 138.17066945 162.87177381 142.80029297 162.84912109 C147.26769485 162.82739879 151.73502589 162.81543264 156.2024765 162.81024551 C157.90732692 162.80654866 159.61217343 162.79932969 161.31699371 162.78853989 C163.70392756 162.77403308 166.09056826 162.77202171 168.47753906 162.77294922 C169.18316483 162.76575867 169.88879059 162.75856812 170.61579895 162.75115967 C174.20340855 162.76625561 177.04720241 162.83342377 180 165 C181.08053003 168.31362543 181.40781743 170.11239737 179.9375 173.3125 C175.90520938 176.82449506 169.98095298 176.12061332 164.88276672 176.10247803 C163.84307142 176.10080938 163.84307142 176.10080938 162.78237218 176.09910703 C160.4724662 176.09408993 158.16266042 176.0817427 155.8527832 176.06933594 C154.1917635 176.06409993 152.53074246 176.05927337 150.86972046 176.05482483 C146.36792066 176.04120698 141.86617776 176.0207626 137.36441445 175.99825954 C134.55254411 175.9843837 131.74067085 175.97175173 128.92879295 175.9595108 C120.1321843 175.92093723 111.33560948 175.87833926 102.5390504 175.82973552 C92.3808355 175.77361708 82.22267734 175.7306357 72.0643571 175.69905448 C64.2111104 175.67387439 56.35796897 175.63729667 48.5048129 175.59196877 C43.81383607 175.56513637 39.12295457 175.5431537 34.43190956 175.53295135 C30.02493074 175.5230385 25.61825547 175.4990231 21.21140671 175.46401787 C19.59206684 175.45360094 17.9726849 175.44831014 16.35331154 175.44845009 C14.14728854 175.4478611 11.94216196 175.42901452 9.73628235 175.40545654 C8.50057652 175.39954876 7.2648707 175.39364098 5.99171925 175.38755417 C3 175 3 175 1.10153008 173.90531826 C-0.59130403 170.97722051 -0.36811316 168.47312398 -0.36076355 165.10945129 C-0.36332682 164.40451701 -0.3658901 163.69958273 -0.36853105 162.97328681 C-0.3734821 160.60541408 -0.35695488 158.23817555 -0.34057617 155.87036133 C-0.33973018 154.17535924 -0.34020449 152.48035606 -0.34190369 150.78535461 C-0.34276616 146.17814533 -0.32509961 141.57116927 -0.30418181 136.96401429 C-0.28545704 132.1513704 -0.28366789 127.33872145 -0.28010559 122.52604675 C-0.27077276 113.41002498 -0.24614225 104.29411085 -0.21605712 95.17813653 C-0.1825516 84.80101233 -0.16603679 74.42388305 -0.15097082 64.04671824 C-0.11959376 42.69775203 -0.06680923 21.34888279 0 0 Z " fill="#3994CE" transform="translate(181,196)"/>
<path d="M0 0 C2.79256913 1.53192148 5.42038306 3.28633652 8.0625 5.0625 C8.81039795 5.55911133 9.5582959 6.05572266 10.32885742 6.56738281 C11.84132229 7.57191467 13.35216713 8.57889026 14.86132812 9.58837891 C16.76894982 10.84749633 18.69389488 12.06435982 20.640625 13.26171875 C26.577555 16.98326724 30.01967799 19.65061832 33 26 C34.485 26.495 34.485 26.495 36 27 C36 27.99 36 28.98 36 30 C31.89951993 31.62112003 29.26246425 32.33963162 25 31 C24.67 30.67 24.34 30.34 24 30 C22.515 29.505 22.515 29.505 21 29 C21 28.34 21 27.68 21 27 C19.68 27 18.36 27 17 27 C17 26.34 17 25.68 17 25 C16.11699219 25.06960937 15.23398437 25.13921875 14.32421875 25.2109375 C10.40752209 24.96240446 8.90396199 23.97355252 5.8125 21.625 C4.97332031 20.99851563 4.13414062 20.37203125 3.26953125 19.7265625 C2.52058594 19.15679687 1.77164063 18.58703125 1 18 C-1.80848217 15.68959634 -1.80848217 15.68959634 -4.9375 16.1875 C-8.0350598 17.00930158 -9.53463911 18.04471378 -12 20 C-12.99 20 -13.98 20 -15 20 C-15 20.66 -15 21.32 -15 22 C-15.99 22 -16.98 22 -18 22 C-18 22.66 -18 23.32 -18 24 C-19.98 24.66 -21.96 25.32 -24 26 C-24 26.66 -24 27.32 -24 28 C-25.91282125 28.84212256 -27.83042473 29.67338864 -29.75 30.5 C-30.81734375 30.9640625 -31.8846875 31.428125 -32.984375 31.90625 C-36 33 -36 33 -40 33 C-40 33.66 -40 34.32 -40 35 C-41.65 34.67 -43.3 34.34 -45 34 C-44.01 33.505 -44.01 33.505 -43 33 C-43.7763932 29.9254644 -43.7763932 29.9254644 -46 28 C-44.71034824 26.62437146 -43.37310707 25.29233607 -42 24 C-41.34 24 -40.68 24 -40 24 C-40 23.34 -40 22.68 -40 22 C-39.34 22 -38.68 22 -38 22 C-38 21.01 -38 20.02 -38 19 C-36.33984375 17.74609375 -36.33984375 17.74609375 -33.9375 16.4375 C-28.44327889 13.32830611 -23.2672965 9.85799644 -18.09155273 6.25170898 C-13.32574146 3 -13.32574146 3 -10 3 C-10 2.34 -10 1.68 -10 1 C-6.124767 -0.88225603 -4.11530329 -1.27324301 0 0 Z " fill="#0FEDF2" transform="translate(254,122)"/>
<path d="M0 0 C3.61941735 1.50239966 6.7321794 2.82145293 10 5 C10 5.66 10 6.32 10 7 C10.59063232 7.12511963 11.18126465 7.25023926 11.78979492 7.37915039 C15.32766615 8.37294322 18.24350128 10.47298738 21.3125 12.4375 C22.01890625 12.88416016 22.7253125 13.33082031 23.453125 13.79101562 C28.80501852 17.19199609 34.08360394 20.69764613 39.34179688 24.24121094 C43.93704787 27.32645569 48.60526758 30.27650669 53.3125 33.1875 C59.35673378 36.92576525 65.246313 40.82304453 71 45 C70.01 45.99 70.01 45.99 69 47 C66.875 46.625 66.875 46.625 65 46 C65 45.01 65 44.02 65 43 C63.68 43 62.36 43 61 43 C61 42.34 61 41.68 61 41 C60.34 41 59.68 41 59 41 C59 40.34 59 39.68 59 39 C56.69 39 54.38 39 52 39 C51.505 39.99 51.505 39.99 51 41 C51.66 41.33 52.32 41.66 53 42 C51.02 42.99 51.02 42.99 49 44 C50.485 44.495 50.485 44.495 52 45 C51.67 46.32 51.34 47.64 51 49 C50.67 48.34 50.34 47.68 50 47 C48.8553125 46.814375 48.8553125 46.814375 47.6875 46.625 C44.34240844 45.84707173 43.38569311 44.41679153 41 42 C38.97977603 40.60999792 38.97977603 40.60999792 36.75 39.375 C25.31075822 32.68006803 14.17449774 25.50742966 3.07202148 18.27163696 C1.9071682 17.51253067 0.74181029 16.75419811 -0.42407227 15.99667358 C-2.08011584 14.91985944 -3.73345852 13.83889512 -5.38671875 12.7578125 C-6.34795654 12.1302002 -7.30919434 11.50258789 -8.29956055 10.85595703 C-10.97407566 9.01781727 -13.49293518 7.05907971 -16 5 C-14.68 5 -13.36 5 -12 5 C-12 5.66 -12 6.32 -12 7 C-10.68 7 -9.36 7 -8 7 C-6.25 8.5 -6.25 8.5 -5 10 C-4.67 9.01 -4.34 8.02 -4 7 C-3.67 8.32 -3.34 9.64 -3 11 C0.5219721 11.08004482 3.61981469 11.04005702 7 10 C7 9.01 7 8.02 7 7 C6.01 7.33 5.02 7.66 4 8 C0 2.25 0 2.25 0 0 Z " fill="#18D7EB" transform="translate(283,142)"/>
<path d="M0 0 C0.495 0.99 0.495 0.99 1 2 C0.34 2 -0.32 2 -1 2 C-1 2.66 -1 3.32 -1 4 C-1.66 4 -2.32 4 -3 4 C-3.33 4.99 -3.66 5.98 -4 7 C-4.66 7.33 -5.32 7.66 -6 8 C-5.34 8.66 -4.68 9.32 -4 10 C-3.7525 11.0209375 -3.7525 11.0209375 -3.5 12.0625 C-3.2525 13.0215625 -3.2525 13.0215625 -3 14 C-2.34 14.33 -1.68 14.66 -1 15 C-1 14.34 -1 13.68 -1 13 C1.64 12.34 4.28 11.68 7 11 C3.76347838 14.42346872 0.68805999 17.00395403 -3.375 19.375 C-10.0000313 23.34545504 -16.47425511 27.52156629 -22.9375 31.75 C-23.93249512 32.4001709 -24.92749023 33.0503418 -25.95263672 33.72021484 C-26.90541504 34.3436377 -27.85819336 34.96706055 -28.83984375 35.609375 C-29.7407373 36.19783203 -30.64163086 36.78628906 -31.56982422 37.39257812 C-33.57151312 38.71658051 -35.53903061 40.07583613 -37.50390625 41.453125 C-40 43 -40 43 -43 43 C-43 43.66 -43 44.32 -43 45 C-44.98 45.66 -46.96 46.32 -49 47 C-49 46.34 -49 45.68 -49 45 C-48.34 45 -47.68 45 -47 45 C-47 43.68 -47 42.36 -47 41 C-47.99 40.34 -48.98 39.68 -50 39 C-45.25 35 -45.25 35 -43 35 C-42.67 33.68 -42.34 32.36 -42 31 C-43.32 31.33 -44.64 31.66 -46 32 C-46 32.99 -46 33.98 -46 35 C-49.4019487 37.09350689 -52.05272412 37.17942163 -56 37 C-52.11375881 32.82545026 -47.21663829 29.96008258 -42.5 26.8125 C-41.53707031 26.15830078 -40.57414063 25.50410156 -39.58203125 24.83007812 C-38.19564453 23.90291992 -38.19564453 23.90291992 -36.78125 22.95703125 C-35.93626953 22.38960205 -35.09128906 21.82217285 -34.22070312 21.23754883 C-32 20 -32 20 -29 20 C-29 19.34 -29 18.68 -29 18 C-27.375 16.84375 -27.375 16.84375 -25 15.5 C-20.12606613 12.67493647 -15.33444963 9.74272497 -10.5625 6.75 C-9.51545898 6.09547852 -9.51545898 6.09547852 -8.44726562 5.42773438 C-5.60729593 3.64964235 -2.78837971 1.85891981 0 0 Z " fill="#12F3FA" transform="translate(215,142)"/>
<path d="M0 0 C6.83823802 2.54625506 12.6284558 6.48105091 18.6875 10.5 C19.71939453 11.17675781 20.75128906 11.85351562 21.81445312 12.55078125 C31.48666789 18.91523665 31.48666789 18.91523665 34 21 C34.52799676 23.76142303 34.18598981 26.16365545 34 29 C33.34 29 32.68 29 32 29 C32 29.66 32 30.32 32 31 C29.18609643 32.23811757 27.95107499 31.98369166 25 31 C19.48992879 28.40773455 14.03025182 25.42783991 9 22 C9 21.34 9 20.68 9 20 C8.071875 19.71125 7.14375 19.4225 6.1875 19.125 C3 18 3 18 0 16 C-0.00213753 16.94507416 -0.00213753 16.94507416 -0.00431824 17.90924072 C-0.02399507 24.46321219 -0.07822546 31.01624977 -0.15258789 37.56982422 C-0.17579405 40.01604514 -0.1901697 42.46236635 -0.19555664 44.90869141 C-0.20482659 48.42414031 -0.24577761 51.93800606 -0.29296875 55.453125 C-0.28706978 57.0955014 -0.28706978 57.0955014 -0.28105164 58.77105713 C-0.42658096 66.33350858 -0.42658096 66.33350858 -3.3449707 69.72558594 C-6.74355739 71.35690755 -8.45201644 71.18266119 -12 70 C-14.28458499 66.57312252 -14.24451452 65.36059689 -14.22705078 61.33520508 C-14.22689972 60.17422806 -14.22674866 59.01325104 -14.22659302 57.8170929 C-14.21627045 56.56389755 -14.20594788 55.31070221 -14.1953125 54.01953125 C-14.1924826 52.73640549 -14.18965271 51.45327972 -14.18673706 50.13127136 C-14.17910797 46.72323798 -14.15946587 43.31537559 -14.1373291 39.90740967 C-14.11685497 36.42853102 -14.107732 32.94962468 -14.09765625 29.47070312 C-14.07621918 22.64706526 -14.04209205 15.82354084 -14 9 C-13.34 9 -12.68 9 -12 9 C-12 28.14 -12 47.28 -12 67 C-11.34 67 -10.68 67 -10 67 C-10 66.34 -10 65.68 -10 65 C-9.01 65.33 -8.02 65.66 -7 66 C-5.68 66.33 -4.36 66.66 -3 67 C-3 49.51 -3 32.02 -3 14 C-1.35 13.67 0.3 13.34 2 13 C2.99 12.67 3.98 12.34 5 12 C5.33 10.02 5.66 8.04 6 6 C5.01 6 4.02 6 3 6 C3 5.34 3 4.68 3 4 C1.68 3.67 0.36 3.34 -1 3 C-0.67 2.01 -0.34 1.02 0 0 Z " fill="#1FC4ED" transform="translate(362,193)"/>
<path d="M0 0 C0.66 0 1.32 0 2 0 C2 0.66 2 1.32 2 2 C2.66 2.33 3.32 2.66 4 3 C3.39671875 3.31453125 2.7934375 3.6290625 2.171875 3.953125 C1.37265625 4.38109375 0.5734375 4.8090625 -0.25 5.25 C-1.03890625 5.66765625 -1.8278125 6.0853125 -2.640625 6.515625 C-5.2713617 8.17072425 -7.03892083 9.57415427 -9 12 C-9.57959426 15.14163761 -9.57959426 15.14163761 -9.45410156 18.71141052 C-9.454697 19.38508653 -9.45529243 20.05876254 -9.45590591 20.75285298 C-9.45312863 23.00949227 -9.42176938 25.26482753 -9.390625 27.52124023 C-9.38294798 29.13930529 -9.37709293 30.75737987 -9.3729248 32.37545776 C-9.360279 35.85962442 -9.33520345 39.34340352 -9.30065918 42.82742119 C-9.24659738 48.33609501 -9.22299916 53.84463965 -9.20410156 59.35353088 C-9.15590651 72.04292818 -9.06770236 84.73198925 -8.97918701 97.42115784 C-8.8984843 109.04800295 -8.82619901 120.6747351 -8.78632736 132.30180126 C-8.76639036 137.77838209 -8.72694218 143.25437186 -8.67260742 148.73071468 C-8.64277325 152.13759819 -8.62950735 155.54440031 -8.6207428 158.95139694 C-8.61325327 160.53126835 -8.59884606 162.11112439 -8.57701111 163.69086266 C-8.54813256 165.84815583 -8.54399595 168.00415197 -8.54589844 170.16160583 C-8.53701599 171.36856833 -8.52813354 172.57553083 -8.51898193 173.81906796 C-9.09864757 177.6523481 -10.24691277 179.31240439 -13 182 C-16 182.5625 -16 182.5625 -19 182 C-21.88572377 179.81949293 -22.89243214 178.64684695 -23.49219131 175.04026413 C-23.48850414 173.87880497 -23.48481697 172.71734581 -23.48101807 171.52069092 C-23.48443577 170.87207195 -23.48785347 170.22345297 -23.49137473 169.55517888 C-23.49795891 167.38366576 -23.47597113 165.21339123 -23.45410156 163.04199219 C-23.45297319 161.48477203 -23.45360675 159.92754973 -23.45587158 158.37033081 C-23.45702006 154.14324353 -23.43348928 149.91660951 -23.40557575 145.68962765 C-23.38058435 141.27205129 -23.37822189 136.85446475 -23.37347412 132.43682861 C-23.36103768 124.07161004 -23.32820706 115.70660037 -23.28807616 107.34147382 C-23.24337922 97.81801256 -23.22137665 88.29454136 -23.20129442 78.77100134 C-23.15947499 59.18055093 -23.08910996 39.59028862 -23 20 C-22.67 20 -22.34 20 -22 20 C-21.99668985 20.72923235 -21.99337971 21.4584647 -21.98996925 22.209795 C-21.9085196 40.00674204 -21.81635651 57.80360464 -21.71247292 75.60043526 C-21.66248888 84.20707574 -21.61604514 92.81370737 -21.578125 101.42041016 C-21.54503972 108.92766233 -21.50511907 116.4348428 -21.45720994 123.94201553 C-21.43210814 127.91186219 -21.41028008 131.8816623 -21.39665604 135.85156631 C-21.38368576 139.599356 -21.36147574 143.34698467 -21.33261681 147.0946846 C-21.31943137 149.10298785 -21.31564872 151.1113462 -21.31230164 153.11968994 C-21.23545574 161.5927041 -20.40099161 169.64610981 -19 178 C-18.34 178 -17.68 178 -17 178 C-16.505 177.01 -16.505 177.01 -16 176 C-13.9375 174.875 -13.9375 174.875 -12 174 C-12.00184359 173.15755328 -12.00368717 172.31510656 -12.00558662 171.44713116 C-12.04971787 150.96696464 -12.08283327 130.48680631 -12.10362434 110.00660229 C-12.11394548 100.10261009 -12.12802179 90.19864959 -12.15087891 80.29467773 C-12.17078717 71.66434166 -12.18371034 63.03402853 -12.18817699 54.40367013 C-12.19078872 49.8321917 -12.19694477 45.26077894 -12.21146011 40.68932152 C-12.22500355 36.38924306 -12.22922923 32.08925753 -12.22621536 27.78915977 C-12.22676698 26.20849605 -12.23076368 24.62782931 -12.23841095 23.04718399 C-12.24832166 20.89361997 -12.24598325 18.74040951 -12.24050903 16.58683777 C-12.24235262 15.38021075 -12.24419621 14.17358374 -12.24609566 12.93039227 C-12 10 -12 10 -10 7 C-9.34 7 -8.68 7 -8 7 C-8 6.34 -8 5.68 -8 5 C-7.01 4.67 -6.02 4.34 -5 4 C-5 3.67 -5 3.34 -5 3 C-3.35 3 -1.7 3 0 3 C0 2.01 0 1.02 0 0 Z " fill="#35A3B3" transform="translate(162,188)"/>
<path d="M0 0 C2.79256913 1.53192148 5.42038306 3.28633652 8.0625 5.0625 C8.81039795 5.55911133 9.5582959 6.05572266 10.32885742 6.56738281 C11.84132229 7.57191467 13.35216713 8.57889026 14.86132812 9.58837891 C16.76894982 10.84749633 18.69389488 12.06435982 20.640625 13.26171875 C26.577555 16.98326724 30.01967799 19.65061832 33 26 C33.99 26.33 34.98 26.66 36 27 C36 27.99 36 28.98 36 30 C31.89951993 31.62112003 29.26246425 32.33963162 25 31 C24.67 30.67 24.34 30.34 24 30 C23.01 29.67 22.02 29.34 21 29 C21 28.34 21 27.68 21 27 C19.68 27 18.36 27 17 27 C17 26.34 17 25.68 17 25 C15.67548828 25.10248047 15.67548828 25.10248047 14.32421875 25.20703125 C10.42716818 24.96432422 8.90524273 24.00346083 5.8125 21.6875 C4.97332031 21.07261719 4.13414062 20.45773438 3.26953125 19.82421875 C1.3754536 18.30178457 -0.33391771 16.76376789 -2 15 C1.465 14.505 1.465 14.505 5 14 C5 13.34 5 12.68 5 12 C5.66 12 6.32 12 7 12 C6.67 11.01 6.34 10.02 6 9 C6.33 8.34 6.66 7.68 7 7 C5.68 7 4.36 7 3 7 C3 6.34 3 5.68 3 5 C2.34 5 1.68 5 1 5 C1 4.34 1 3.68 1 3 C-2.63 3 -6.26 3 -10 3 C-10 2.34 -10 1.68 -10 1 C-6.124767 -0.88225603 -4.11530329 -1.27324301 0 0 Z " fill="#15E0E9" transform="translate(254,122)"/>
<path d="M0 0 C0.495 1.485 0.495 1.485 1 3 C0.34 3 -0.32 3 -1 3 C-1.33 3.99 -1.66 4.98 -2 6 C-7.22222222 9 -7.22222222 9 -10 9 C-10 10.65 -10 12.3 -10 14 C-9.01 14 -8.02 14 -7 14 C-7 14.99 -7 15.98 -7 17 C-6.34 17 -5.68 17 -5 17 C-4.67 16.01 -4.34 15.02 -4 14 C-1.525 14.495 -1.525 14.495 1 15 C1 14.34 1 13.68 1 13 C1.99 13.33 2.98 13.66 4 14 C3.34 14 2.68 14 2 14 C2 14.66 2 15.32 2 16 C-0.51261908 17.71287809 -3.02172654 19.31121226 -5.625 20.875 C-7.05519416 21.74656498 -8.48488922 22.61894952 -9.9140625 23.4921875 C-10.60790039 23.91209961 -11.30173828 24.33201172 -12.01660156 24.76464844 C-13.83419537 25.89672927 -15.58380934 27.09046373 -17.3359375 28.3203125 C-20 30 -20 30 -23 30 C-23 30.66 -23 31.32 -23 32 C-28.75 33.125 -28.75 33.125 -31 32 C-31 31.34 -31 30.68 -31 30 C-31.99 29.67 -32.98 29.34 -34 29 C-34.18646932 26.01649094 -34.2050604 24.68125939 -33 22 C-28.74002932 18.03430361 -23.88016917 13.97770034 -18 13 C-18 12.34 -18 11.68 -18 11 C-16.17248549 9.79939985 -14.28512159 8.68927699 -12.375 7.625 C-8.12840398 5.22060344 -4.0067139 2.78244021 0 0 Z " fill="#18D5DD" transform="translate(137,192)"/>
<path d="M0 0 C0.33 0 0.66 0 1 0 C1 56.43 1 112.86 1 171 C3.78696017 171.92898672 5.41540094 172.12009785 8.28881836 172.10679626 C9.16367889 172.10528061 10.03853943 172.10376495 10.93991089 172.10220337 C11.89688873 172.095466 12.85386658 172.08872864 13.83984375 172.08178711 C15.35482956 172.07718727 15.35482956 172.07718727 16.90042114 172.07249451 C19.0955789 172.06533541 21.29073024 172.05594332 23.48587036 172.04459953 C26.956649 172.02724802 30.42738186 172.01692271 33.89819336 172.00868225 C43.76713394 171.98419107 53.63601277 171.94858822 63.50488281 171.90405273 C69.5383361 171.87731774 75.57175373 171.86024383 81.60525513 171.84918404 C83.90822672 171.8429622 86.21119121 171.83294201 88.51412964 171.81910515 C91.72951826 171.79995682 94.94471842 171.79300241 98.16015625 171.78881836 C99.11713409 171.78005676 100.07411194 171.77129517 101.06008911 171.76226807 C101.93494965 171.76357224 102.80981018 171.7648764 103.71118164 171.76622009 C104.47145157 171.76307769 105.2317215 171.75993528 106.01502991 171.75669765 C108 172 108 172 111 174 C108.219287 174.92690433 106.54451407 175.12931547 103.67321777 175.14044189 C102.78994308 175.14615204 101.9066684 175.15186218 100.99662781 175.15774536 C100.03029922 175.15886322 99.06397064 175.15998108 98.06835938 175.16113281 C97.04861526 175.16609772 96.02887115 175.17106262 94.97822571 175.17617798 C91.60006032 175.19080104 88.22194185 175.1976008 84.84375 175.203125 C82.50109861 175.208875 80.15844725 175.21463275 77.8157959 175.22039795 C72.90307394 175.23090743 67.99036834 175.23675089 63.07763672 175.24023438 C56.77228284 175.24572817 50.46714392 175.26977544 44.1618576 175.29820633 C39.32354084 175.31679475 34.48527634 175.32203622 29.64692688 175.32357025 C27.32162802 175.32660438 24.99633024 175.33465829 22.67106628 175.34775543 C19.42442246 175.36474132 16.1783104 175.3629542 12.93164062 175.35644531 C11.96531204 175.3656601 10.99898346 175.37487488 10.00337219 175.3843689 C9.1200975 175.37879974 8.23682281 175.37323059 7.32678223 175.36749268 C6.55913795 175.36895924 5.79149368 175.3704258 5.00058746 175.3719368 C3 175 3 175 1.25212383 173.907691 C-0.65473368 171.00247123 -0.36830246 168.55975802 -0.36076355 165.10945129 C-0.36332682 164.40451701 -0.3658901 163.69958273 -0.36853105 162.97328681 C-0.3734821 160.60541408 -0.35695488 158.23817555 -0.34057617 155.87036133 C-0.33973018 154.17535924 -0.34020449 152.48035606 -0.34190369 150.78535461 C-0.34276616 146.17814533 -0.32509961 141.57116927 -0.30418181 136.96401429 C-0.28545704 132.1513704 -0.28366789 127.33872145 -0.28010559 122.52604675 C-0.27077276 113.41002498 -0.24614225 104.29411085 -0.21605712 95.17813653 C-0.1825516 84.80101233 -0.16603679 74.42388305 -0.15097082 64.04671824 C-0.11959376 42.69775203 -0.06680923 21.34888279 0 0 Z " fill="#39A5DC" transform="translate(181,196)"/>
<path d="M0 0 C0.495 0.99 0.495 0.99 1 2 C0.34 2 -0.32 2 -1 2 C-1.0928125 3.0209375 -1.0928125 3.0209375 -1.1875 4.0625 C-2.28538855 8.03178937 -4.49023975 10.78639555 -7 14 C-6.01 13.67 -5.02 13.34 -4 13 C-3.67 13.99 -3.34 14.98 -3 16 C-2.01 16.33 -1.02 16.66 0 17 C-2.76357364 18.84446354 -5.53697355 20.67358243 -8.3125 22.5 C-9.09818359 23.02464844 -9.88386719 23.54929688 -10.69335938 24.08984375 C-11.45068359 24.58613281 -12.20800781 25.08242187 -12.98828125 25.59375 C-13.68477783 26.05458984 -14.38127441 26.51542969 -15.09887695 26.99023438 C-17 28 -17 28 -20 28 C-20 28.66 -20 29.32 -20 30 C-21.98 30.66 -23.96 31.32 -26 32 C-26 31.34 -26 30.68 -26 30 C-25.34 30 -24.68 30 -24 30 C-24 28.68 -24 27.36 -24 26 C-24.99 25.34 -25.98 24.68 -27 24 C-22.25 20 -22.25 20 -20 20 C-19.67 18.68 -19.34 17.36 -19 16 C-20.32 16.33 -21.64 16.66 -23 17 C-23 17.99 -23 18.98 -23 20 C-26.4019487 22.09350689 -29.05272412 22.17942163 -33 22 C-29.11375881 17.82545026 -24.21663829 14.96008258 -19.5 11.8125 C-18.53707031 11.15830078 -17.57414063 10.50410156 -16.58203125 9.83007812 C-15.65777344 9.21197266 -14.73351562 8.59386719 -13.78125 7.95703125 C-12.93626953 7.38960205 -12.09128906 6.82217285 -11.22070312 6.23754883 C-9 5 -9 5 -6 5 C-6 4.34 -6 3.68 -6 3 C-4.02 2.01 -2.04 1.02 0 0 Z " fill="#13E8EE" transform="translate(192,157)"/>
<path d="M0 0 C1.39136534 0.04232649 2.78256436 0.09034885 4.17358398 0.14282227 C5.27016579 0.17823875 5.27016579 0.17823875 6.38890076 0.21437073 C8.7326823 0.29117936 11.07614756 0.37512882 13.41967773 0.45922852 C15.00494852 0.51243203 16.59023491 0.56517253 18.17553711 0.61743164 C22.06961905 0.74681756 25.96343184 0.88260983 29.85717773 1.02172852 C29.85717773 1.35172852 29.85717773 1.68172852 29.85717773 2.02172852 C19.29717773 2.02172852 8.73717773 2.02172852 -2.14282227 2.02172852 C-2.14282227 23.14172852 -2.14282227 44.26172852 -2.14282227 66.02172852 C9.40717773 66.02172852 20.95717773 66.02172852 32.85717773 66.02172852 C32.52717773 44.57172852 32.19717773 23.12172852 31.85717773 1.02172852 C32.51717773 1.02172852 33.17717773 1.02172852 33.85717773 1.02172852 C33.88223389 2.32207031 33.90729004 3.62241211 33.93310547 4.9621582 C34.02806672 9.83772785 34.12806194 14.71318405 34.22949219 19.58862305 C34.27250869 21.68918178 34.31420331 23.78976804 34.35449219 25.89038086 C33.92255764 43.68582599 33.92255764 43.68582599 36.85717773 61.02172852 C36.29858398 63.06469727 36.29858398 63.06469727 35.41967773 65.20922852 C35.1322168 65.9246582 34.84475586 66.64008789 34.54858398 67.37719727 C34.32041992 67.91989258 34.09225586 68.46258789 33.85717773 69.02172852 C28.92758651 69.07115751 23.99813948 69.10746169 19.06835938 69.1315918 C17.39125048 69.14165088 15.71415913 69.15529973 14.03710938 69.17260742 C11.62682771 69.19686003 9.21677788 69.20821241 6.80639648 69.21704102 C5.68124886 69.23252487 5.68124886 69.23252487 4.53337097 69.24832153 C0.75416994 69.24913651 -0.91696625 69.17229919 -4.14282227 67.02172852 C-4.51031494 64.28233337 -4.51031494 64.28233337 -4.49926758 60.75195312 C-4.50226868 59.43396225 -4.50526978 58.11597137 -4.50836182 56.75804138 C-4.49635698 55.31338106 -4.48387404 53.86872464 -4.47094727 52.42407227 C-4.46789066 50.949592 -4.46601379 49.47510886 -4.465271 48.00062561 C-4.46066507 44.9094845 -4.44622728 41.81860349 -4.42407227 38.72753906 C-4.39576483 34.75706481 -4.38485872 30.7867954 -4.38039017 26.81622982 C-4.37624186 23.77171258 -4.36642976 20.72723713 -4.35451508 17.68274117 C-4.34880173 16.21825052 -4.34404656 14.75375582 -4.34024811 13.28925896 C-4.33340517 11.2468514 -4.31887866 9.20447388 -4.30395508 7.16210938 C-4.29712708 5.99787949 -4.29029907 4.8336496 -4.28326416 3.63414001 C-4.07795202 -0.1849468 -3.89951721 0.02696007 0 0 Z " fill="#2A9DD2" transform="translate(235.142822265625,292.978271484375)"/>
<path d="M0 0 C1.02090729 0.00007553 2.04181458 0.00015106 3.09365845 0.00022888 C4.75151871 0.00797081 4.75151871 0.00797081 6.44287109 0.01586914 C7.57203949 0.01728409 8.70120789 0.01869904 9.86459351 0.02015686 C13.48185848 0.02576796 17.09906223 0.03832237 20.71630859 0.05102539 C23.16422437 0.05603896 25.61214111 0.06060211 28.06005859 0.06469727 C34.07049625 0.07574099 40.08089805 0.09248996 46.09130859 0.11352539 C45.76130859 1.10352539 45.43130859 2.09352539 45.09130859 3.11352539 C20.34130859 2.61852539 20.34130859 2.61852539 -4.90869141 2.11352539 C-4.90869141 2.77352539 -4.90869141 3.43352539 -4.90869141 4.11352539 C-5.89869141 4.60852539 -5.89869141 4.60852539 -6.90869141 5.11352539 C-7.06248548 14.05810233 -7.21066677 23.0027494 -7.35165501 31.94753742 C-7.41729626 36.10081897 -7.48488087 40.25405006 -7.55688477 44.40722656 C-7.62628277 48.41419886 -7.69060468 52.42122326 -7.75138664 56.42833519 C-7.77548861 57.95819248 -7.80142902 59.48802193 -7.82922554 61.01781654 C-7.86780367 63.15815504 -7.89988299 65.29849864 -7.93041992 67.43896484 C-7.96039818 69.26763847 -7.96039818 69.26763847 -7.99098206 71.133255 C-8.05127816 74.16896915 -8.05127816 74.16896915 -6.90869141 77.11352539 C-7.23869141 77.77352539 -7.56869141 78.43352539 -7.90869141 79.11352539 C-17.14869141 79.11352539 -26.38869141 79.11352539 -35.90869141 79.11352539 C-35.90869141 78.78352539 -35.90869141 78.45352539 -35.90869141 78.11352539 C-27.32869141 78.11352539 -18.74869141 78.11352539 -9.90869141 78.11352539 C-9.92440186 75.88755615 -9.9401123 73.66158691 -9.95629883 71.36816406 C-10.00597019 64.02007167 -10.03913054 56.67197193 -10.06412792 49.32375622 C-10.07979528 44.8677655 -10.10105293 40.41194654 -10.13500977 35.95605469 C-10.16756528 31.65722779 -10.18553636 27.35856627 -10.19332314 23.05962563 C-10.19887352 21.41812854 -10.2097119 19.77664068 -10.22588158 18.13521385 C-10.24760572 15.83896579 -10.25066051 13.54340431 -10.24926758 11.24707031 C-10.25592941 9.9391301 -10.26259125 8.63118988 -10.26945496 7.28361511 C-9.90869141 4.11352539 -9.90869141 4.11352539 -8.5124054 2.23017883 C-5.51353838 0.1420913 -3.61984789 -0.00891588 0 0 Z " fill="#289BBE" transform="translate(229.90869140625,280.886474609375)"/>
<path d="M0 0 C0.66 0 1.32 0 2 0 C2 19.14 2 38.28 2 58 C2.66 58 3.32 58 4 58 C4 57.34 4 56.68 4 56 C4.99 56.33 5.98 56.66 7 57 C8.33106622 57.34227417 9.66400079 57.67751743 11 58 C10.98839844 56.91589844 10.97679687 55.83179688 10.96484375 54.71484375 C10.85453393 38.7957573 11.42249913 22.90584842 12 7 C12.33 7 12.66 7 13 7 C13.12670151 14.18975017 13.21430998 21.37921288 13.2746582 28.56982422 C13.29981355 31.01622272 13.33394166 33.46254599 13.37719727 35.90869141 C13.43780071 39.42369131 13.46620021 42.93769829 13.48828125 46.453125 C13.51408768 47.5480426 13.5398941 48.64296021 13.56648254 49.77105713 C13.56928081 57.33443806 13.56928081 57.33443806 10.66870117 60.72558594 C7.26183079 62.35250602 5.55384723 62.18461574 2 61 C-0.28458499 57.57312252 -0.24451452 56.36059689 -0.22705078 52.33520508 C-0.22689972 51.17422806 -0.22674866 50.01325104 -0.22659302 48.8170929 C-0.21627045 47.56389755 -0.20594788 46.31070221 -0.1953125 45.01953125 C-0.1924826 43.73640549 -0.18965271 42.45327972 -0.18673706 41.13127136 C-0.17910797 37.72323798 -0.15946587 34.31537559 -0.1373291 30.90740967 C-0.11685497 27.42853102 -0.107732 23.94962468 -0.09765625 20.47070312 C-0.07621918 13.64706526 -0.04209205 6.82354084 0 0 Z " fill="#2AA5BF" transform="translate(348,202)"/>
<path d="M0 0 C0.66 0.66 1.32 1.32 2 2 C1.67 2.99 1.34 3.98 1 5 C0.01 5.33 -0.98 5.66 -2 6 C-1.67 6.99 -1.34 7.98 -1 9 C-3.27503037 12.41254555 -5.6184279 13.7456186 -9 16 C-10.9896995 16.39013716 -12.99019869 16.73202649 -15 17 C-15 17.66 -15 18.32 -15 19 C-16.65 18.67 -18.3 18.34 -20 18 C-19.34 17.67 -18.68 17.34 -18 17 C-18.7763932 13.9254644 -18.7763932 13.9254644 -21 12 C-19.71034824 10.62437146 -18.37310707 9.29233607 -17 8 C-16.34 8 -15.68 8 -15 8 C-15 7.34 -15 6.68 -15 6 C-14.34 6 -13.68 6 -13 6 C-13 5.34 -13 4.68 -13 4 C-11.8553125 4.0928125 -11.8553125 4.0928125 -10.6875 4.1875 C-7.44363031 3.96118351 -7.16055611 3.25057928 -5 1 C-2.4375 0.1875 -2.4375 0.1875 0 0 Z " fill="#0DF6FB" transform="translate(229,138)"/>
<path d="M0 0 C-0.33 1.65 -0.66 3.3 -1 5 C-0.34 5.33 0.32 5.66 1 6 C0.360625 6.103125 -0.27875 6.20625 -0.9375 6.3125 C-1.9584375 6.6528125 -1.9584375 6.6528125 -3 7 C-3.33 7.99 -3.66 8.98 -4 10 C-5.32 10 -6.64 10 -8 10 C-8.33 11.32 -8.66 12.64 -9 14 C-12.63 14 -16.26 14 -20 14 C-20.23798791 11.14414507 -20.4184873 8.80064578 -20 6 C-14.77786332 -0.01336951 -7.43333252 -0.26081868 0 0 Z " fill="#14EEF9" transform="translate(125,207)"/>
<path d="M0 0 C1.98 0.99 1.98 0.99 4 2 C4 26.75 4 51.5 4 77 C40.63 77.495 40.63 77.495 78 78 C77.67 78.66 77.34 79.32 77 80 C52.91 80 28.82 80 4 80 C3.67 79.01 3.34 78.02 3 77 C2.34 77 1.68 77 1 77 C-0.24082295 73.27753114 0.57657093 72.53030644 2 69 C2.29291154 66.21015662 2.29291154 66.21015662 2.24291992 63.23510742 C2.24753487 61.53260078 2.24753487 61.53260078 2.25224304 59.79570007 C2.24505753 58.57792374 2.23787201 57.3601474 2.23046875 56.10546875 C2.22978142 54.21348503 2.22978142 54.21348503 2.2290802 52.28327942 C2.22606074 49.61604276 2.21926307 46.94915317 2.20581055 44.28198242 C2.18887333 40.88287548 2.1849951 37.48391726 2.18575573 34.08477306 C2.18541634 30.82082384 2.17656213 27.55690515 2.16796875 24.29296875 C2.16685593 23.08126511 2.1657431 21.86956146 2.16459656 20.62113953 C2.17970215 10.16299656 2.17970215 10.16299656 0 0 Z " fill="#29A4EC" transform="translate(276,282)"/>
<path d="M0 0 C0 1.32 0 2.64 0 4 C-0.66 4 -1.32 4 -2 4 C-2 4.99 -2 5.98 -2 7 C-0.68 7 0.64 7 2 7 C2 6.34 2 5.68 2 5 C3.32 5 4.64 5 6 5 C6 4.34 6 3.68 6 3 C7.32 3 8.64 3 10 3 C10 2.34 10 1.68 10 1 C12.475 1.495 12.475 1.495 15 2 C14.01 2.66 13.02 3.32 12 4 C11.01 4.70125 10.02 5.4025 9 6.125 C6 8 6 8 3 8 C3 8.66 3 9.32 3 10 C2.01 10 1.02 10 0 10 C0 10.66 0 11.32 0 12 C-1.98 12.66 -3.96 13.32 -6 14 C-6 14.66 -6 15.32 -6 16 C-8.31 16.99 -10.62 17.98 -13 19 C-13 18.01 -13 17.02 -13 16 C-12.01 15.34 -11.02 14.68 -10 14 C-9.67 13.34 -9.34 12.68 -9 12 C-9.33 11.01 -9.66 10.02 -10 9 C-8.68 8.67 -7.36 8.34 -6 8 C-6.33 7.01 -6.66 6.02 -7 5 C-9.31 5.66 -11.62 6.32 -14 7 C-14 7.66 -14 8.32 -14 9 C-16.97 8.505 -16.97 8.505 -20 8 C-18.67306301 6.99152789 -17.33743723 5.99450461 -16 5 C-15.50242188 4.566875 -15.00484375 4.13375 -14.4921875 3.6875 C-9.72635195 -0.21383515 -6.05440129 -0.61779605 0 0 Z " fill="#16DDE1" transform="translate(236,134)"/>
<path d="M0 0 C0.33 0 0.66 0 1 0 C1 56.43 1 112.86 1 171 C2.32 171.66 3.64 172.32 5 173 C5.33 173.66 5.66 174.32 6 175 C3.5625 174.625 3.5625 174.625 1 174 C-0.46375507 171.07248987 -0.12263456 168.49988558 -0.12025452 165.22970581 C-0.12110894 164.52562595 -0.12196337 163.8215461 -0.12284368 163.09613049 C-0.12449721 160.72535708 -0.11897919 158.35465366 -0.11352539 155.98388672 C-0.11324347 154.289032 -0.11340136 152.59417716 -0.1139679 150.89932251 C-0.11425566 146.28800713 -0.10836228 141.67671759 -0.10139394 137.06540823 C-0.09515695 132.25007857 -0.09455633 127.43474836 -0.09336853 122.61941528 C-0.09025624 113.49632298 -0.08204421 104.37324261 -0.07201904 95.25015557 C-0.06085475 84.86578602 -0.05534666 74.4814159 -0.05032361 64.09704185 C-0.03986152 42.73135456 -0.02226404 21.36567803 0 0 Z " fill="#4AB9C6" transform="translate(181,196)"/>
<path d="M0 0 C1.36511719 0.43119141 1.36511719 0.43119141 2.7578125 0.87109375 C3.45648438 1.09925781 4.15515625 1.32742187 4.875 1.5625 C4.875 2.2225 4.875 2.8825 4.875 3.5625 C6.793125 3.8409375 6.793125 3.8409375 8.75 4.125 C14.76160315 5.41524869 19.10298349 8.83654139 23.875 12.5625 C23.215 13.2225 22.555 13.8825 21.875 14.5625 C19.75 14.1875 19.75 14.1875 17.875 13.5625 C17.875 12.5725 17.875 11.5825 17.875 10.5625 C16.555 10.5625 15.235 10.5625 13.875 10.5625 C13.875 9.9025 13.875 9.2425 13.875 8.5625 C13.215 8.5625 12.555 8.5625 11.875 8.5625 C11.875 7.9025 11.875 7.2425 11.875 6.5625 C9.565 6.5625 7.255 6.5625 4.875 6.5625 C4.545 7.2225 4.215 7.8825 3.875 8.5625 C4.535 8.8925 5.195 9.2225 5.875 9.5625 C3.895 10.5525 3.895 10.5525 1.875 11.5625 C2.865 11.8925 3.855 12.2225 4.875 12.5625 C4.545 13.8825 4.215 15.2025 3.875 16.5625 C3.545 15.9025 3.215 15.2425 2.875 14.5625 C2.09125 14.418125 1.3075 14.27375 0.5 14.125 C-2.50147379 13.48182704 -3.34419101 13.02171242 -5.125 10.5625 C-5.85193904 8.58361039 -6.52316251 6.58295442 -7.125 4.5625 C-7.455 3.9025 -7.785 3.2425 -8.125 2.5625 C-7.465 2.5625 -6.805 2.5625 -6.125 2.5625 C-6.455 1.5725 -6.785 0.5825 -7.125 -0.4375 C-4.30685434 -1.84657283 -2.95222796 -0.94622691 0 0 Z " fill="#17DEFA" transform="translate(330.125,174.4375)"/>
<path d="M0 0 C1.39136534 0.04232649 2.78256436 0.09034885 4.17358398 0.14282227 C5.27016579 0.17823875 5.27016579 0.17823875 6.38890076 0.21437073 C8.7326823 0.29117936 11.07614756 0.37512882 13.41967773 0.45922852 C15.00494852 0.51243203 16.59023491 0.56517253 18.17553711 0.61743164 C22.06961905 0.74681756 25.96343184 0.88260983 29.85717773 1.02172852 C29.85717773 1.35172852 29.85717773 1.68172852 29.85717773 2.02172852 C19.29717773 2.02172852 8.73717773 2.02172852 -2.14282227 2.02172852 C-2.14282227 23.14172852 -2.14282227 44.26172852 -2.14282227 66.02172852 C-2.80282227 65.69172852 -3.46282227 65.36172852 -4.14282227 65.02172852 C-4.16594911 56.69443904 -4.18373909 48.36716289 -4.19463444 40.03984928 C-4.19986252 36.17352734 -4.2069588 32.3072273 -4.21826172 28.44091797 C-4.22909326 24.71269451 -4.23509967 20.98449217 -4.23769951 17.2562542 C-4.23955328 15.83083196 -4.24317297 14.40541093 -4.24855232 12.97999763 C-4.25576619 10.99009444 -4.25623035 9.00017018 -4.25634766 7.01025391 C-4.25856827 5.87552139 -4.26078888 4.74078888 -4.26307678 3.57167053 C-4.08507836 -0.20270458 -3.8555537 0.02665612 0 0 Z " fill="#1D7D97" transform="translate(235.142822265625,292.978271484375)"/>
<path d="M0 0 C3.04335251 1.59518718 6.02747161 3.27654284 9 5 C10.39798828 5.79664063 10.39798828 5.79664063 11.82421875 6.609375 C18.68218442 10.87481442 18.68218442 10.87481442 19.62890625 14.2265625 C19.625 16.4375 19.625 16.4375 19 20 C18.34 20 17.68 20 17 20 C17 20.66 17 21.32 17 22 C13.95464135 23.3399578 12.78761913 22.92663206 9.5625 21.8125 C6.29781835 20.15152161 3.74103504 18.40878837 1 16 C2.98 16 4.96 16 7 16 C7 15.01 7 14.02 7 13 C12.75 14.875 12.75 14.875 15 16 C15 14.35 15 12.7 15 11 C14.01 11 13.02 11 12 11 C12 10.34 12 9.68 12 9 C7.545 8.01 7.545 8.01 3 7 C2.67 5.68 2.34 4.36 2 3 C1.34 3 0.68 3 0 3 C0 2.01 0 1.02 0 0 Z " fill="#24B0DC" transform="translate(377,202)"/>
<path d="M0 0 C0.33 0.66 0.66 1.32 1 2 C1.66 2 2.32 2 3 2 C3 2.66 3 3.32 3 4 C3.99 4 4.98 4 6 4 C5.67 4.66 5.34 5.32 5 6 C3.35 6 1.7 6 0 6 C0 6.66 0 7.32 0 8 C1.65 8.33 3.3 8.66 5 9 C5.33 10.98 5.66 12.96 6 15 C5.34 15 4.68 15 4 15 C4.20625 15.5775 4.4125 16.155 4.625 16.75 C5 19 5 19 3 23 C3 19.7 3 16.4 3 13 C2.01 13 1.02 13 0 13 C0 13.66 0 14.32 0 15 C-1.32 15 -2.64 15 -4 15 C-4.33 15.66 -4.66 16.32 -5 17 C-5.99 17 -6.98 17 -8 17 C-8 16.01 -8 15.02 -8 14 C-8.99 14 -9.98 14 -11 14 C-11.33 13.01 -11.66 12.02 -12 11 C-9.1928292 7.88092134 -6.89328326 6.47313421 -3 5 C-2.67 4.34 -2.34 3.68 -2 3 C-1.34 3 -0.68 3 0 3 C0 2.01 0 1.02 0 0 Z " fill="#10F2FA" transform="translate(138,192)"/>
<path d="M0 0 C2.3125 2.625 2.3125 2.625 4 5 C4.66 5 5.32 5 6 5 C6 5.99 6 6.98 6 8 C1.89951993 9.62112003 -0.73753575 10.33963162 -5 9 C-5.33 8.67 -5.66 8.34 -6 8 C-6.99 7.67 -7.98 7.34 -9 7 C-9 6.34 -9 5.68 -9 5 C-10.32 5 -11.64 5 -13 5 C-13 4.34 -13 3.68 -13 3 C-14.32 2.67 -15.64 2.34 -17 2 C-16.01 2 -15.02 2 -14 2 C-13.67 1.34 -13.34 0.68 -13 0 C-8.06671561 -2.34918304 -4.99872872 -2.12908816 0 0 Z " fill="#0EEEFC" transform="translate(284,144)"/>
<path d="M0 0 C2.71146236 1.53533581 5.25593342 3.28391253 7.8125 5.0625 C8.50537109 5.53494141 9.19824219 6.00738281 9.91210938 6.49414062 C11.6130648 7.6554826 13.30722395 8.8267678 15 10 C14.34 10.66 13.68 11.32 13 12 C11.68 11.34 10.36 10.68 9 10 C8.855625 11.11375 8.71125 12.2275 8.5625 13.375 C8 17 8 17 7 19 C7.99 19 8.98 19 10 19 C10.33 20.65 10.66 22.3 11 24 C9.01716521 22.88147781 7.03882377 21.75498675 5.0625 20.625 C3.96035156 19.99851563 2.85820312 19.37203125 1.72265625 18.7265625 C-1 17 -1 17 -2 15 C1.465 14.505 1.465 14.505 5 14 C5 13.34 5 12.68 5 12 C5.66 12 6.32 12 7 12 C6.67 11.01 6.34 10.02 6 9 C6.33 8.34 6.66 7.68 7 7 C5.68 7 4.36 7 3 7 C3 6.34 3 5.68 3 5 C2.34 5 1.68 5 1 5 C1 4.34 1 3.68 1 3 C-2.63 3 -6.26 3 -10 3 C-10 2.34 -10 1.68 -10 1 C-6.12961025 -0.87990359 -4.10992672 -1.27864387 0 0 Z " fill="#1ADAE0" transform="translate(254,122)"/>
<path d="M0 0 C0.99 0.33 1.98 0.66 3 1 C2.34 1 1.68 1 1 1 C1 1.66 1 2.32 1 3 C-1.51261908 4.71287809 -4.02172654 6.31121226 -6.625 7.875 C-8.05519416 8.74656498 -9.48488922 9.61894952 -10.9140625 10.4921875 C-11.60790039 10.91209961 -12.30173828 11.33201172 -13.01660156 11.76464844 C-14.83419537 12.89672927 -16.58380934 14.09046373 -18.3359375 15.3203125 C-21 17 -21 17 -24 17 C-24 17.66 -24 18.32 -24 19 C-29.75 20.125 -29.75 20.125 -32 19 C-32 18.34 -32 17.68 -32 17 C-32.99 16.67 -33.98 16.34 -35 16 C-34.67 13.69 -34.34 11.38 -34 9 C-33.67 9 -33.34 9 -33 9 C-33 11.31 -33 13.62 -33 16 C-31.741875 15.814375 -30.48375 15.62875 -29.1875 15.4375 C-26.17255732 14.99267239 -24.99531539 15.00156154 -22 16 C-21.67 14.68 -21.34 13.36 -21 12 C-19.68 12 -18.36 12 -17 12 C-16.67 10.68 -16.34 9.36 -16 8 C-14.02 8 -12.04 8 -10 8 C-10 7.01 -10 6.02 -10 5 C-8.68 5 -7.36 5 -6 5 C-5.67 3.68 -5.34 2.36 -5 1 C-2.525 1.495 -2.525 1.495 0 2 C0 1.34 0 0.68 0 0 Z " fill="#1DA9AF" transform="translate(138,205)"/>
<path d="M0 0 C0.66 0 1.32 0 2 0 C2 0.66 2 1.32 2 2 C2.66 2.33 3.32 2.66 4 3 C3.09507812 3.47179687 3.09507812 3.47179687 2.171875 3.953125 C1.37265625 4.38109375 0.5734375 4.8090625 -0.25 5.25 C-1.03890625 5.66765625 -1.8278125 6.0853125 -2.640625 6.515625 C-5.23400148 8.14721947 -7.03366022 9.64321231 -9 12 C-9.5155032 14.58489435 -9.5155032 14.58489435 -9.3203125 17.39453125 C-9.29839844 18.43287109 -9.27648437 19.47121094 -9.25390625 20.54101562 C-9.21136719 21.62060547 -9.16882813 22.70019531 -9.125 23.8125 C-8.70308149 36.75914776 -8.70308149 36.75914776 -11 43 C-11.33 43 -11.66 43 -12 43 C-12.04944066 38.35524041 -12.08573863 33.71063404 -12.10986328 29.06567383 C-12.11992041 27.48556856 -12.13356785 25.9054819 -12.15087891 24.32543945 C-12.17514022 22.0541525 -12.18648582 19.78311164 -12.1953125 17.51171875 C-12.20563507 16.80536789 -12.21595764 16.09901703 -12.22659302 15.3712616 C-12.22743775 11.67802208 -12.10720523 10.16080784 -10 7 C-9.34 7 -8.68 7 -8 7 C-8 6.34 -8 5.68 -8 5 C-7.01 4.67 -6.02 4.34 -5 4 C-5 3.67 -5 3.34 -5 3 C-3.35 3 -1.7 3 0 3 C0 2.01 0 1.02 0 0 Z " fill="#26CCD8" transform="translate(162,188)"/>
<path d="M0 0 C0.33 0 0.66 0 1 0 C1.12670151 7.18975017 1.21430998 14.37921288 1.2746582 21.56982422 C1.29981355 24.01622272 1.33394166 26.46254599 1.37719727 28.90869141 C1.43780071 32.42369131 1.46620021 35.93769829 1.48828125 39.453125 C1.51408768 40.5480426 1.5398941 41.64296021 1.56648254 42.77105713 C1.56928116 50.33539152 1.56928116 50.33539152 -1.33129883 53.72167969 C-4 55 -4 55 -7.1875 55 C-10 54 -10 54 -11.375 51.9375 C-11.684375 50.9784375 -11.684375 50.9784375 -12 50 C-10.68 50.33 -9.36 50.66 -8 51 C-8 50.34 -8 49.68 -8 49 C-7.01 49.33 -6.02 49.66 -5 50 C-3.66893378 50.34227417 -2.33599921 50.67751743 -1 51 C-1.01160156 49.91589844 -1.02320313 48.83179688 -1.03515625 47.71484375 C-1.14546607 31.7957573 -0.57750087 15.90584842 0 0 Z " fill="#207289" transform="translate(360,209)"/>
<path d="M0 0 C2.12252474 4.24504947 2.36660814 7.33456239 2.375 11.9375 C2.39949219 12.64068359 2.42398438 13.34386719 2.44921875 14.06835938 C2.46980505 17.72928921 2.1001906 19.83721698 0.16796875 22.9765625 C-2 25 -2 25 -5.0625 25.4375 C-8 25 -8 25 -11 23 C-11.22107787 20.2114711 -11.28107535 17.65346819 -11.1875 14.875 C-11.17396484 14.12089844 -11.16042969 13.36679687 -11.14648438 12.58984375 C-11.11109985 10.72625873 -11.05729167 8.86304022 -11 7 C-10.67 7 -10.34 7 -10 7 C-9.34 11.62 -8.68 16.24 -8 21 C-7.34 21 -6.68 21 -6 21 C-5.67 20.34 -5.34 19.68 -5 19 C-3.68 18.34 -2.36 17.68 -1 17 C-0.67 11.39 -0.34 5.78 0 0 Z " fill="#23BFF2" transform="translate(151,345)"/>
<path d="M0 0 C2.64 0 5.28 0 8 0 C7.67 1.65 7.34 3.3 7 5 C7.66 5.33 8.32 5.66 9 6 C8.360625 6.103125 7.72125 6.20625 7.0625 6.3125 C6.381875 6.539375 5.70125 6.76625 5 7 C4.67 7.99 4.34 8.98 4 10 C2.68 10 1.36 10 0 10 C-0.33 11.32 -0.66 12.64 -1 14 C-1.66 14 -2.32 14 -3 14 C-4.26332183 9.78892722 -4.00441956 7.4543291 -2.0625 3.625 C-1.39025121 2.40811576 -0.70765749 1.1966397 0 0 Z " fill="#11F0FB" transform="translate(117,207)"/>
<path d="M0 0 C1.98 0.99 1.98 0.99 4 2 C4 26.42 4 50.84 4 76 C3.67 76 3.34 76 3 76 C2.98969254 75.20343994 2.97938507 74.40687988 2.96876526 73.58618164 C2.87050608 66.05393933 2.76795318 58.52177316 2.66066074 50.98965454 C2.60565911 47.11796732 2.55227753 43.24627231 2.50268555 39.37451172 C2.45470374 35.63322901 2.40235245 31.89202993 2.34705925 28.15084839 C2.32678775 26.72844545 2.30805121 25.30601973 2.29092598 23.88357544 C2.37542105 11.7776749 2.37542105 11.7776749 0 0 Z " fill="#43ABD8" transform="translate(276,282)"/>
<path d="M0 0 C2.31 0.66 4.62 1.32 7 2 C7 2.66 7 3.32 7 4 C8.32 4 9.64 4 11 4 C11 5.65 11 7.3 11 9 C10.34 9 9.68 9 9 9 C9 9.66 9 10.32 9 11 C7.35 11.33 5.7 11.66 4 12 C3.9071875 10.824375 3.9071875 10.824375 3.8125 9.625 C3.544375 8.75875 3.27625 7.8925 3 7 C0.52363988 5.62533375 0.52363988 5.62533375 -2 5 C-1.34 4.01 -0.68 3.02 0 2 C0 1.34 0 0.68 0 0 Z " fill="#0BF7FD" transform="translate(250,125)"/>
<path d="M0 0 C0.99 0.33 1.98 0.66 3 1 C2.83734146 1.55975525 2.67468292 2.1195105 2.50709534 2.69622803 C1.96457993 5.16091602 1.87983665 7.33792627 1.88647461 9.86035156 C1.88655014 10.82104553 1.88662567 11.7817395 1.88670349 12.77154541 C1.89186478 13.80084167 1.89702606 14.83013794 1.90234375 15.890625 C1.9037587 16.95037537 1.90517365 18.01012573 1.90663147 19.10198975 C1.91222618 22.48468862 1.92477775 25.86732115 1.9375 29.25 C1.94251568 31.54426988 1.94707847 33.83854079 1.95117188 36.1328125 C1.96219389 41.75523094 1.97892679 47.37761073 2 53 C1.67 53 1.34 53 1 53 C0.07453471 46.74910641 -0.13221037 40.68845843 -0.09765625 34.375 C-0.0962413 33.38749756 -0.09482635 32.39999512 -0.09336853 31.38256836 C-0.08780927 28.25501364 -0.07526446 25.12753277 -0.0625 22 C-0.05747973 19.86849062 -0.05291775 17.73698012 -0.04882812 15.60546875 C-0.03785322 10.403621 -0.02115612 5.20181578 0 0 Z " fill="#22B9F1" transform="translate(269,294)"/>
<path d="M0 0 C0.33 0 0.66 0 1 0 C1 20.13 1 40.26 1 61 C2.32 61.66 3.64 62.32 5 63 C5.33 63.66 5.66 64.32 6 65 C3.5625 64.625 3.5625 64.625 1 64 C-0.36239076 61.27521848 -0.11969958 59.13159145 -0.11352539 56.08154297 C-0.11344986 54.84040741 -0.11337433 53.59927185 -0.11329651 52.32052612 C-0.1081895 50.96107951 -0.1029735 49.60163331 -0.09765625 48.2421875 C-0.09579142 46.85499116 -0.09436782 45.46779416 -0.09336853 44.08059692 C-0.08954848 40.42765488 -0.07972255 36.77475252 -0.06866455 33.12182617 C-0.05843944 29.39502499 -0.05386855 25.66821741 -0.04882812 21.94140625 C-0.03809983 14.62758606 -0.02102954 7.31379859 0 0 Z " fill="#48A6C0" transform="translate(181,306)"/>
<path d="M0 0 C0 1.32 0 2.64 0 4 C-5.625 6 -5.625 6 -9 6 C-10.67099977 6.31088368 -12.33871537 6.64080332 -14 7 C-14 7.66 -14 8.32 -14 9 C-16.97 8.505 -16.97 8.505 -20 8 C-18.67306301 6.99152789 -17.33743723 5.99450461 -16 5 C-15.50242188 4.566875 -15.00484375 4.13375 -14.4921875 3.6875 C-9.72635195 -0.21383515 -6.05440129 -0.61779605 0 0 Z " fill="#10F5FB" transform="translate(236,134)"/>
<path d="M0 0 C0.66 0.33 1.32 0.66 2 1 C-4.72568988 9.33442838 -4.72568988 9.33442838 -10 11 C-11.70294787 12.28667172 -13.37946188 13.61096733 -15 15 C-15.66 14.67 -16.32 14.34 -17 14 C-17 13.01 -17 12.02 -17 11 C-15.47119141 9.63378906 -15.47119141 9.63378906 -13.3515625 8.265625 C-12.59359375 7.77449219 -11.835625 7.28335938 -11.0546875 6.77734375 C-10.25289062 6.27332031 -9.45109375 5.76929688 -8.625 5.25 C-7.43390625 4.47076172 -7.43390625 4.47076172 -6.21875 3.67578125 C-1.81367268 0.8610115 -1.81367268 0.8610115 0 0 Z " fill="#1EB9B9" transform="translate(157,179)"/>
<path d="M0 0 C0 2 0 4 0 6 C-0.78375 6.12375 -1.5675 6.2475 -2.375 6.375 C-5.14057822 6.79117993 -5.14057822 6.79117993 -7 9 C-6.01 9.66 -5.02 10.32 -4 11 C-4.33 12.32 -4.66 13.64 -5 15 C-6.65 15 -8.3 15 -10 15 C-12.125 10.375 -12.125 10.375 -11 7 C-8.39757586 5.35179805 -7.13751221 5 -4 5 C-4 4.01 -4 3.02 -4 2 C-2.68 1.34 -1.36 0.68 0 0 Z " fill="#0DF4FC" transform="translate(173,172)"/>
<path d="M0 0 C4.86148996 0.58835017 9.772173 0.65474503 14.66259766 0.83178711 C15.77570313 0.8749707 16.88880859 0.9181543 18.03564453 0.96264648 C20.7653561 1.06808599 23.49514909 1.1702074 26.22509766 1.26928711 C26.22509766 1.59928711 26.22509766 1.92928711 26.22509766 2.26928711 C13.02509766 2.26928711 -0.17490234 2.26928711 -13.77490234 2.26928711 C-9.09067265 -0.85353269 -5.4288711 -0.83791264 0 0 Z " fill="#3186BB" transform="translate(302.77490234375,368.730712890625)"/>
<path d="M0 0 C0.33 0 0.66 0 1 0 C1 2.31 1 4.62 1 7 C2.258125 6.814375 3.51625 6.62875 4.8125 6.4375 C7.82744268 5.99267239 9.00468461 6.00156154 12 7 C12.33 5.68 12.66 4.36 13 3 C14.32 3.33 15.64 3.66 17 4 C15.1875 6 15.1875 6 13 8 C12.01 8 11.02 8 10 8 C10 8.66 10 9.32 10 10 C4.25 11.125 4.25 11.125 2 10 C2 9.34 2 8.68 2 8 C1.01 7.67 0.02 7.34 -1 7 C-0.67 4.69 -0.34 2.38 0 0 Z " fill="#27C5CD" transform="translate(104,214)"/>
<path d="M0 0 C1.65 0.33 3.3 0.66 5 1 C1.36743046 3.99232073 -2.38413175 6.65986709 -6.3125 9.25 C-7.38113281 9.95640625 -8.44976562 10.6628125 -9.55078125 11.390625 C-10.35902344 11.92171875 -11.16726562 12.4528125 -12 13 C-12.66 12.67 -13.32 12.34 -14 12 C-13.67 11.01 -13.34 10.02 -13 9 C-12.01 9 -11.02 9 -10 9 C-10 8.34 -10 7.68 -10 7 C-8.02 6.67 -6.04 6.34 -4 6 C-4.33 5.01 -4.66 4.02 -5 3 C-3.68 3 -2.36 3 -1 3 C-0.67 2.01 -0.34 1.02 0 0 Z " fill="#1DA3A7" transform="translate(187,172)"/>
<path d="M0 0 C-2.43536322 1.48278572 -4.87312937 2.96133357 -7.3125 4.4375 C-8.00279297 4.85837891 -8.69308594 5.27925781 -9.40429688 5.71289062 C-10.07138672 6.11572266 -10.73847656 6.51855469 -11.42578125 6.93359375 C-12.03848877 7.30540771 -12.65119629 7.67722168 -13.2824707 8.06030273 C-15 9 -15 9 -18 10 C-18 9.01 -18 8.02 -18 7 C-17.01 7 -16.02 7 -15 7 C-14.34 5.02 -13.68 3.04 -13 1 C-11.906875 0.855625 -10.81375 0.71125 -9.6875 0.5625 C-1.88372093 -0.62790698 -1.88372093 -0.62790698 0 0 Z " fill="#1ABCBD" transform="translate(211,162)"/>
<path d="M0 0 C1.65 0.33 3.3 0.66 5 1 C5 3.31 5 5.62 5 8 C2.36 8 -0.28 8 -3 8 C-1.125 2.25 -1.125 2.25 0 0 Z " fill="#2198EC" transform="translate(355,361)"/>
<path d="M0 0 C6.24430328 3.33619986 12.16769769 6.98770692 18 11 C15.50907189 12.24546405 14.58919267 11.7767578 12 11 C12 10.34 12 9.68 12 9 C7.545 8.01 7.545 8.01 3 7 C2.67 5.68 2.34 4.36 2 3 C1.34 3 0.68 3 0 3 C0 2.01 0 1.02 0 0 Z " fill="#24A6C2" transform="translate(377,202)"/>
<path d="M0 0 C1.65 0.33 3.3 0.66 5 1 C4.01 1.66 3.02 2.32 2 3 C1.01 3.70125 0.02 4.4025 -1 5.125 C-4 7 -4 7 -7 7 C-7 7.66 -7 8.32 -7 9 C-7.99 9 -8.98 9 -10 9 C-10 9.66 -10 10.32 -10 11 C-10.66 10.67 -11.32 10.34 -12 10 C-11.34 8.68 -10.68 7.36 -10 6 C-9.34 6 -8.68 6 -8 6 C-8 5.34 -8 4.68 -8 4 C-6.68 4 -5.36 4 -4 4 C-4 3.34 -4 2.68 -4 2 C-2.68 2 -1.36 2 0 2 C0 1.34 0 0.68 0 0 Z " fill="#20BABD" transform="translate(246,135)"/>
<path d="M0 0 C2.74352186 1.55602732 5.38320603 3.24031969 8 5 C6.02 5.99 6.02 5.99 4 7 C3.67 6.34 3.34 5.68 3 5 C2.34 5 1.68 5 1 5 C1 4.34 1 3.68 1 3 C-2.63 3 -6.26 3 -10 3 C-10 2.34 -10 1.68 -10 1 C-6.18172617 -0.85459014 -4.04076734 -1.40957 0 0 Z " fill="#20ADAF" transform="translate(254,122)"/>
<path d="M0 0 C2.44578467 3.76650839 2.36708157 7.59424291 2.375 11.9375 C2.39949219 12.64068359 2.42398438 13.34386719 2.44921875 14.06835938 C2.47057747 17.8666518 2.11976724 19.82219883 -0.0234375 23.00390625 C-0.67570313 23.66261719 -1.32796875 24.32132812 -2 25 C-2.99 24.67 -3.98 24.34 -5 24 C-2.125 18.125 -2.125 18.125 -1 17 C-0.76298761 14.14122091 -0.57780818 11.30116703 -0.4375 8.4375 C-0.37272461 7.22803711 -0.37272461 7.22803711 -0.30664062 5.99414062 C-0.20024738 3.99631195 -0.09959112 1.9981793 0 0 Z " fill="#2DA2C9" transform="translate(151,345)"/>
<path d="M0 0 C1.32 0 2.64 0 4 0 C4 0.66 4 1.32 4 2 C5.32 2 6.64 2 8 2 C9.75 3.5 9.75 3.5 11 5 C11.33 4.01 11.66 3.02 12 2 C12.33 3.32 12.66 4.64 13 6 C14.32 6 15.64 6 17 6 C17.66 7.98 18.32 9.96 19 12 C14.46463751 10.41305672 10.68503997 8.0435173 6.6875 5.4375 C6.04232422 5.02564453 5.39714844 4.61378906 4.73242188 4.18945312 C3.13495169 3.15659145 1.56465902 2.08192254 0 1 C0 0.67 0 0.34 0 0 Z " fill="#23B0BD" transform="translate(267,147)"/>
<path d="M0 0 C1.20628008 2.33214148 2.1654738 4.49642139 3 7 C2.67 7.66 2.34 8.32 2 9 C-7.24 9 -16.48 9 -26 9 C-26 8.67 -26 8.34 -26 8 C-17.42 8 -8.84 8 0 8 C0 5.36 0 2.72 0 0 Z " fill="#39A6CF" transform="translate(220,351)"/>
<path d="M0 0 C0.66 0 1.32 0 2 0 C2 0.66 2 1.32 2 2 C2.66 2.33 3.32 2.66 4 3 C3.40832031 3.31453125 2.81664062 3.6290625 2.20703125 3.953125 C-2.18648236 6.33264624 -6.21154795 8.70038047 -10 12 C-10 10.35 -10 8.7 -10 7 C-9.34 7 -8.68 7 -8 7 C-8 6.34 -8 5.68 -8 5 C-7.01 4.67 -6.02 4.34 -5 4 C-5 3.67 -5 3.34 -5 3 C-3.35 3 -1.7 3 0 3 C0 2.01 0 1.02 0 0 Z " fill="#22BEBF" transform="translate(162,188)"/>
<path d="M0 0 C9.59453303 5.0022779 9.59453303 5.0022779 13 9 C9.25 10.125 9.25 10.125 7 9 C7 8.01 7 7.02 7 6 C5.68 6 4.36 6 3 6 C3 5.34 3 4.68 3 4 C2.34 4 1.68 4 1 4 C0.67 2.68 0.34 1.36 0 0 Z " fill="#26B4C7" transform="translate(341,179)"/>
<path d="M0 0 C0.33 0.66 0.66 1.32 1 2 C9.58 2 18.16 2 27 2 C26.67 2.66 26.34 3.32 26 4 C17.66666667 4 9.33333333 4 1 4 C0.67 2.68 0.34 1.36 0 0 Z " fill="#28B6F0" transform="translate(193,358)"/>
<path d="M0 0 C0.33 0.99 0.66 1.98 1 3 C0.34 3 -0.32 3 -1 3 C-1.33 3.99 -1.66 4.98 -2 6 C-4.8125 7.75 -4.8125 7.75 -8 9 C-9.32 8.67 -10.64 8.34 -12 8 C-8.04 5.36 -4.08 2.72 0 0 Z " fill="#24B7BA" transform="translate(137,192)"/>
<path d="M0 0 C-0.33 1.32 -0.66 2.64 -1 4 C-0.34 4.33 0.32 4.66 1 5 C0.01 5.495 0.01 5.495 -1 6 C-3.3828125 4.78515625 -3.3828125 4.78515625 -6.125 3.0625 C-7.03507812 2.49660156 -7.94515625 1.93070313 -8.8828125 1.34765625 C-9.58148438 0.90292969 -10.28015625 0.45820313 -11 0 C-6.64281556 -2.17859222 -4.46381772 -2.10791392 0 0 Z " fill="#24BACC" transform="translate(325,178)"/>
<path d="M0 0 C0.33 0.66 0.66 1.32 1 2 C0.34 2 -0.32 2 -1 2 C-1.103125 2.763125 -1.20625 3.52625 -1.3125 4.3125 C-2.04364039 7.17059424 -2.76951913 8.15742885 -5 10 C-5.28875 9.360625 -5.5775 8.72125 -5.875 8.0625 C-6.82823451 5.84793921 -6.82823451 5.84793921 -9 5 C-8.01 5 -7.02 5 -6 5 C-6 4.34 -6 3.68 -6 3 C-4.02 2.01 -2.04 1.02 0 0 Z " fill="#17C0C3" transform="translate(192,157)"/>
<path d="M0 0 C0.66 0.33 1.32 0.66 2 1 C2 4.27275026 1.70074844 6.846632 1 10 C-0.65 10.33 -2.3 10.66 -4 11 C-3.34 8.69 -2.68 6.38 -2 4 C-2.66 3.34 -3.32 2.68 -4 2 C-2.125 0.9375 -2.125 0.9375 0 0 Z " fill="#0AF9FD" transform="translate(237,131)"/>
<path d="M0 0 C-0.25 2.375 -0.25 2.375 -1 5 C-4.11609628 7.42363044 -7.17372685 7.17392151 -11 7 C-8.21677024 3.90752249 -4.31039412 0 0 0 Z " fill="#1EB7BB" transform="translate(170,172)"/>
<path d="M0 0 C0.99 0 1.98 0 3 0 C3.33 0.99 3.66 1.98 4 3 C5.32 3 6.64 3 8 3 C8 4.65 8 6.3 8 8 C7.01 7.67 6.02 7.34 5 7 C5 6.34 5 5.68 5 5 C3.68 5 2.36 5 1 5 C1 4.34 1 3.68 1 3 C-0.32 2.67 -1.64 2.34 -3 2 C-2.01 2 -1.02 2 0 2 C0 1.34 0 0.68 0 0 Z " fill="#17EBF6" transform="translate(270,144)"/>
<path d="M0 0 C3.61941735 1.50239966 6.7321794 2.82145293 10 5 C9.67 5.66 9.34 6.32 9 7 C6.4375 7.625 6.4375 7.625 4 8 C0 2.25 0 2.25 0 0 Z " fill="#1DB4BB" transform="translate(283,142)"/>
<path d="M0 0 C0.66 0.33 1.32 0.66 2 1 C0.9024777 3.99324263 0.32317108 4.84610901 -2.625 6.25 C-3.40875 6.4975 -4.1925 6.745 -5 7 C-5 7.66 -5 8.32 -5 9 C-7.97 8.505 -7.97 8.505 -11 8 C-7.38813161 5.25498003 -3.69604737 2.62987986 0 0 Z " fill="#1EBCBC" transform="translate(227,134)"/>
<path d="M0 0 C0.94875 0.350625 1.8975 0.70125 2.875 1.0625 C2.215 2.3825 1.555 3.7025 0.875 5.0625 C-1.435 4.7325 -3.745 4.4025 -6.125 4.0625 C-5.465 3.7325 -4.805 3.4025 -4.125 3.0625 C-4.455 2.0725 -4.785 1.0825 -5.125 0.0625 C-3.125 -0.9375 -3.125 -0.9375 0 0 Z " fill="#12E0F9" transform="translate(328.125,173.9375)"/>
<path d="M0 0 C3.95906817 1.43308135 7.28718181 3.33141949 10.8125 5.625 C11.78832031 6.25664062 12.76414062 6.88828125 13.76953125 7.5390625 C14.50558594 8.02117187 15.24164063 8.50328125 16 9 C14.68 9.33 13.36 9.66 12 10 C12 9.34 12 8.68 12 8 C10.02 7.34 8.04 6.68 6 6 C6 5.34 6 4.68 6 4 C4.02 3.34 2.04 2.68 0 2 C0 1.34 0 0.68 0 0 Z " fill="#23979C" transform="translate(300,153)"/>
<path d="M0 0 C0.66 0 1.32 0 2 0 C2 0.66 2 1.32 2 2 C2.99 2 3.98 2 5 2 C5 3.65 5 5.3 5 7 C2.97954558 6.39816251 0.97888961 5.72693904 -1 5 C-1.33 4.34 -1.66 3.68 -2 3 C-1.34 2.01 -0.68 1.02 0 0 Z " fill="#17C9FA" transform="translate(387,211)"/>
<path d="M0 0 C5.61 0 11.22 0 17 0 C16.67 0.66 16.34 1.32 16 2 C14.68 2 13.36 2 12 2 C11.67 3.32 11.34 4.64 11 6 C10.34 6 9.68 6 9 6 C9 4.68 9 3.36 9 2 C6.03 2 3.06 2 0 2 C0 1.34 0 0.68 0 0 Z " fill="#18EEF6" transform="translate(183,191)"/>
<path d="M0 0 C0.33 0.66 0.66 1.32 1 2 C-0.51934706 5.03869411 -2.98004772 5.64410306 -6 7 C-6.66 7 -7.32 7 -8 7 C-8 7.66 -8 8.32 -8 9 C-9.65 9 -11.3 9 -13 9 C-9.39299028 4.76568424 -4.85413839 2.5307901 0 0 Z " fill="#22ACAD" transform="translate(206,148)"/>
<path d="M0 0 C0.33 0.99 0.66 1.98 1 3 C2.32 2.67 3.64 2.34 5 2 C4.375 4.375 4.375 4.375 3 7 C-0.125 8.3125 -0.125 8.3125 -3 9 C-3 8.34 -3 7.68 -3 7 C-2.34 7 -1.68 7 -1 7 C-1.33 5.02 -1.66 3.04 -2 1 C-1.34 0.67 -0.68 0.34 0 0 Z " fill="#23D7DA" transform="translate(169,180)"/>
<path d="M0 0 C0.66 0.33 1.32 0.66 2 1 C-1.465 3.97 -1.465 3.97 -5 7 C-5.66 6.67 -6.32 6.34 -7 6 C-7 5.01 -7 4.02 -7 3 C-4.69631264 1.93347808 -2.35981813 0.93578995 0 0 Z " fill="#22D5D6" transform="translate(147,187)"/>
<path d="M0 0 C1.98 0 3.96 0 6 0 C6.33 0.66 6.66 1.32 7 2 C7.99 2.33 8.98 2.66 10 3 C9.67 4.32 9.34 5.64 9 7 C8.67 6.34 8.34 5.68 8 5 C7.21625 4.87625 6.4325 4.7525 5.625 4.625 C3 4 3 4 1.1875 1.9375 C0.795625 1.298125 0.40375 0.65875 0 0 Z " fill="#29C2D7" transform="translate(325,184)"/>
<path d="M0 0 C-3.3 2.31 -6.6 4.62 -10 7 C-10.99 6.34 -11.98 5.68 -13 5 C-11.68 5 -10.36 5 -9 5 C-8.95875 4.38125 -8.9175 3.7625 -8.875 3.125 C-8 1 -8 1 -5.0625 -0.3125 C-2 -1 -2 -1 0 0 Z " fill="#23B5B8" transform="translate(222,154)"/>
<path d="M0 0 C1.44098611 0.76429661 2.87766054 1.53672555 4.3125 2.3125 C5.11300781 2.74175781 5.91351563 3.17101562 6.73828125 3.61328125 C8.83787272 4.90059554 10.35447721 6.18406708 12 8 C9.03 7.505 9.03 7.505 6 7 C6 6.34 6 5.68 6 5 C4.35 4.67 2.7 4.34 1 4 C0.67 2.68 0.34 1.36 0 0 Z " fill="#1F8895" transform="translate(329,171)"/>
<path d="M0 0 C0.33 0 0.66 0 1 0 C1.03738281 0.97582031 1.07476562 1.95164062 1.11328125 2.95703125 C1.21189453 4.86548828 1.21189453 4.86548828 1.3125 6.8125 C1.37050781 8.07707031 1.42851562 9.34164063 1.48828125 10.64453125 C1.7113494 13.96603693 1.7113494 13.96603693 3.54296875 15.94921875 C4.02378906 16.29597656 4.50460938 16.64273437 5 17 C4.34 17.33 3.68 17.66 3 18 C2.01 17.34 1.02 16.68 0 16 C-0.22107787 13.2114711 -0.28107535 10.65346819 -0.1875 7.875 C-0.17396484 7.12089844 -0.16042969 6.36679687 -0.14648438 5.58984375 C-0.11109985 3.72625873 -0.05729167 1.86304022 0 0 Z " fill="#31A6C9" transform="translate(140,352)"/>
<path d="M0 0 C2.625 0.9375 2.625 0.9375 5 2 C5 2.66 5 3.32 5 4 C5.99 4.33 6.98 4.66 8 5 C7.34 5.66 6.68 6.32 6 7 C4.02 6.01 2.04 5.02 0 4 C0 3.34 0 2.68 0 2 C-0.66 1.67 -1.32 1.34 -2 1 C-1.34 0.67 -0.68 0.34 0 0 Z " fill="#279AB3" transform="translate(371,211)"/>
<path d="M0 0 C5.28 0 10.56 0 16 0 C15.67 0.66 15.34 1.32 15 2 C12 2.6875 12 2.6875 9 3 C8.67 2.67 8.34 2.34 8 2 C6.65252916 1.76924918 5.29622435 1.58846937 3.9375 1.4375 C2.638125 1.293125 1.33875 1.14875 0 1 C0 0.67 0 0.34 0 0 Z " fill="#2A7EBD" transform="translate(344,369)"/>
<path d="M0 0 C0.33 0 0.66 0 1 0 C1 3.63 1 7.26 1 11 C2.32 11.66 3.64 12.32 5 13 C5.33 13.66 5.66 14.32 6 15 C3.5625 14.625 3.5625 14.625 1 14 C-0.38226016 11.23547967 -0.09525387 8.9538637 -0.0625 5.875 C-0.05347656 4.77929688 -0.04445312 3.68359375 -0.03515625 2.5546875 C-0.02355469 1.71164062 -0.01195312 0.86859375 0 0 Z " fill="#145A74" transform="translate(181,356)"/>
<path d="M0 0 C1.32 0.33 2.64 0.66 4 1 C2.54550599 2.0055761 1.08627557 3.00430435 -0.375 4 C-1.59316406 4.8353125 -1.59316406 4.8353125 -2.8359375 5.6875 C-5 7 -5 7 -7 7 C-7 6.01 -7 5.02 -7 4 C-6.01 4 -5.02 4 -4 4 C-4 3.34 -4 2.68 -4 2 C-2.68 2 -1.36 2 0 2 C0 1.34 0 0.68 0 0 Z " fill="#1FB1B0" transform="translate(200,165)"/>
<path d="M0 0 C0.99 0 1.98 0 3 0 C2.67 0.99 2.34 1.98 2 3 C1.77281504 5.56634861 1.58391816 8.11678107 1.4375 10.6875 C1.39431641 11.38939453 1.35113281 12.09128906 1.30664062 12.81445312 C1.2008264 14.54275206 1.09993419 16.2713511 1 18 C0.67 18 0.34 18 0 18 C0 12.06 0 6.12 0 0 Z " fill="#11ECF7" transform="translate(141,222)"/>
<path d="M0 0 C6.75 2.75 6.75 2.75 9 5 C6.03 4.67 3.06 4.34 0 4 C0 2.68 0 1.36 0 0 Z " fill="#249DB5" transform="translate(362,193)"/>
<path d="M0 0 C1.98 0.99 1.98 0.99 4 2 C4 4.64 4 7.28 4 10 C3.01 10.495 3.01 10.495 2 11 C1.77213542 9.01432292 1.54427083 7.02864583 1.31640625 5.04296875 C1.02829265 2.80603607 1.02829265 2.80603607 0 0 Z " fill="#31AAC8" transform="translate(276,282)"/>
<path d="M0 0 C4.10958767 1.45044271 7.43258745 3.51110752 11 6 C8.50907189 7.24546405 7.58919267 6.7767578 5 6 C5 5.34 5 4.68 5 4 C4.360625 3.896875 3.72125 3.79375 3.0625 3.6875 C2.381875 3.460625 1.70125 3.23375 1 3 C0.67 2.01 0.34 1.02 0 0 Z " fill="#228DA5" transform="translate(384,207)"/>
<path d="M0 0 C0 0.66 0 1.32 0 2 C-1.75 3.5078125 -1.75 3.5078125 -4 5.125 C-4.7425 5.66382813 -5.485 6.20265625 -6.25 6.7578125 C-6.8275 7.16773438 -7.405 7.57765625 -8 8 C-8.33 7.34 -8.66 6.68 -9 6 C-7.8803014 4.99406757 -6.7540588 3.9954151 -5.625 3 C-4.68527344 2.1646875 -4.68527344 2.1646875 -3.7265625 1.3125 C-2 0 -2 0 0 0 Z " fill="#08F7FC" transform="translate(193,164)"/>
<path d="M0 0 C1.65 0 3.3 0 5 0 C4.67 0.66 4.34 1.32 4 2 C3.34 2 2.68 2 2 2 C2 2.66 2 3.32 2 4 C0.35 4.33 -1.3 4.66 -3 5 C-2.67 4.01 -2.34 3.02 -2 2 C-1.34 2 -0.68 2 0 2 C0 1.34 0 0.68 0 0 Z " fill="#16D5F9" transform="translate(225,283)"/>
<path d="M0 0 C1.98 0.66 3.96 1.32 6 2 C6 2.66 6 3.32 6 4 C4.35 4.33 2.7 4.66 1 5 C0.67 3.35 0.34 1.7 0 0 Z " fill="#18C5F7" transform="translate(353,256)"/>
<path d="M0 0 C1.32 0.33 2.64 0.66 4 1 C2.1875 3 2.1875 3 0 5 C-0.99 5 -1.98 5 -3 5 C-3.33 5.66 -3.66 6.32 -4 7 C-4 6.01 -4 5.02 -4 4 C-3.01 4 -2.02 4 -1 4 C-0.67 2.68 -0.34 1.36 0 0 Z " fill="#25B5C0" transform="translate(117,217)"/>
<path d="M0 0 C0.66 0 1.32 0 2 0 C2 0.66 2 1.32 2 2 C4.97 2.495 4.97 2.495 8 3 C8 3.66 8 4.32 8 5 C5.69 5 3.38 5 1 5 C0.67 3.35 0.34 1.7 0 0 Z " fill="#1FDDF2" transform="translate(333,176)"/>
<path d="M0 0 C0.99 0 1.98 0 3 0 C1.9024777 2.99324263 1.32317108 3.84610901 -1.625 5.25 C-2.40875 5.4975 -3.1925 5.745 -4 6 C-3.67 4.68 -3.34 3.36 -3 2 C-2.01 2 -1.02 2 0 2 C0 1.34 0 0.68 0 0 Z " fill="#23B4B2" transform="translate(177,179)"/>
<path d="M0 0 C0.66 0 1.32 0 2 0 C1.67 1.32 1.34 2.64 1 4 C-1.31 4.33 -3.62 4.66 -6 5 C-5.195625 4.360625 -4.39125 3.72125 -3.5625 3.0625 C-1.7249496 1.59396498 -1.7249496 1.59396498 0 0 Z " fill="#26B7B8" transform="translate(235,129)"/>
<path d="M0 0 C2.97 0.495 2.97 0.495 6 1 C6 1.66 6 2.32 6 3 C6.66 3 7.32 3 8 3 C7.67 3.66 7.34 4.32 7 5 C5.68 4.67 4.36 4.34 3 4 C3 3.34 3 2.68 3 2 C2.01 2 1.02 2 0 2 C0 1.34 0 0.68 0 0 Z " fill="#25CFEE" transform="translate(365,197)"/>
<path d="M0 0 C0.66 0.66 1.32 1.32 2 2 C1.63318342 4.93453261 1.13562754 5.86437246 -1 8 C-1 6.02 -1 4.04 -1 2 C-1.66 1.67 -2.32 1.34 -3 1 C-2.01 0.67 -1.02 0.34 0 0 Z " fill="#1CD2F9" transform="translate(351,200)"/>
<path d="M0 0 C0.33 0.66 0.66 1.32 1 2 C0.34 2 -0.32 2 -1 2 C-1 2.66 -1 3.32 -1 4 C-1.66 4 -2.32 4 -3 4 C-3 4.66 -3 5.32 -3 6 C-4.65 6 -6.3 6 -8 6 C-5.38485683 3.87961365 -2.80362384 1.86908256 0 0 Z " fill="#1DA5A8" transform="translate(215,142)"/>
<path d="M0 0 C0.99 0 1.98 0 3 0 C3 0.66 3 1.32 3 2 C3.66 2.66 4.32 3.32 5 4 C3.68 4 2.36 4 1 4 C0.67 4.99 0.34 5.98 0 7 C-1.04449911 3.86650268 -0.93423645 3.01031744 0 0 Z " fill="#0AF5FC" transform="translate(263,132)"/>
<path d="M0 0 C-0.33 1.32 -0.66 2.64 -1 4 C-2.98 4.33 -4.96 4.66 -7 5 C-2.25 0 -2.25 0 0 0 Z " fill="#1EA8A9" transform="translate(112,209)"/>
<path d="M0 0 C1.98 0 3.96 0 6 0 C6.33 1.65 6.66 3.3 7 5 C3.535 3.02 3.535 3.02 0 1 C0 0.67 0 0.34 0 0 Z " fill="#22B9BC" transform="translate(258,141)"/>
</svg>
